<?xml version="1.0" encoding="utf-8"?>
<!-- Generator: Adobe Illustrator 23.0.1, SVG Export Plug-In . SVG Version: 6.00 Build 0)  -->
<svg version="1.1" xmlns="http://www.w3.org/2000/svg" xmlns:xlink="http://www.w3.org/1999/xlink" x="0px" y="0px"
	 viewBox="0 0 200 200" style="enable-background:new 0 0 200 200;" xml:space="preserve">
<style type="text/css">
	.st0{fill:#002E82;}
	.st1{opacity:0.5;fill:#70A83B;}
	.st2{fill:url(#SVGID_1_);}
	.st3{fill:url(#SVGID_2_);}
	.st4{opacity:0.28;fill:url(#SVGID_3_);}
	.st5{fill:#FFFFFF;}
	.st6{fill:url(#SVGID_4_);}
	.st7{fill:url(#SVGID_5_);}
	.st8{opacity:0.28;fill:url(#SVGID_6_);}
	.st9{fill:url(#SVGID_7_);}
	.st10{fill:url(#SVGID_8_);}
	.st11{opacity:0.28;fill:url(#SVGID_9_);}
	.st12{fill:url(#SVGID_10_);}
	.st13{fill:url(#SVGID_11_);}
	.st14{opacity:0.28;fill:url(#SVGID_12_);}
	.st15{opacity:0.5;fill:#FFFFFF;}
	.st16{opacity:0.5;}
	.st17{opacity:0.5;fill:#002E82;}
</style>
<g id="Capa_1">
	<g>
		<path class="st5" d="M146,195.7c2,0,3.9-0.2,5.8-0.7c2.9-0.8,5.6-2.1,7.8-4c2.3-1.9,4.2-4.4,5.4-7.3c1.2-2.7,1.8-5.6,1.8-8.7
			c0-2.7-0.4-5.2-1.3-7.5c-1-2.8-2.6-5.3-4.6-7.3c-0.5-0.5-1-0.9-1.5-1.4c5.6-6.7,8.9-15.2,8.9-24.5v-22.5c1.7-2.4,3.3-4.7,5-6.8
			c5.5-7,10.5-12.2,15.6-16.2c2.1-1.6,7.9-6.1,10.2-14.6c2-7.2,0.8-15.1-3.1-21.2c-1.3-2-2.8-3.8-4.4-5.3c-0.2-0.2-0.3-0.3-0.5-0.5
			c-0.1-0.1-0.2-0.2-0.3-0.3l0,0c-0.2-0.2-0.5-0.4-0.7-0.6c-0.1-0.1-0.2-0.2-0.3-0.2l0,0c-0.2-0.1-0.4-0.3-0.6-0.4
			c-0.1-0.1-0.2-0.2-0.3-0.2c-0.3-0.2-0.5-0.4-0.8-0.6l-0.3-0.2c-0.3-0.2-0.6-0.4-0.9-0.6c-0.1-0.1-0.2-0.1-0.3-0.2
			c-0.3-0.2-0.6-0.3-0.9-0.5l-0.1,0c-0.1-0.1-0.2-0.1-0.3-0.1c-0.4-0.2-0.7-0.4-1.1-0.5c-0.1,0-0.2-0.1-0.3-0.1
			c-0.3-0.1-0.6-0.2-0.9-0.4c-0.1,0-0.2-0.1-0.2-0.1l-0.1,0c-0.4-0.2-0.8-0.3-1.3-0.4c-0.1,0-0.2-0.1-0.3-0.1
			c-0.5-0.1-0.9-0.3-1.4-0.4c-2.2-0.5-4.4-0.7-6.6-0.7c-1.6,0-3.3,0.1-4.8,0.4C167.3,20.6,150.5,4.3,130,4.3H38.4
			C17.2,4.3,0,21.5,0,42.7v91.6c0,9.2,3.3,17.7,8.7,24.3c-3.1,3.3-4.8,7.7-4.8,12.2v6.8c0,3.7,1.1,7.3,3.3,10.3
			c3.3,4.7,8.8,7.6,14.6,7.6L146,195.7z"/>
		<g>
			<path class="st1" d="M124,52.3l-15.2,34.3l-4-27.7c-0.1-0.9-1-1.6-1.9-1.6h-6.5c-0.7,0-1.4,0.4-1.7,1.1L75.2,99.7
				c-0.6,1.3,0.3,2.7,1.7,2.7h5.1c0.7,0,1.4-0.4,1.7-1.1l13.5-28.8l4.1,28.4c0.1,0.9,1,1.6,1.9,1.6h6.5c0.8,0,1.5-0.4,1.8-1.1
				l21.1-47.6c0.6-1.3-0.4-2.7-1.8-2.7h-5.2C125,51.1,124.3,51.6,124,52.3z"/>
			<g>
				<linearGradient id="SVGID_1_" gradientUnits="userSpaceOnUse" x1="16.1831" y1="19.2375" x2="149.9587" y2="153.0132">
					<stop  offset="0.1899" style="stop-color:#009BDB"/>
					<stop  offset="0.9944" style="stop-color:#002E82"/>
				</linearGradient>
				<path class="st2" d="M130,153.7H38.4c-11.4,0-20.7-9.3-20.7-20.7V41.4c0-11.4,9.3-20.7,20.7-20.7H130c11.4,0,20.7,9.3,20.7,20.7
					V133C150.6,144.4,141.4,153.7,130,153.7z M38.4,32.2c-5.1,0-9.2,4.1-9.2,9.2V133c0,5.1,4.1,9.2,9.2,9.2H130
					c5.1,0,9.2-4.1,9.2-9.2V41.4c0-5.1-4.1-9.2-9.2-9.2H38.4z"/>
			</g>
			<linearGradient id="SVGID_2_" gradientUnits="userSpaceOnUse" x1="66.6589" y1="112.1912" x2="182.3137" y2="112.1912">
				<stop  offset="0" style="stop-color:#70A83B"/>
				<stop  offset="0.4374" style="stop-color:#649F3B"/>
				<stop  offset="1" style="stop-color:#4F8E3A"/>
			</linearGradient>
			<path class="st3" d="M181.1,61.3c-1.2-1.9-3.1-3.6-5.4-4.1c-2.2-0.5-5-0.5-6.9,0.9c-7.7,5.8-14.5,12.5-20.6,20
				c-6.5,8-12.3,16.4-17.7,25.1c-8.2,13.3-15.4,27.2-21.9,41.4c-8.5-5.5-18.1-9.5-27.5-12.8c-1.1-0.4-2.1-0.8-3.2-1.1
				c-4.5-1.4-10,1.7-11,6.3c-1.1,4.9,1.5,9.5,6.3,11c3.4,1.1,6.7,2.4,10,3.7c7.2,3.1,14.3,6.7,20.5,11.3c0.7,0.6,1.5,1.2,2.2,1.8
				c2.4,2.2,5.5,3.2,8.7,2.3c1.5-0.4,2.8-1.2,4-2.3c1.1-1.1,1.9-2.4,2.3-3.9c2.6-6.2,5.5-12.2,8.4-18.2c5.4-10.9,11.2-21.7,17.7-32
				c3.8-6.1,7.9-12.1,12.3-17.9c5.6-7.1,11.7-13.8,18.7-19.4c1.9-1.4,3.3-2.9,4-5.3C182.6,66.1,182.3,63.2,181.1,61.3z"/>
			<linearGradient id="SVGID_3_" gradientUnits="userSpaceOnUse" x1="66.6908" y1="108.5341" x2="179.4815" y2="108.5341">
				<stop  offset="0" style="stop-color:#FFFFFF"/>
				<stop  offset="1" style="stop-color:#FFFFFF"/>
			</linearGradient>
			<path class="st4" d="M80.4,144.4c7.2,3.1,14.3,6.7,20.5,11.3c0.7,0.6,1.5,1.2,2.2,1.8c2.4,2.2,5.5,3.2,8.7,2.3
				c1.5-0.4,2.8-1.2,4-2.3c1.1-1.1,1.9-2.4,2.3-3.9c2.6-6.2,5.5-12.2,8.4-18.2c5.4-10.9,11.2-21.7,17.7-32
				c3.8-6.1,7.9-12.1,12.3-17.9c5.6-7.1,11.7-13.8,18.7-19.4c1.9-1.4,3.3-2.9,4-5.3c0.1-0.5,0.2-1,0.3-1.6c-1-1-2.3-1.8-3.7-2.1
				c-2.2-0.5-5-0.5-6.9,0.9c-7.7,5.8-14.5,12.5-20.6,20c-6.5,8-12.3,16.4-17.7,25.1c-8.2,13.3-15.4,27.2-21.9,41.4
				c-8.5-5.5-18.1-9.5-27.5-12.8c-1.1-0.4-2.1-0.8-3.2-1.1c-4.5-1.4-10,1.7-11,6.3c-0.1,0.5-0.2,1.1-0.2,1.6c1,0.9,2.3,1.7,3.7,2.2
				C73.8,141.7,77.1,143,80.4,144.4z"/>
			<g>
				<path class="st0" d="M21.6,169.6c0-0.1,0-0.1,0.1-0.2c0,0,0.1-0.1,0.1-0.1c0.2,0,0.4,0,0.6,0c0.2,0,0.4,0,0.6,0
					c0.2,0,0.4,0,0.7,0c0.2,0,0.5,0,0.8,0c0.6,0,1.1,0,1.5,0c0.3,0,0.6,0.1,0.7,0.1c0.1,0,0.1,0.1,0.2,0.2c0.1,0.1,0.1,0.2,0.2,0.3
					c0.1,0.1,0.1,0.2,0.1,0.4c0,0.1,0.1,0.3,0.1,0.4c0,0.1,0,0.1-0.1,0.2c-0.1,0-0.1,0.1-0.2,0c-0.2,0-0.5,0-0.9,0
					c-0.4,0-0.8,0-1.2,0c-0.2,0-0.4,0-0.6,0c-0.2,0-0.3,0-0.5,0c-0.1,0-0.2,0-0.2,0.1c0,0,0,0.1,0,0.2v1.2c0,0.1,0,0.1,0.1,0.2
					c0,0,0.1,0,0.2,0h2.9c0.1,0,0.1,0,0.2,0c0,0,0.1,0.1,0.1,0.2c0,0.1,0,0.2,0,0.3c0,0.1,0,0.2-0.1,0.3c0,0.1-0.1,0.2-0.1,0.3
					s-0.1,0.2-0.2,0.2c-0.1,0.1-0.2,0.1-0.3,0.1c-0.1,0-0.2,0-0.4,0h-2c-0.1,0-0.2,0-0.2,0.1c0,0-0.1,0.1-0.1,0.2v1.8
					c0,0.1,0,0.2,0,0.3c0,0.1,0,0.1-0.1,0.2c0,0-0.1,0.1-0.2,0.1c-0.1,0-0.2,0-0.3,0h-1.2c-0.1,0-0.1,0-0.1-0.1c0,0,0-0.1,0-0.1
					V169.6z"/>
				<path class="st0" d="M30,169.4c0,0.2,0,0.3-0.1,0.5c0,0.1-0.1,0.2-0.2,0.3c0,0-0.1,0.1-0.2,0.1c-0.1,0-0.2,0-0.2,0
					c-0.1,0-0.2,0-0.2,0c-0.1,0-0.1,0-0.2,0c-0.4,0-0.7-0.1-0.8-0.2c-0.1-0.1-0.2-0.3-0.2-0.7c0-0.2,0-0.3,0.1-0.5
					c0-0.1,0.1-0.2,0.2-0.3c0.1,0,0.2-0.1,0.3-0.1s0.3,0,0.5,0c0.2,0,0.4,0,0.5,0c0.1,0,0.2,0.1,0.3,0.1
					C29.9,168.8,30,169.1,30,169.4z M29.8,176.4c0,0.1-0.1,0.2-0.2,0.2h-1.5c-0.1,0-0.1,0-0.1-0.1c0,0,0-0.1,0-0.2v-5.2
					c0-0.1,0.1-0.2,0.2-0.2h1.5c0.1,0,0.1,0,0.1,0c0,0,0,0.1,0,0.2V176.4z"/>
				<path class="st0" d="M36.9,176.4c0,0.1,0,0.1,0,0.2c0,0-0.1,0-0.1,0h-1.5c-0.1,0-0.1,0-0.2-0.1c0,0,0-0.1,0-0.2v-2.8
					c0-0.2,0-0.4,0-0.6c0-0.1-0.1-0.2-0.1-0.3c-0.1-0.1-0.2-0.1-0.3-0.2c-0.1,0-0.3,0-0.5,0c-0.2,0-0.3,0-0.5,0c-0.1,0-0.3,0-0.4,0
					c-0.1,0-0.1,0-0.2,0.1c0,0,0,0.1,0,0.3v3.6c0,0.1-0.1,0.2-0.2,0.2h-1.5c-0.1,0-0.1,0-0.1-0.1c0,0,0-0.1,0-0.2v-5
					c0-0.1,0-0.1,0-0.1c0,0,0.1,0,0.1-0.1c0.4,0,0.8-0.1,1.3-0.1c0.5,0,1-0.1,1.5-0.1c0.3,0,0.6,0,0.9,0c0.2,0,0.5,0.1,0.6,0.1
					c0.2,0,0.3,0.1,0.4,0.2c0.1,0.1,0.2,0.1,0.3,0.2c0.1,0.1,0.1,0.2,0.2,0.3c0.1,0.1,0.1,0.2,0.1,0.3c0,0.1,0.1,0.3,0.1,0.5
					c0,0.2,0,0.4,0,0.7V176.4z"/>
				<path class="st0" d="M43.4,176.3c0,0.1-0.1,0.2-0.2,0.2c-0.3,0-0.7,0.1-1.1,0.1c-0.4,0-0.9,0-1.3,0c-0.4,0-0.7,0-1,0
					c-0.3,0-0.5-0.1-0.7-0.1c-0.2,0-0.4-0.1-0.5-0.1c-0.1-0.1-0.2-0.1-0.3-0.2c-0.1-0.1-0.2-0.3-0.3-0.5c-0.1-0.2-0.1-0.5-0.1-0.8
					c0-0.3,0-0.6,0.1-0.8c0.1-0.2,0.2-0.4,0.3-0.5c0.1,0,0.2-0.1,0.4-0.1s0.4-0.1,0.7-0.1c0.3,0,0.6-0.1,0.9-0.1
					c0.3,0,0.7-0.1,1-0.1c0.1,0,0.2-0.1,0.2-0.2c0-0.2-0.1-0.4-0.2-0.5c-0.1-0.1-0.2-0.1-0.3-0.1c-0.2,0-0.4,0-0.7,0
					c-0.4,0-0.8,0-1.1,0c-0.4,0-0.6,0.1-0.8,0.1c0,0-0.1,0-0.1,0c0,0-0.1-0.1,0-0.1c0-0.1,0-0.2,0.1-0.3c0-0.1,0.1-0.2,0.1-0.3
					c0-0.1,0.1-0.2,0.2-0.3c0.1-0.1,0.1-0.1,0.2-0.2c0.1-0.1,0.4-0.2,0.8-0.2c0.4-0.1,0.8-0.1,1.4-0.1c0.6,0,1,0,1.3,0.1
					c0.3,0.1,0.6,0.2,0.7,0.3c0.1,0.1,0.1,0.2,0.2,0.3c0.1,0.1,0.1,0.2,0.1,0.4c0,0.2,0.1,0.3,0.1,0.6c0,0.2,0,0.5,0,0.8V176.3z
					 M41.6,174.4c0-0.1,0-0.1,0-0.1c0,0-0.1,0-0.1,0c-0.1,0-0.3,0-0.4,0c-0.2,0-0.3,0-0.4,0c-0.1,0-0.3,0-0.4,0
					c-0.1,0-0.2,0-0.2,0.1c-0.1,0.1-0.1,0.2-0.1,0.4c0,0.2,0,0.3,0.1,0.4c0.1,0,0.1,0.1,0.3,0.1c0.1,0,0.3,0,0.5,0
					c0.2,0,0.3,0,0.5,0c0.1,0,0.2,0,0.3-0.1c0,0,0.1-0.1,0.1-0.1c0,0,0-0.1,0-0.2V174.4z"/>
				<path class="st0" d="M50.4,176.4c0,0.1,0,0.1,0,0.2c0,0-0.1,0-0.1,0h-1.5c-0.1,0-0.1,0-0.2-0.1c0,0,0-0.1,0-0.2v-2.8
					c0-0.2,0-0.4,0-0.6c0-0.1-0.1-0.2-0.1-0.3c-0.1-0.1-0.2-0.1-0.3-0.2s-0.3,0-0.5,0c-0.2,0-0.3,0-0.5,0c-0.1,0-0.3,0-0.4,0
					c-0.1,0-0.1,0-0.2,0.1c0,0,0,0.1,0,0.3v3.6c0,0.1-0.1,0.2-0.2,0.2h-1.5c-0.1,0-0.1,0-0.1-0.1c0,0,0-0.1,0-0.2v-5
					c0-0.1,0-0.1,0-0.1c0,0,0.1,0,0.1-0.1c0.4,0,0.8-0.1,1.3-0.1c0.5,0,1-0.1,1.5-0.1c0.3,0,0.6,0,0.9,0c0.2,0,0.5,0.1,0.6,0.1
					c0.2,0,0.3,0.1,0.4,0.2c0.1,0.1,0.2,0.1,0.3,0.2c0.1,0.1,0.1,0.2,0.2,0.3c0.1,0.1,0.1,0.2,0.1,0.3c0,0.1,0.1,0.3,0.1,0.5
					c0,0.2,0,0.4,0,0.7V176.4z"/>
				<path class="st0" d="M56.1,171.1c0.1,0.1,0.2,0.2,0.3,0.4c0.1,0.2,0.1,0.4,0.1,0.6c0,0.1,0,0.1-0.1,0.2c-0.1,0-0.1,0.1-0.2,0
					c-0.2,0-0.4,0-0.6-0.1c-0.2,0-0.5,0-0.7,0c-0.7,0-1.1,0.1-1.3,0.3c-0.1,0.1-0.2,0.2-0.2,0.4c-0.1,0.2-0.1,0.4-0.1,0.7
					c0,0.3,0,0.6,0.1,0.8c0.1,0.2,0.1,0.3,0.2,0.4c0.1,0.1,0.3,0.2,0.5,0.2c0.2,0,0.4,0.1,0.7,0.1c0.4,0,0.7,0,0.9,0
					c0.2,0,0.4,0,0.6-0.1c0.1,0,0.1,0,0.2,0c0,0,0.1,0.1,0.1,0.2c0,0.1,0,0.2,0,0.3c0,0.1-0.1,0.2-0.1,0.3c0,0.1-0.1,0.2-0.2,0.3
					c-0.1,0.1-0.1,0.2-0.2,0.2c-0.1,0.1-0.3,0.2-0.6,0.2c-0.3,0.1-0.6,0.1-1.1,0.1c-0.3,0-0.5,0-0.8,0c-0.2,0-0.4-0.1-0.6-0.1
					c-0.2,0-0.3-0.1-0.4-0.2c-0.1-0.1-0.2-0.1-0.3-0.2c-0.2-0.2-0.4-0.5-0.5-0.8c-0.1-0.4-0.2-0.9-0.2-1.5c0-0.6,0.1-1.1,0.2-1.5
					c0.2-0.4,0.4-0.7,0.6-0.9c0.2-0.2,0.5-0.3,0.9-0.4c0.4-0.1,0.8-0.1,1.3-0.1c0.4,0,0.8,0,1,0.1C55.8,171,56,171,56.1,171.1z"/>
				<path class="st0" d="M59.4,169.4c0,0.2,0,0.3-0.1,0.5c0,0.1-0.1,0.2-0.2,0.3c0,0-0.1,0.1-0.2,0.1c-0.1,0-0.2,0-0.2,0
					c-0.1,0-0.2,0-0.2,0c-0.1,0-0.1,0-0.2,0c-0.4,0-0.7-0.1-0.8-0.2c-0.1-0.1-0.2-0.3-0.2-0.7c0-0.2,0-0.3,0.1-0.5
					c0-0.1,0.1-0.2,0.2-0.3c0.1,0,0.2-0.1,0.3-0.1s0.3,0,0.5,0c0.2,0,0.4,0,0.5,0c0.1,0,0.2,0.1,0.3,0.1
					C59.4,168.8,59.4,169.1,59.4,169.4z M59.3,176.4c0,0.1-0.1,0.2-0.2,0.2h-1.5c-0.1,0-0.1,0-0.1-0.1c0,0,0-0.1,0-0.2v-5.2
					c0-0.1,0.1-0.2,0.2-0.2h1.5c0.1,0,0.1,0,0.1,0c0,0,0,0.1,0,0.2V176.4z"/>
				<path class="st0" d="M65.9,176.3c0,0.1-0.1,0.2-0.2,0.2c-0.3,0-0.7,0.1-1.1,0.1c-0.4,0-0.9,0-1.3,0c-0.4,0-0.7,0-1,0
					c-0.3,0-0.5-0.1-0.7-0.1c-0.2,0-0.4-0.1-0.5-0.1c-0.1-0.1-0.2-0.1-0.3-0.2c-0.1-0.1-0.2-0.3-0.3-0.5c-0.1-0.2-0.1-0.5-0.1-0.8
					c0-0.3,0-0.6,0.1-0.8c0.1-0.2,0.2-0.4,0.3-0.5c0.1,0,0.2-0.1,0.4-0.1c0.2,0,0.4-0.1,0.7-0.1c0.3,0,0.6-0.1,0.9-0.1
					c0.3,0,0.7-0.1,1-0.1c0.1,0,0.2-0.1,0.2-0.2c0-0.2-0.1-0.4-0.2-0.5c-0.1-0.1-0.2-0.1-0.3-0.1c-0.2,0-0.4,0-0.7,0
					c-0.4,0-0.8,0-1.2,0c-0.4,0-0.6,0.1-0.8,0.1c0,0-0.1,0-0.1,0c0,0-0.1-0.1,0-0.1c0-0.1,0-0.2,0.1-0.3c0-0.1,0.1-0.2,0.1-0.3
					c0-0.1,0.1-0.2,0.2-0.3c0.1-0.1,0.1-0.1,0.2-0.2c0.1-0.1,0.4-0.2,0.8-0.2c0.4-0.1,0.8-0.1,1.4-0.1c0.6,0,1,0,1.3,0.1
					c0.3,0.1,0.6,0.2,0.7,0.3c0.1,0.1,0.1,0.2,0.2,0.3c0.1,0.1,0.1,0.2,0.1,0.4c0,0.2,0.1,0.3,0.1,0.6c0,0.2,0,0.5,0,0.8V176.3z
					 M64,174.4c0-0.1,0-0.1,0-0.1c0,0-0.1,0-0.1,0c-0.1,0-0.3,0-0.4,0c-0.2,0-0.3,0-0.4,0c-0.1,0-0.3,0-0.4,0c-0.1,0-0.2,0-0.2,0.1
					c-0.1,0.1-0.1,0.2-0.1,0.4c0,0.2,0,0.3,0.1,0.4c0.1,0,0.1,0.1,0.3,0.1c0.1,0,0.3,0,0.5,0c0.2,0,0.3,0,0.5,0c0.1,0,0.2,0,0.3-0.1
					c0,0,0.1-0.1,0.1-0.1c0,0,0-0.1,0-0.2V174.4z"/>
				<path class="st0" d="M72,170.9c0.6,0,1.1,0,1.5,0c0.4,0,0.8,0.1,1.1,0.1c0.3,0,0.5,0.1,0.7,0.2c0.2,0.1,0.3,0.1,0.4,0.2
					c0.1,0.1,0.2,0.2,0.2,0.3c0.1,0.1,0.1,0.2,0.1,0.3c0,0.1,0.1,0.3,0.1,0.5c0,0.2,0,0.4,0,0.7v3.1c0,0.1-0.1,0.2-0.2,0.2h-1.4
					c-0.1,0-0.2,0-0.2-0.1c0,0-0.1-0.1-0.1-0.3v-2.7c0-0.3,0-0.5,0-0.6c0-0.1-0.1-0.3-0.1-0.3c-0.1-0.1-0.6-0.2-1.4-0.2
					c-0.1,0-0.1,0.1-0.1,0.2v3.8c0,0.1-0.1,0.2-0.2,0.2h-1.5c-0.1,0-0.1,0-0.1-0.1c0,0,0-0.1,0-0.2v-3.7c0-0.1,0-0.1,0-0.2
					c0,0-0.1,0-0.1,0c-0.3,0-0.5,0-0.8,0c-0.2,0-0.4,0-0.6,0c-0.1,0-0.1,0-0.1,0.1c0,0,0,0.1,0,0.2v3.6c0,0.1-0.1,0.2-0.2,0.2h-1.5
					c-0.1,0-0.1,0-0.1-0.1c0,0,0-0.1,0-0.2v-5c0-0.1,0-0.1,0-0.2c0,0,0.1,0,0.1,0c0.5-0.1,1.1-0.1,1.9-0.2
					C70.2,170.9,71,170.9,72,170.9z"/>
				<path class="st0" d="M83.3,173.7c0,0.7-0.1,1.2-0.3,1.6c-0.2,0.4-0.4,0.7-0.6,0.9c-0.2,0.2-0.5,0.3-0.9,0.4
					c-0.4,0.1-0.8,0.1-1.4,0.1c-0.5,0-1-0.1-1.4-0.2c-0.4-0.1-0.7-0.3-0.9-0.5c-0.2-0.2-0.3-0.4-0.5-0.8c-0.1-0.3-0.2-0.8-0.2-1.4
					c0-0.6,0.1-1.1,0.2-1.5c0.2-0.4,0.4-0.7,0.6-0.9c0.2-0.2,0.5-0.3,0.9-0.4c0.4-0.1,0.8-0.1,1.4-0.1c0.6,0,1,0.1,1.4,0.2
					c0.4,0.1,0.6,0.3,0.8,0.4c0.2,0.2,0.4,0.5,0.5,0.8C83.3,172.6,83.3,173.1,83.3,173.7z M81.5,173.8c0-0.3,0-0.6-0.1-0.7
					c0-0.2-0.1-0.3-0.2-0.4c-0.1-0.1-0.2-0.1-0.3-0.2c-0.2,0-0.3-0.1-0.5-0.1c-0.5,0-0.8,0.1-0.9,0.2c-0.1,0.1-0.1,0.2-0.2,0.4
					c-0.1,0.2-0.1,0.5-0.1,0.8c0,0.3,0,0.5,0.1,0.7c0,0.2,0.1,0.4,0.2,0.5c0.1,0.1,0.2,0.1,0.4,0.2c0.2,0,0.3,0.1,0.5,0.1
					c0.4,0,0.7-0.1,0.9-0.2c0.1-0.1,0.2-0.2,0.3-0.4C81.5,174.4,81.5,174.1,81.5,173.8z"/>
				<path class="st0" d="M87,170.9c0.4,0,0.8,0,1.1,0.1c0.3,0,0.5,0.1,0.6,0.2c0.1,0.1,0.3,0.2,0.3,0.4c0.1,0.2,0.1,0.4,0.1,0.6
					c0,0.1,0,0.1,0,0.1c0,0-0.1,0.1-0.1,0.1c-0.2,0-0.5,0-0.7-0.1c-0.3,0-0.6,0-0.8,0c-0.3,0-0.5,0-0.7,0c-0.2,0-0.3,0-0.4,0.1
					c0,0-0.1,0.1-0.1,0.1c0,0.1,0,0.1,0,0.2c0,0.1,0,0.2,0.1,0.2c0.1,0,0.2,0.1,0.5,0.1c0.2,0,0.5,0.1,0.8,0.1
					c0.3,0,0.6,0.1,0.8,0.2c0.3,0.1,0.4,0.1,0.5,0.2c0.1,0.1,0.2,0.2,0.2,0.3c0.1,0.2,0.1,0.4,0.1,0.7c0,0.4-0.1,0.8-0.2,1.1
					c-0.1,0.3-0.2,0.5-0.4,0.6c-0.2,0.1-0.4,0.2-0.8,0.3c-0.3,0.1-0.8,0.1-1.4,0.1c-0.5,0-0.9,0-1.2-0.1c-0.3,0-0.5-0.1-0.6-0.2
					c-0.1,0-0.1-0.1-0.2-0.2c-0.1-0.1-0.1-0.2-0.1-0.3s-0.1-0.2-0.1-0.3s0-0.2,0-0.3c0-0.1,0-0.1,0.1-0.2c0,0,0.1-0.1,0.1,0
					c0.2,0,0.5,0.1,0.8,0.1c0.3,0,0.6,0,0.9,0c0.2,0,0.4,0,0.6,0c0.2,0,0.3,0,0.3-0.1c0.1-0.1,0.1-0.2,0.1-0.3c0-0.1,0-0.2-0.1-0.2
					c-0.1,0-0.2-0.1-0.3-0.1c-0.1,0-0.3-0.1-0.5-0.1c-0.2,0-0.4-0.1-0.6-0.1c-0.2,0-0.4-0.1-0.6-0.1c-0.2,0-0.3-0.1-0.5-0.1
					c-0.1,0-0.2-0.1-0.3-0.1c-0.1-0.1-0.2-0.2-0.2-0.4c0-0.2-0.1-0.3-0.1-0.5c0-0.5,0.1-0.8,0.2-1.1s0.3-0.5,0.4-0.6
					c0.2-0.1,0.4-0.3,0.8-0.3C86,170.9,86.4,170.9,87,170.9z"/>
				<path class="st0" d="M93.2,170.5c0-0.3,0.1-0.6,0.2-0.7c0.1-0.1,0.2-0.2,0.5-0.2c0.2-0.1,0.6-0.1,1-0.2c0.1,0,0.1,0,0.1,0
					c0,0,0.1,0.1,0.1,0.1v0.7c0,0.1,0,0.3,0,0.4c0,0.1,0,0.2,0.1,0.2c0,0,0.1,0.1,0.2,0.1c0.1,0,0.2,0,0.3,0h1.5
					c0.1,0,0.2,0.1,0.2,0.2c0,0.1,0,0.2-0.1,0.3c0,0.1-0.1,0.2-0.1,0.3c0,0.1-0.1,0.2-0.1,0.3c-0.1,0.1-0.1,0.1-0.1,0.2
					c-0.1,0.1-0.3,0.1-0.5,0.1h-0.8c-0.2,0-0.3,0-0.4,0.1c-0.1,0.1-0.1,0.2-0.1,0.4v1.3c0,0.2,0,0.4,0,0.5c0,0.1,0.1,0.2,0.1,0.2
					c0.1,0.1,0.1,0.1,0.3,0.1c0.1,0,0.3,0,0.6,0c0.2,0,0.4,0,0.5,0c0.1,0,0.3,0,0.4,0c0.1,0,0.1,0,0.1,0c0,0,0,0.1,0,0.1
					c0,0.2-0.1,0.4-0.2,0.6c-0.1,0.2-0.2,0.3-0.3,0.4c-0.1,0.1-0.2,0.1-0.5,0.2c-0.2,0-0.6,0.1-1,0.1c-0.4,0-0.8,0-1.1-0.1
					c-0.3-0.1-0.5-0.2-0.6-0.3c-0.1-0.1-0.1-0.1-0.2-0.2c0-0.1-0.1-0.2-0.1-0.3c0-0.1,0-0.3-0.1-0.5c0-0.2,0-0.4,0-0.6v-1.7
					c0-0.2,0-0.4-0.1-0.4c-0.1-0.1-0.2-0.1-0.4-0.1h-0.4c-0.1,0-0.1,0-0.1-0.1c0,0,0-0.1,0-0.1c0-0.1,0-0.2,0-0.3
					c0-0.1,0-0.2,0.1-0.3c0-0.1,0.1-0.2,0.1-0.3c0-0.1,0.1-0.2,0.1-0.2c0,0,0.1,0,0.1-0.1c0,0,0.1,0,0.1,0H93c0.1,0,0.2-0.1,0.2-0.2
					V170.5z"/>
				<path class="st0" d="M103.7,176.2c0,0.1,0,0.1,0,0.1c0,0-0.1,0.1-0.1,0.1c-0.3,0.1-0.7,0.1-1.2,0.2c-0.5,0-1,0.1-1.5,0.1
					c-0.7,0-1.2,0-1.6-0.1c-0.4-0.1-0.7-0.2-0.8-0.4c-0.1-0.1-0.1-0.2-0.2-0.3c0-0.1-0.1-0.2-0.1-0.4c0-0.1-0.1-0.3-0.1-0.5
					c0-0.2,0-0.4,0-0.7v-3.1c0-0.1,0.1-0.2,0.2-0.2h1.5c0.1,0,0.2,0,0.2,0.1c0,0,0,0.1,0,0.2v2.9c0,0.2,0,0.4,0,0.5
					c0,0.1,0.1,0.2,0.1,0.3c0.1,0.1,0.4,0.2,0.8,0.2c0.3,0,0.5,0,0.7,0c0.1,0,0.2-0.1,0.2-0.1c0-0.1,0.1-0.1,0.1-0.3v-3.6
					c0-0.1,0.1-0.2,0.2-0.2h1.5c0.1,0,0.1,0,0.1,0c0,0,0,0.1,0,0.2V176.2z"/>
				<path class="st0" d="M113.2,176.4c0,0.1,0,0.1,0,0.2c0,0-0.1,0-0.1,0h-1.5c-0.1,0-0.1,0-0.2-0.1c0,0,0-0.1,0-0.2v-2.8
					c0-0.2,0-0.4,0-0.6c0-0.1-0.1-0.2-0.1-0.3c-0.1-0.1-0.2-0.1-0.3-0.2s-0.3,0-0.5,0c-0.2,0-0.3,0-0.5,0c-0.1,0-0.3,0-0.4,0
					c-0.1,0-0.1,0-0.2,0.1c0,0,0,0.1,0,0.3v3.6c0,0.1-0.1,0.2-0.2,0.2h-1.5c-0.1,0-0.1,0-0.1-0.1c0,0,0-0.1,0-0.2v-5
					c0-0.1,0-0.1,0-0.1c0,0,0.1,0,0.1-0.1c0.4,0,0.8-0.1,1.3-0.1c0.5,0,1-0.1,1.5-0.1c0.3,0,0.6,0,0.9,0c0.2,0,0.5,0.1,0.6,0.1
					c0.2,0,0.3,0.1,0.4,0.2c0.1,0.1,0.2,0.1,0.3,0.2c0.1,0.1,0.1,0.2,0.2,0.3c0.1,0.1,0.1,0.2,0.1,0.3c0,0.1,0.1,0.3,0.1,0.5
					c0,0.2,0,0.4,0,0.7V176.4z"/>
				<path class="st0" d="M114.2,173.9c0-0.7,0.1-1.2,0.2-1.6c0.2-0.4,0.4-0.7,0.6-0.9c0.2-0.2,0.5-0.3,0.9-0.4
					c0.4-0.1,0.8-0.1,1.3-0.1c0.5,0,1,0,1.3,0.1c0.3,0.1,0.6,0.2,0.7,0.4c0.1,0.1,0.2,0.2,0.2,0.3c0.1,0.1,0.1,0.3,0.2,0.5
					c0.1,0.2,0.1,0.4,0.1,0.7c0,0.3,0.1,0.6,0.1,1c0,0.1,0,0.2,0,0.2c0,0-0.1,0.1-0.2,0.1h-3.2c-0.1,0-0.2,0-0.3,0
					c0,0-0.1,0.1-0.1,0.1c0,0.2,0.1,0.4,0.2,0.6c0.1,0.1,0.2,0.1,0.5,0.2c0.2,0,0.5,0.1,0.9,0.1c0.4,0,0.7,0,1,0
					c0.3,0,0.6,0,0.8-0.1c0.1,0,0.1,0,0.1,0c0,0,0.1,0.1,0.1,0.1c0,0.1,0,0.2-0.1,0.3c0,0.1-0.1,0.2-0.1,0.3
					c-0.1,0.1-0.1,0.2-0.2,0.3c-0.1,0.1-0.1,0.1-0.2,0.2c-0.1,0.1-0.3,0.2-0.7,0.2c-0.3,0.1-0.8,0.1-1.3,0.1c-0.6,0-1,0-1.4-0.1
					c-0.4-0.1-0.7-0.2-0.9-0.4c-0.2-0.2-0.4-0.5-0.5-0.8C114.3,174.9,114.2,174.5,114.2,173.9z M117.2,172.2c-0.3,0-0.6,0.1-0.7,0.2
					c-0.1,0.1-0.2,0.2-0.2,0.3c0,0.1-0.1,0.2-0.1,0.3c0,0.1,0,0.1,0,0.1c0,0,0.1,0,0.2,0h1.1c0.1,0,0.2,0,0.3,0c0.1,0,0.1,0,0.1,0
					c0,0,0.1-0.1,0.1-0.1c0-0.1,0-0.3-0.1-0.4c0-0.1-0.1-0.2-0.2-0.3c-0.1-0.1-0.1-0.1-0.3-0.1C117.5,172.2,117.3,172.2,117.2,172.2
					z"/>
				<path class="st0" d="M124,170.9c0.5,0,0.9,0,1.3,0c0.4,0,0.7,0.1,0.9,0.1c0.1,0,0.2,0.1,0.2,0.2c0,0.7-0.1,1.4-0.2,2
					c-0.1,0.6-0.3,0.9-0.6,1.2c-0.1,0.1-0.2,0.1-0.3,0.2c-0.1,0.1-0.3,0.1-0.4,0.1c-0.2,0-0.4,0.1-0.6,0.1c-0.2,0-0.5,0-0.9,0.1
					c-0.3,0-0.5,0-0.6,0c-0.1,0-0.2,0-0.2,0c0,0-0.1,0.1-0.1,0.2c0,0.1,0,0.2,0,0.3c0,0.1,0.1,0.2,0.2,0.1c0.1,0,0.3,0,0.6,0
					c0.3,0,0.6,0,0.9,0c0.6,0,1.1,0,1.4,0.1c0.3,0,0.5,0.1,0.6,0.2c0.1,0.1,0.2,0.2,0.3,0.4c0.1,0.2,0.1,0.5,0.1,0.8
					c0,0.4-0.1,0.8-0.2,1.1c-0.1,0.3-0.3,0.5-0.4,0.6c-0.2,0.2-0.5,0.3-0.9,0.4c-0.4,0.1-1,0.1-1.6,0.1c-0.6,0-1.1,0-1.4-0.1
					c-0.4-0.1-0.6-0.1-0.8-0.3c-0.1-0.1-0.2-0.3-0.3-0.5c-0.1-0.2-0.1-0.4-0.1-0.6c0-0.1,0-0.1,0.1-0.1c0,0,0.1,0,0.1,0
					c0.2,0,0.6,0.1,0.9,0.1c0.4,0,0.8,0,1.2,0c0.5,0,0.8,0,1.1,0c0.2,0,0.4-0.1,0.4-0.1c0.1-0.1,0.2-0.2,0.2-0.4
					c0-0.2,0-0.3-0.1-0.3c0,0,0,0-0.1,0c0,0-0.1,0-0.2,0c-0.1,0-0.2,0-0.4,0c-0.2,0-0.4,0-0.6,0c-0.4,0-0.8,0-1.2,0
					c-0.4,0-0.7,0-1,0c-0.1,0-0.2-0.1-0.2-0.2c0-0.2,0-0.3,0-0.5c0-0.2,0-0.4,0-0.5c0-0.2,0-0.3,0-0.5s0-0.2,0-0.3
					c0-0.2,0-0.5-0.1-0.8c0-0.3-0.1-0.6-0.1-1.1c0-0.8,0.2-1.3,0.5-1.6c0.1-0.1,0.2-0.1,0.3-0.2c0.1-0.1,0.3-0.1,0.5-0.2
					c0.2,0,0.5-0.1,0.8-0.1C123.3,170.9,123.6,170.9,124,170.9z M122.6,173c0,0.1,0,0.3,0,0.4s0,0.2,0.1,0.2c0,0,0.1,0,0.2,0
					s0.2,0,0.3,0c0.3,0,0.6,0,0.7-0.1c0.2,0,0.3-0.1,0.3-0.1c0.1-0.1,0.2-0.2,0.2-0.3c0.1-0.2,0.1-0.3,0.1-0.6c0-0.1,0-0.1,0-0.1
					c0,0-0.1-0.1-0.1-0.1c-0.1,0-0.2,0-0.3,0c-0.1,0-0.2,0-0.4,0c-0.5,0-0.8,0.1-0.9,0.2C122.7,172.5,122.6,172.7,122.6,173z"/>
				<path class="st0" d="M133.3,173.7c0,0.7-0.1,1.2-0.3,1.6c-0.2,0.4-0.4,0.7-0.6,0.9c-0.2,0.2-0.5,0.3-0.9,0.4
					c-0.4,0.1-0.8,0.1-1.4,0.1c-0.5,0-1-0.1-1.4-0.2c-0.4-0.1-0.7-0.3-0.9-0.5c-0.2-0.2-0.3-0.4-0.5-0.8c-0.1-0.3-0.2-0.8-0.2-1.4
					c0-0.6,0.1-1.1,0.2-1.5c0.2-0.4,0.4-0.7,0.6-0.9c0.2-0.2,0.5-0.3,0.9-0.4c0.4-0.1,0.8-0.1,1.4-0.1c0.6,0,1,0.1,1.4,0.2
					c0.4,0.1,0.6,0.3,0.8,0.4c0.2,0.2,0.4,0.5,0.5,0.8C133.3,172.6,133.3,173.1,133.3,173.7z M131.5,173.8c0-0.3,0-0.6-0.1-0.7
					c0-0.2-0.1-0.3-0.2-0.4c-0.1-0.1-0.2-0.1-0.3-0.2c-0.1,0-0.3-0.1-0.5-0.1c-0.5,0-0.8,0.1-0.9,0.2c-0.1,0.1-0.1,0.2-0.2,0.4
					c-0.1,0.2-0.1,0.5-0.1,0.8c0,0.3,0,0.5,0.1,0.7c0,0.2,0.1,0.4,0.2,0.5c0.1,0.1,0.2,0.1,0.4,0.2c0.2,0,0.3,0.1,0.5,0.1
					c0.4,0,0.7-0.1,0.9-0.2c0.1-0.1,0.2-0.2,0.3-0.4C131.5,174.4,131.5,174.1,131.5,173.8z"/>
				<path class="st0" d="M138.8,171.1c0.1,0.1,0.2,0.2,0.3,0.4c0.1,0.2,0.1,0.4,0.1,0.6c0,0.1,0,0.1-0.1,0.2c-0.1,0-0.1,0.1-0.2,0
					c-0.2,0-0.4,0-0.6-0.1c-0.2,0-0.5,0-0.7,0c-0.7,0-1.1,0.1-1.3,0.3c-0.1,0.1-0.2,0.2-0.2,0.4c-0.1,0.2-0.1,0.4-0.1,0.7
					c0,0.3,0,0.6,0.1,0.8c0.1,0.2,0.1,0.3,0.2,0.4c0.1,0.1,0.3,0.2,0.5,0.2c0.2,0,0.4,0.1,0.7,0.1c0.4,0,0.7,0,0.9,0
					c0.2,0,0.4,0,0.6-0.1c0.1,0,0.1,0,0.1,0c0,0,0.1,0.1,0.1,0.2c0,0.1,0,0.2,0,0.3c0,0.1-0.1,0.2-0.1,0.3c-0.1,0.1-0.1,0.2-0.2,0.3
					c-0.1,0.1-0.1,0.2-0.2,0.2c-0.1,0.1-0.3,0.2-0.6,0.2c-0.3,0.1-0.6,0.1-1.1,0.1c-0.3,0-0.5,0-0.8,0c-0.2,0-0.4-0.1-0.6-0.1
					c-0.2,0-0.3-0.1-0.4-0.2c-0.1-0.1-0.2-0.1-0.3-0.2c-0.2-0.2-0.4-0.5-0.5-0.8c-0.1-0.4-0.2-0.9-0.2-1.5c0-0.6,0.1-1.1,0.2-1.5
					c0.2-0.4,0.4-0.7,0.6-0.9c0.2-0.2,0.5-0.3,0.9-0.4c0.4-0.1,0.8-0.1,1.3-0.1c0.4,0,0.8,0,1,0.1C138.5,171,138.7,171,138.8,171.1z
					"/>
				<path class="st0" d="M142.2,169.4c0,0.2,0,0.3-0.1,0.5c0,0.1-0.1,0.2-0.2,0.3c-0.1,0-0.1,0.1-0.2,0.1c-0.1,0-0.2,0-0.2,0
					c-0.1,0-0.2,0-0.2,0c-0.1,0-0.1,0-0.2,0c-0.4,0-0.7-0.1-0.8-0.2c-0.1-0.1-0.2-0.3-0.2-0.7c0-0.2,0-0.3,0.1-0.5
					c0-0.1,0.1-0.2,0.2-0.3c0.1,0,0.2-0.1,0.3-0.1s0.3,0,0.5,0c0.2,0,0.4,0,0.5,0c0.1,0,0.2,0.1,0.3,0.1
					C142.1,168.8,142.2,169.1,142.2,169.4z M142,176.4c0,0.1-0.1,0.2-0.2,0.2h-1.5c-0.1,0-0.1,0-0.1-0.1c0,0,0-0.1,0-0.2v-5.2
					c0-0.1,0.1-0.2,0.2-0.2h1.5c0.1,0,0.1,0,0.1,0c0,0,0,0.1,0,0.2V176.4z"/>
				<path class="st0" d="M149.2,173.7c0,0.7-0.1,1.2-0.3,1.6c-0.2,0.4-0.4,0.7-0.6,0.9c-0.2,0.2-0.5,0.3-0.9,0.4
					c-0.4,0.1-0.8,0.1-1.4,0.1c-0.5,0-1-0.1-1.4-0.2c-0.4-0.1-0.7-0.3-0.9-0.5c-0.2-0.2-0.3-0.4-0.5-0.8c-0.1-0.3-0.2-0.8-0.2-1.4
					c0-0.6,0.1-1.1,0.2-1.5c0.2-0.4,0.4-0.7,0.6-0.9c0.2-0.2,0.5-0.3,0.9-0.4c0.4-0.1,0.8-0.1,1.4-0.1c0.6,0,1,0.1,1.4,0.2
					c0.4,0.1,0.6,0.3,0.8,0.4c0.2,0.2,0.4,0.5,0.5,0.8C149.1,172.6,149.2,173.1,149.2,173.7z M147.3,173.8c0-0.3,0-0.6-0.1-0.7
					c0-0.2-0.1-0.3-0.2-0.4c-0.1-0.1-0.2-0.1-0.3-0.2c-0.1,0-0.3-0.1-0.5-0.1c-0.5,0-0.8,0.1-0.9,0.2c-0.1,0.1-0.1,0.2-0.2,0.4
					c-0.1,0.2-0.1,0.5-0.1,0.8c0,0.3,0,0.5,0.1,0.7c0,0.2,0.1,0.4,0.2,0.5c0.1,0.1,0.2,0.1,0.4,0.2c0.2,0,0.3,0.1,0.5,0.1
					c0.4,0,0.7-0.1,0.9-0.2c0.1-0.1,0.2-0.2,0.3-0.4C147.3,174.4,147.3,174.1,147.3,173.8z"/>
			</g>
			<g>
				<path class="st0" d="M37,101V68.3c0-0.9,0.7-1.5,1.5-1.5h19.6c0.9,0,1.5,0.7,1.5,1.5v3.4c0,0.9-0.7,1.5-1.5,1.5H42.9V83h14.3
					c0.9,0,1.5,0.7,1.5,1.5v3.2c0,0.9-0.7,1.5-1.5,1.5H42.9V101c0,0.9-0.7,1.5-1.5,1.5h-2.8C37.7,102.6,37,101.9,37,101z"/>
				<path class="st0" d="M64.2,101V68.2c0-0.9,0.7-1.5,1.5-1.5h2.8c0.9,0,1.5,0.7,1.5,1.5V101c0,0.9-0.7,1.5-1.5,1.5h-2.8
					C64.9,102.6,64.2,101.9,64.2,101z"/>
				<path class="st0" d="M98,66.6h2.8c0.9,0,1.5,0.7,1.5,1.5V101c0,0.9-0.7,1.5-1.5,1.5h-1.6c-0.7,0-1.2-0.9-1.2-0.9L82.1,78.4V101
					c0,0.9-0.7,1.5-1.5,1.5h-2.8c-0.9,0-1.5-0.7-1.5-1.5V68.2c0-0.9,0.7-1.5,1.5-1.5h2.5c0.5,0,1,0.2,1.3,0.7l15,21.6V68.2
					C96.4,67.3,97.1,66.6,98,66.6z"/>
				<path class="st0" d="M129.8,102.6h-20.5c-0.9,0-1.5-0.7-1.5-1.5V68.2c0-0.9,0.7-1.5,1.5-1.5h20.5c0.9,0,1.5,0.7,1.5,1.5v3.5
					c0,0.9-0.7,1.5-1.5,1.5h-16.2v8.3h15.5c0.9,0,1.5,0.7,1.5,1.5v3.2c0,0.9-0.7,1.5-1.5,1.5h-15.5v8.1h16.2c0.9,0,1.5,0.7,1.5,1.5
					v3.6C131.3,101.9,130.6,102.6,129.8,102.6z"/>
			</g>
		</g>
	</g>
</g>
<g id="Layer_2">
</g>
<g id="Layer_3">
</g>
<g id="Layer_4">
</g>
</svg>
