<svg id="Capa_1" enable-background="new 0 0 511.999 511.999" height="512" viewBox="0 0 511.999 511.999" width="512" xmlns="http://www.w3.org/2000/svg"><g><path d="m178.453 425.253h-20.894v-100.37h20.894c13.495 0 24.435 10.94 24.435 24.435v51.5c0 13.495-10.94 24.435-24.435 24.435z" fill="#da4a54"/><path d="m202.888 377.062v23.756c0 13.485-10.941 24.426-24.426 24.426h-20.902v-23.746h20.902c13.485 0 24.426-10.941 24.426-24.436z" fill="#d82e3d"/><path d="m228.792 88.194h-57.124c-18.894 0-34.274 15.381-34.274 34.274v267.641c0 16.802-13.619 30.432-30.421 30.432-16.813 0-30.432-13.629-30.432-30.432v-267.641c0-52.457 42.68-95.127 95.127-95.127h57.124c16.803 0 16.803 60.853 0 60.853z" fill="#f9f6f9"/><path d="m100.836 122.469v267.641c0 12.475 7.521 23.209 18.28 27.907-3.712 1.619-7.826 2.519-12.146 2.519-16.795 0-30.426-13.631-30.426-30.426v-267.641c0-52.455 42.682-95.137 95.137-95.137h24.28c-52.456.001-95.125 42.683-95.125 95.137z" fill="#e2dfe2"/><path d="m170.105 274.576c-42.091-8.472-84.182-8.472-126.272 0-3.997 66.487-4.543 132.975-1.64 199.462.837 19.159 15.706 34.704 34.796 36.528 19.987 1.91 39.973 1.91 59.96 0 19.09-1.825 33.959-17.37 34.796-36.528 2.904-66.487 2.357-132.974-1.64-199.462z" fill="#665e66"/><path d="m86.469 511.328c-3.164-.207-6.316-.462-9.481-.767-19.096-1.826-33.968-17.367-34.795-36.524-2.909-66.487-2.361-132.975 1.631-199.462 12.803-2.58 25.595-4.381 38.398-5.392-1.46 71.039-1.619 142.078-.523 213.118.182 11.441 1.971 21.713 4.77 29.027z" fill="#544f57"/><path d="m162.881 216.418h-111.824c-16.06 0-29.079 13.019-29.079 29.079 0 16.06 13.019 29.079 29.079 29.079h111.824c16.06 0 29.079-13.019 29.079-29.079 0-16.06-13.019-29.079-29.079-29.079z" fill="#c3bec6"/><path d="m77.853 266.065c5.258 5.27 12.536 8.519 20.568 8.519h-47.355c-8.033 0-15.298-3.25-20.568-8.519-5.27-5.27-8.519-12.536-8.519-20.568 0-16.053 13.022-29.075 29.088-29.075h47.355c-16.065 0-29.088 13.022-29.088 29.075 0 8.033 3.261 15.298 8.519 20.568z" fill="#b4acb7"/><path d="m228.792 88.194h-24.261c-3.173-8.478-5.542-18.77-5.542-30.617 0-11.662 2.297-21.83 5.398-30.236h24.405c16.803 0 16.803 60.853 0 60.853z" fill="#e2dfe2"/><path d="m338.873 74.56c-60.403 30.202-101.734 40.583-101.734 40.583s-21.707-21.707-21.707-57.572 21.707-57.571 21.707-57.571 41.331 10.382 101.734 40.583z" fill="#c3bec6"/><path d="m338.872 64.551v10.004c-60.402 30.207-101.733 40.589-101.733 40.589s-12.645-12.645-18.633-34.576c20.775-1.607 73.242-6.329 120.366-16.017z" fill="#b4acb7"/><path d="m283.377 49.268c-.382 0-.77-.028-1.159-.087-16.119-2.425-28.593-4.008-36.219-4.908-4.238-.501-7.268-4.342-6.767-8.579s4.344-7.27 8.579-6.767c7.738.914 20.387 2.519 36.706 4.974 4.22.635 7.126 4.57 6.491 8.79-.577 3.829-3.872 6.577-7.631 6.577z" fill="#da4a54"/><path d="m246.895 86.278c-3.857 0-7.193-2.884-7.662-6.809-.507-4.237 2.517-8.082 6.754-8.59 11.69-1.398 23.878-3.054 36.225-4.921 4.218-.637 8.157 2.265 8.794 6.484.638 4.219-2.265 8.157-6.484 8.795-12.504 1.891-24.852 3.568-36.7 4.985-.311.038-.621.056-.927.056z" fill="#da4a54"/><path d="m490.021 56.158c-15.787-27.853-45.679-46.661-79.981-46.661-.953 0-1.902.015-2.848.043-59.416 1.81-59.416 91.425 0 93.235.946.029 1.895.043 2.848.043 34.302.001 64.194-18.807 79.981-46.66z" fill="#e27d47"/><path d="m436.83 56.158c-8.557-15.097-24.759-25.291-43.352-25.291-.516 0-1.031.008-1.544.023-32.205.981-32.205 49.555 0 50.536.513.016 1.027.023 1.544.023 18.593.001 34.795-10.194 43.352-25.291z" fill="#ffef4a"/></g></svg>