<svg id="Capa_1" enable-background="new 0 0 512 512" height="512" viewBox="0 0 512 512" width="512" xmlns="http://www.w3.org/2000/svg"><g><path d="m197.916 1.059c76.175-2.772 152.339-.1 228.503 8.005 21.187 2.249 37.776 19.216 39.468 40.448 10.978 137.654 10.978 275.308 0 412.972-1.692 21.231-18.281 38.199-39.468 40.448-113.606 12.091-227.222 12.091-340.839 0-21.176-2.249-37.776-19.216-39.468-40.448-8.194-102.817-10.276-205.623-6.224-308.43" fill="#f9f6f9"/><path d="m39.888 154.055c37.442-1.347 74.883-4.019 112.336-8.005 21.176-2.249 37.776-19.216 39.468-40.448 2.783-34.848 4.854-69.695 6.224-104.543-37.441 1.347-156.658 118.148-158.028 152.996z" fill="#e2dfe2"/><path d="m417.727 294.652-45.864-79.427c-7.541-13.063-21.479-21.108-36.551-21.108h-91.717c-15.082 0-29.02 8.046-36.561 21.108l-45.853 79.427c-7.541 13.063-7.541 29.154 0 42.217l45.853 79.427c7.541 13.063 21.479 21.108 36.561 21.108h91.717c15.072 0 29.01-8.046 36.551-21.108l45.864-79.427c7.541-13.062 7.541-29.154 0-42.217zm-128.278 82.25c-33.769 0-61.141-27.372-61.141-61.141s27.372-61.152 61.141-61.152 61.152 27.382 61.152 61.152-27.383 61.141-61.152 61.141z" fill="#c3bec6"/><path d="m289.45 384.633c-37.977 0-68.873-30.896-68.873-68.873s30.896-68.874 68.873-68.874 68.874 30.897 68.874 68.874-30.897 68.873-68.874 68.873zm0-122.294c-29.456 0-53.421 23.965-53.421 53.421s23.964 53.421 53.421 53.421 53.421-23.964 53.421-53.421-23.965-53.421-53.421-53.421z" fill="#b4acb7"/><g><path d="m402.542 91.605h-67.194c-4.267 0-7.726-3.459-7.726-7.726s3.459-7.726 7.726-7.726h67.194c4.267 0 7.726 3.459 7.726 7.726s-3.459 7.726-7.726 7.726z" fill="#c3bec6"/><path d="m310.682 91.605h-17.406c-4.267 0-7.726-3.459-7.726-7.726s3.459-7.726 7.726-7.726h17.406c4.267 0 7.726 3.459 7.726 7.726s-3.459 7.726-7.726 7.726z" fill="#665e66"/></g><g><path d="m402.542 123.889h-67.194c-4.267 0-7.726-3.459-7.726-7.726s3.459-7.726 7.726-7.726h67.194c4.267 0 7.726 3.459 7.726 7.726s-3.459 7.726-7.726 7.726z" fill="#c3bec6"/><path d="m310.682 123.889h-17.406c-4.267 0-7.726-3.459-7.726-7.726s3.459-7.726 7.726-7.726h17.406c4.267 0 7.726 3.459 7.726 7.726s-3.459 7.726-7.726 7.726z" fill="#665e66"/></g><g><path d="m402.542 156.172h-67.194c-4.267 0-7.726-3.459-7.726-7.726s3.459-7.726 7.726-7.726h67.194c4.267 0 7.726 3.459 7.726 7.726s-3.459 7.726-7.726 7.726z" fill="#c3bec6"/><path d="m310.682 156.172h-17.406c-4.267 0-7.726-3.459-7.726-7.726s3.459-7.726 7.726-7.726h17.406c4.267 0 7.726 3.459 7.726 7.726s-3.459 7.726-7.726 7.726z" fill="#b4acb7"/></g><path d="m189.099 475.072h-71.439c-4.267 0-7.726-3.459-7.726-7.726s3.459-7.726 7.726-7.726h68.239l18.321-18.321c3.017-3.017 7.909-3.017 10.927 0s3.018 7.909 0 10.927l-20.584 20.584c-1.45 1.449-3.415 2.262-5.464 2.262z" fill="#e2dfe2"/><path d="m173.358 448.434h-55.698c-4.267 0-7.726-3.459-7.726-7.726s3.459-7.726 7.726-7.726h55.698c4.267 0 7.726 3.459 7.726 7.726s-3.459 7.726-7.726 7.726z" fill="#665e66"/><path d="m176.99 236.538c-1.977 0-3.955-.755-5.463-2.263l-14.689-14.689h-54.293c-4.267 0-7.726-3.459-7.726-7.726s3.459-7.726 7.726-7.726h57.493c2.049 0 4.015.814 5.463 2.263l16.952 16.952c3.018 3.017 3.018 7.909 0 10.927-1.508 1.508-3.486 2.262-5.463 2.262z" fill="#e2dfe2"/><path d="m153.984 194.159h-51.439c-4.267 0-7.726-3.459-7.726-7.726s3.459-7.726 7.726-7.726h51.439c4.267 0 7.726 3.459 7.726 7.726.001 4.267-3.458 7.726-7.726 7.726z" fill="#665e66"/><path d="m402.542 59.198h-164.079c-4.267 0-7.726-3.459-7.726-7.726s3.459-7.726 7.726-7.726h164.078c4.267 0 7.726 3.459 7.726 7.726s-3.458 7.726-7.725 7.726z" fill="#b4acb7"/></g></svg>