<svg id="Capa_1" enable-background="new 0 0 512 512" height="512" viewBox="0 0 512 512" width="512" xmlns="http://www.w3.org/2000/svg"><g><path d="m231.455 290.205v38.086c0 8.648 7.011 15.659 15.659 15.659h17.773c8.648 0 15.659-7.011 15.659-15.659v-38.086" fill="#da4a54"/><path d="m261.577 343.95h-14.464c-8.643 0-15.659-7.005-15.659-15.659v-38.086h14.464v38.086c0 8.654 7.006 15.659 15.659 15.659z" fill="#d82e3d"/><path d="m337.871 248.891s-12.084 33.794-38.538 55.518c-5.286 4.34-11.948 6.654-18.788 6.654h-49.091c-6.839 0-13.502-2.314-18.788-6.654-26.454-21.723-38.538-55.518-38.538-55.518" fill="#c3bec6"/><path d="m342.185 165.375c-.34 19.728-1.164 39.456-2.472 59.194-.525 8.108-1.143 16.215-1.844 24.323-54.579 7.665-109.158 7.665-163.737 0-.701-8.108-1.319-16.215-1.844-24.323-1.308-19.738-2.133-39.466-2.472-59.194-.732-41.877.711-83.743 4.316-125.61 54.579-7.675 109.158-7.675 163.737 0 3.605 41.867 5.047 83.733 4.316 125.61z" fill="#665e66"/><path d="m231.066 311.053c-6.706-.082-13.217-2.39-18.399-6.645-26.455-21.727-38.539-55.516-38.539-55.516h38.858c.001 0 5.687 39.518 18.08 62.161z" fill="#b4acb7"/><path d="m213.668 253.094c-13.186-.948-26.362-2.349-39.538-4.203-6.006-69.712-6.006-139.425 0-209.127 12.867-1.803 25.724-3.194 38.591-4.141-2.885 68.229-2.792 145.606.268 213.268-.001 0 .225 1.545.679 4.203z" fill="#544f57"/><path d="m328.607 447.645c0 7.675 6.408 16.586 8.839 24.508l-81.633 7.541-81.259-7.541c2.431-7.922 8.839-16.833 8.839-24.508 0-10.91-12.949-24.333-9.014-33.821 4.079-9.828 22.87-10.116 30.277-17.523 7.417-7.417 7.696-26.208 17.534-30.287 9.488-3.935 22.901 9.024 33.811 9.024s24.323-12.96 33.811-9.024c9.838 4.079 10.116 22.87 17.534 30.287 7.407 7.407 26.208 7.695 30.277 17.523 3.934 9.488-9.016 22.911-9.016 33.821z" fill="#ffef4a"/><path d="m439.29 48.985c-2.431 24.58-22.88 43.443-47.574 44.215-90.481 2.812-180.951 2.812-271.432 0-24.693-.772-45.143-19.635-47.574-44.215-1.381-13.928-1.381-27.866 0-41.795.247-2.462.67-4.862 1.257-7.19h364.066c.587 2.328 1.01 4.728 1.257 7.191 1.38 13.928 1.38 27.866 0 41.794z" fill="#9dc6fb"/><path d="m165.334 94.365c-15.02-.309-30.03-.701-45.05-1.164-24.693-.773-45.143-19.636-47.574-44.216-1.381-13.928-1.381-27.866 0-41.795.247-2.462.67-4.862 1.257-7.19h63.882c-.629 2.493-1.082 5.068-1.35 7.716-1.473 14.938-1.473 29.896 0 44.834 1.834 18.46 13.135 33.923 28.835 41.815z" fill="#80b4fb"/><path d="m342.185 165.375c-.34 19.728-1.164 39.456-2.472 59.194-.628.062-1.267.103-1.906.113-54.538 1.288-109.075 1.288-163.603 0-.649-.01-1.288-.051-1.916-.113-1.308-19.738-2.133-39.466-2.472-59.194 1.432-.247 2.895-.392 4.388-.422 54.528-1.288 109.065-1.288 163.603 0 1.483.03 2.946.175 4.378.422z" fill="#544f57"/><path d="m144.852 184.602c-.001-.195-.001-.39 0-.585.064-16.133 13.219-29.189 29.348-29.571 54.534-1.292 109.069-1.292 163.603 0 16.128.382 29.284 13.438 29.348 29.571.001.195.001.39 0 .585-.064 16.133-13.219 29.189-29.348 29.571-54.534 1.292-109.069 1.292-163.603 0-16.129-.382-29.284-13.439-29.348-29.571z" fill="#c3bec6"/><path d="m210.278 214.838c-12.032-.155-24.055-.381-36.077-.659-16.133-.381-29.288-13.444-29.35-29.576v-.577c.062-16.133 13.217-29.195 29.35-29.577 12.022-.278 24.045-.505 36.077-.659-12.496 4.471-21.521 16.287-21.572 30.205v.639c.052 13.917 9.076 25.733 21.572 30.204z" fill="#b4acb7"/><path d="m256.001 396.294c-4.267 0-7.726-3.459-7.726-7.726v-25.351c0-4.267 3.459-7.726 7.726-7.726 4.268 0 7.726 3.459 7.726 7.726v25.351c0 4.267-3.458 7.726-7.726 7.726z" fill="#da4a54"/><path d="m256.001 447.681c-4.267 0-7.726-3.459-7.726-7.726v-25.351c0-4.267 3.459-7.726 7.726-7.726 4.268 0 7.726 3.459 7.726 7.726v25.351c0 4.267-3.458 7.726-7.726 7.726z" fill="#da4a54"/><path d="m400.565 461.652v26.328c0 13.266-10.754 24.021-24.021 24.021h-241.09c-13.266 0-24.021-10.754-24.021-24.021v-26.328c0-13.266 10.754-24.021 24.021-24.021h83.366l37.18 37.179 37.179-37.179h83.366c13.266 0 24.02 10.755 24.02 24.021z" fill="#c3bec6"/><path d="m175.842 511.997h-40.393c-13.269 0-24.013-10.755-24.013-24.024v-26.321c0-13.269 10.745-24.024 24.013-24.024h40.393c-13.269 0-24.024 10.755-24.024 24.024v26.321c0 13.269 10.755 24.024 24.024 24.024z" fill="#b4acb7"/><g fill="#f9f48e"><path d="m114.302 218.759-1.28 2.217c-4.514 7.819-14.312 10.807-22.421 6.839l-24.944-12.207c-8.935-4.372-12.297-15.397-7.324-24.012l3.18-5.509c4.974-8.614 16.203-11.215 24.457-5.663l23.043 15.499c7.493 5.038 9.804 15.017 5.289 22.836z"/><path d="m397.698 385.333 1.28-2.217c4.514-7.819 14.312-10.807 22.421-6.839l24.944 12.207c8.935 4.372 12.297 15.397 7.324 24.012l-3.18 5.509c-4.974 8.614-16.203 11.215-24.457 5.663l-23.043-15.499c-7.493-5.038-9.804-15.017-5.289-22.836z"/><path d="m91.643 300.766v2.56c0 9.028-6.991 16.515-15.998 17.133l-27.706 1.9c-9.924.681-18.348-7.186-18.348-17.133v-6.361c0-9.947 8.425-17.814 18.348-17.133l27.706 1.9c9.007.619 15.998 8.106 15.998 17.134z"/><path d="m420.357 303.326v-2.56c0-9.028 6.991-16.515 15.998-17.133l27.706-1.9c9.924-.681 18.348 7.186 18.348 17.133v6.361c0 9.947-8.425 17.814-18.348 17.133l-27.706-1.9c-9.007-.619-15.998-8.106-15.998-17.134z"/><path d="m113.023 383.116 1.28 2.217c4.514 7.819 2.203 17.798-5.288 22.836l-23.043 15.499c-8.254 5.551-19.483 2.951-24.457-5.663l-3.18-5.509c-4.974-8.614-1.611-19.639 7.324-24.012l24.944-12.207c8.108-3.968 17.905-.979 22.42 6.839z"/><path d="m398.977 220.976-1.28-2.217c-4.514-7.819-2.203-17.798 5.288-22.836l23.043-15.499c8.254-5.551 19.483-2.951 24.457 5.663l3.18 5.509c4.974 8.614 1.611 19.639-7.324 24.012l-24.944 12.207c-8.108 3.968-17.905.98-22.42-6.839z"/></g><g><g><path d="m328.509 66.349c-4.798.176-9.597.176-14.395 0-8.366-.307-15.133-7.073-15.44-15.44-.176-4.798-.176-9.597 0-14.395.307-8.366 7.073-15.133 15.44-15.44 4.699-.172 9.398-.176 14.096-.011 8.595.302 15.447 7.155 15.749 15.749.165 4.699.162 9.398-.011 14.096-.306 8.368-7.073 15.134-15.439 15.441z" fill="#ffef4a"/><path d="m394.813 66.349c-4.798.176-9.597.176-14.395 0-8.366-.307-15.133-7.073-15.44-15.44-.176-4.798-.176-9.597 0-14.395.307-8.366 7.073-15.133 15.44-15.44 4.699-.172 9.398-.176 14.096-.011 8.595.302 15.447 7.155 15.749 15.749.165 4.699.162 9.398-.011 14.096-.306 8.368-7.073 15.134-15.439 15.441z" fill="#78d0b1"/></g><g><path d="m327.644 66.352c.144 0 .288.01.433.01-4.656.165-9.313.155-13.959-.01-8.365-.309-15.133-7.077-15.442-15.442-.175-4.801-.175-9.601 0-14.402.309-8.365 7.077-15.133 15.442-15.432 4.656-.175 9.323-.175 13.98-.01-.155 0-.299 0-.453.01-8.365.299-15.133 7.067-15.432 15.432-.185 4.801-.185 9.601 0 14.402.298 8.364 7.066 15.133 15.431 15.442z" fill="#ffd321"/><path d="m393.947 66.352c.144 0 .288.01.433.01-4.656.165-9.303.155-13.959-.01-8.365-.309-15.133-7.077-15.442-15.442-.175-4.801-.175-9.601 0-14.402.309-8.365 7.077-15.133 15.442-15.432 4.656-.175 9.323-.175 13.98-.01-.155 0-.299 0-.453.01-8.365.299-15.133 7.067-15.432 15.432-.175 4.801-.175 9.601 0 14.402.297 8.364 7.065 15.133 15.431 15.442z" fill="#66b49d"/></g></g></g></svg>