<svg id="Capa_1" enable-background="new 0 0 512 512" height="512" viewBox="0 0 512 512" width="512" xmlns="http://www.w3.org/2000/svg"><g><g><path d="m419.999 483.682c0-13.612-8.344-33.36-13.499-44.263-2.548-5.39-7.01-9.639-12.524-11.905-34.018-13.983-92.961-21.768-139.442-21.768h-41.843c-46.48 0-105.423 7.785-139.441 21.768-5.514 2.267-9.976 6.516-12.524 11.905-5.155 10.903-13.499 30.651-13.499 44.263z" fill="#c3bec6"/><path d="m220.39 405.749c-29.391 0-66.673 7.788-88.183 21.768-3.482 2.266-6.305 6.521-7.922 11.909-3.255 10.899-8.53 30.648-8.53 44.257h-68.529c0-13.609 8.344-33.357 13.506-44.257 2.545-5.388 7.005-9.642 12.527-11.909 34.017-13.979 92.953-21.768 139.435-21.768z" fill="#b4acb7"/></g><path d="m119.535 322.224h228.157v92.362h-228.157z" fill="#f9f6f9"/><path d="m119.535 322.224h41.955v92.362h-41.955z" fill="#e2dfe2"/><path d="m119.535 322.224h228.157v66.803h-228.157z" fill="#e2dfe2"/><path d="m512 187.997v24.645c0 9.087-7.366 16.453-16.453 16.453h-72.719v-57.552h72.719c9.087.001 16.453 7.367 16.453 16.454z" fill="#f9f6f9"/><path d="m511.998 195.399v17.245c0 9.086-7.366 16.452-16.452 16.452h-72.719v-17.245h72.719c9.087 0 16.452-7.366 16.452-16.452z" fill="#e2dfe2"/><path d="m429.554 130.855c-16.622-2.432-33.244-1.663-49.866 2.308-2.268 44.771-2.268 89.542 0 134.313 16.622 3.971 33.244 4.74 49.866 2.308 6.959-1.018 12.223-6.834 12.518-13.861 1.555-37.069 1.555-74.138 0-111.206-.295-7.027-5.56-12.843-12.518-13.862z" fill="#665e66"/><path d="m435.055 237.365c2.915-.392 5.573-1.463 7.747-3.019-.185 7.191-.433 14.381-.731 21.572-.288 7.026-5.553 12.846-12.517 13.866-16.627 2.431-33.243 1.658-49.87-2.318-1.411-27.959-1.947-55.917-1.597-83.876.227 17.152.814 34.315 1.782 51.467 18.399 3.977 36.797 4.739 55.186 2.308z" fill="#544f57"/><path d="m382.652 80.277c-28.725-4.203-57.45-2.873-86.174 3.988-3.919 77.37-3.919 154.74 0 232.109 28.725 6.862 57.45 8.191 86.175 3.988 12.026-1.76 21.123-11.811 21.632-23.954 2.687-64.059 2.687-128.119 0-192.179-.51-12.141-9.607-22.193-21.633-23.952z" fill="#f9f6f9"/><path d="m405.419 263.992c-.299 10.806-.68 21.613-1.133 32.419-.505 12.146-9.601 22.19-21.633 23.951-28.721 4.203-57.452 2.874-86.173-3.987-.752-14.804-1.36-29.617-1.823-44.421 30.472 6.16 60.955 7.232 91.427 3.194 8.147-1.081 15.07-5.274 19.335-11.156z" fill="#e2dfe2"/><path d="m328.723 34.252c1.823.144 3.647.299 5.47.453 15.803 1.37 28.422 13.784 29.978 29.566 8.973 90.696 8.973 181.402 0 272.098-1.556 15.782-14.175 28.196-29.978 29.566-1.823.155-3.647.309-5.47.464-3.461-8.973-12.166-15.35-22.375-15.35h-106.88c-6.614 0-12.609 2.689-16.957 7.026-3.739 3.74-6.253 8.705-6.871 14.247-9.697-.055-19.394-.192-29.092-.41-6.734-.151-13.468-39.871-20.202-40.099-68.434-2.349-92.9-17.86-95.146-86.284-.999-30.143-.999-60.275 0-90.418 2.246-68.424 26.712-99.118 95.146-101.467 6.734-.228 13.468-24.765 20.202-24.916 9.697-.218 19.394-.355 29.092-.41 1.339 11.971 11.507 21.273 23.828 21.273h106.88c10.199 0 18.914-6.366 22.375-15.339z" fill="#c3bec6"/><path d="m367.633 295.038c-.948 13.773-2.102 27.557-3.461 41.33-1.556 15.782-14.175 28.196-29.978 29.566-1.823.155-3.647.309-5.47.464-3.461-8.973-12.166-15.35-22.375-15.35h-106.88c-6.614 0-12.609 2.689-16.957 7.026-3.739 3.74-6.253 8.705-6.871 14.247-9.704-.052-19.398-.196-29.092-.412-6.737-.144-13.475-39.867-20.202-40.094-52.786-1.813-79.415-11.455-89.851-47.182 23.807 14.196 55.804 23.199 89.851 23.941 6.706.144 13.423.268 20.129.361.021 0 .041.01.072.01 9.695.134 199.43 10.251 221.085-13.907z" fill="#b4acb7"/><path d="m146.549 28.72v343.179c-6.727-.144-13.464-.34-20.202-.567-68.434-2.348-123.352-57.39-125.598-125.814-.999-30.143-.999-60.275 0-90.418 2.246-68.423 57.164-123.465 125.598-125.813 6.737-.227 13.475-.423 20.202-.567z" fill="#da4a54"/><path d="m.914 248.982c16.359 33.573 67.939 58.359 125.433 59.605 6.706.144 13.423.268 20.129.361.021 0 .041.01.072.01v62.953c-6.727-.144-13.464-.34-20.202-.566-67.279-2.307-121.496-55.546-125.432-122.363z" fill="#d82e3d"/><path d="m337.209 200.321c0 13.244-10.736 23.98-23.98 23.98h-106.883c-13.244 0-23.98-10.736-23.98-23.98 0-13.244 10.736-23.98 23.98-23.98h106.883c13.243 0 23.98 10.736 23.98 23.98z" fill="#b4acb7"/><g fill="#b4acb7"><path d="m337.209 105.086c0 13.244-10.736 23.98-23.98 23.98h-106.883c-13.244 0-23.98-10.736-23.98-23.98 0-13.244 10.736-23.98 23.98-23.98h106.883c13.243 0 23.98 10.736 23.98 23.98z"/><path d="m337.209 295.556c0 13.244-10.736 23.98-23.98 23.98h-106.883c-13.244 0-23.98-10.736-23.98-23.98 0-13.244 10.736-23.98 23.98-23.98h106.883c13.243 0 23.98 10.736 23.98 23.98z"/></g><path d="m61.7 129.089v78.408h-8.254c-10.022 0-16.285 10.849-11.274 19.528l26.457 45.819c5.011 8.678 17.536 8.678 22.547 0l26.46-45.819c5.012-8.679-1.252-19.528-11.273-19.528h-8.258v-78.408c0-4.524-3.668-8.192-8.192-8.192h-20.021c-4.524 0-8.192 3.667-8.192 8.192z" fill="#f9f6f9"/></g></svg>