<svg id="Capa_1" enable-background="new 0 0 511.998 511.998" height="512" viewBox="0 0 511.998 511.998" width="512" xmlns="http://www.w3.org/2000/svg"><g><g><path d="m204.22 450.854c-16.89 17.036-34.167 33.699-51.831 49.975-15.742 14.515-39.94 14.96-56.078.884-10.202-8.902-19.762-18.461-28.664-28.664-14.076-16.137-13.63-40.335.884-56.078 16.276-17.664 32.939-34.941 49.975-51.831 8.149-8.09 16.393-16.1 24.717-24.015 26.317-25.002 65.512-27.041 88.417-4.224l.819.819c22.817 22.905 20.778 62.099-4.224 88.417-7.915 8.324-15.925 16.568-24.015 24.717z" fill="#da4a54"/><path d="m204.22 450.854c-32.23-24.907-60.806-53.483-85.713-85.713 8.149-8.09 16.393-16.1 24.717-24.015 26.317-25.002 65.512-27.041 88.417-4.224l.819.819c22.817 22.905 20.778 62.099-4.224 88.417-7.916 8.323-15.926 16.567-24.016 24.716z" fill="#d82e3d"/><path d="m165.514 355.961c-28.678 27.962-56.896 56.384-84.639 85.282-8.259 8.595-14.2 17.971-17.211 26.434-9.837-15.786-8.105-36.622 4.867-50.706 24.074-26.105 48.974-51.385 74.699-75.839 20.127-19.133 47.782-24.819 69.934-16.217-14.484 4.633-31.717 15.508-47.65 31.046z" fill="#d82e3d"/><path d="m413.193 448.883c.168-.167.335-.334.502-.502 13.883-13.959 13.957-36.515.444-50.832-33.095-35.063-67.441-68.876-103.036-101.438-21.274 12.179-38 28.905-50.179 50.179 32.562 35.596 66.375 69.941 101.438 103.036 14.316 13.514 36.872 13.44 50.831-.443z" fill="#da4a54"/><path d="m406.503 454.121c-13.74 8.375-31.938 6.724-44.143-4.794-35.066-33.092-68.882-67.435-101.441-103.034 3.866-6.746 8.193-13.046 12.98-18.885 35.848 36.871 72.112 73.311 108.829 109.326 8.267 8.106 16.832 14.23 23.775 17.387z" fill="#d82e3d"/><path d="m354.444 313.566c-16.122 6.402-33.699 9.917-52.102 9.917-18.344 0-35.87-3.493-51.948-9.852-52.357-20.698-89.396-71.768-89.389-131.486 0-7.469.577-14.814 1.71-21.969 10.546-67.623 69.035-119.36 139.627-119.367 70.585 0 129.081 51.743 139.627 119.368 1.133 7.155 1.71 14.5 1.71 21.969-.007 59.659-36.966 110.679-89.235 131.42z" fill="#c3bec6"/><path d="m354.444 313.566c-16.349 5.562-33.875 8.573-52.102 8.573-18.169 0-35.643-2.989-51.948-8.507-52.357-20.698-89.396-71.768-89.389-131.486 0-7.469.577-14.814 1.71-21.969h279.254c1.133 7.155 1.71 14.5 1.71 21.969-.007 59.659-36.966 110.679-89.235 131.42z" fill="#b4acb7"/><path d="m302.342 238.019c-30.856 0-55.873-25.017-55.873-55.873 0-7.791 1.601-15.223 4.487-21.969 8.536-19.937 28.335-33.904 51.385-33.904 23.051 0 42.849 13.966 51.385 33.904 2.894 6.738 4.487 14.164 4.487 21.969.002 30.856-25.015 55.873-55.871 55.873z" fill="#ffef4a"/><path d="m302.342 238.019c-30.856 0-55.873-25.017-55.873-55.873 0-7.791 1.601-15.223 4.487-21.969h102.771c2.894 6.738 4.487 14.164 4.487 21.969.001 30.856-25.016 55.873-55.872 55.873z" fill="#ffd321"/><path d="m464.3 182.149c0 89.448-72.512 161.961-161.961 161.961s-161.961-72.512-161.961-161.961z" fill="#665e66"/><path d="m318.775 343.289c-5.408.546-10.889.824-16.442.824-89.44 0-161.955-72.514-161.955-161.965h32.883c.001 83.898 63.79 152.9 145.514 161.141z" fill="#544f57"/><path d="m240.122 444.248c-44.931-31.742-83.267-70.079-115.009-115.009 39.173-45.101 80.43-88.119 123.77-129.054 33.265-31.419 85.54-31.107 117.951 1.192.384.383.767.766 1.15 1.15 32.3 32.411 32.611 84.686 1.193 117.951-40.935 43.34-83.953 84.597-129.055 123.77z" fill="#f9f6f9"/><path d="m275.176 220.555c-45.349 43.01-88.739 87.979-130.155 134.92-6.906-8.47-13.542-17.226-19.908-26.237 39.173-45.107 80.429-88.117 123.768-129.059 31.484-29.745 80.012-31.046 112.586-3.705-28.817-7.33-61.844.892-86.291 24.081z" fill="#e2dfe2"/><g fill="#665e66"><path d="m277.401 333.762-41.802-41.802c-5.906-5.906-5.906-15.481 0-21.387 5.906-5.906 15.481-5.906 21.387 0l41.802 41.802c5.906 5.906 5.906 15.481 0 21.387-5.906 5.906-15.481 5.906-21.387 0z"/><path d="m239.43 371.733-41.802-41.802c-5.906-5.906-5.906-15.481 0-21.387 5.906-5.906 15.481-5.906 21.387 0l41.802 41.802c5.906 5.906 5.906 15.481 0 21.387-5.906 5.906-15.481 5.906-21.387 0z"/></g></g><g fill="#f9f48e"><path d="m143.201 48.74-1.752 1.772c-6.178 6.25-16.14 6.649-22.798.913l-20.479-17.642c-7.335-6.319-7.784-17.529-.978-24.415l4.353-4.403c6.806-6.886 18.021-6.566 24.425.695l17.878 20.274c5.812 6.59 5.528 16.556-.649 22.806z"/><path d="m115.032 112.545-.631 2.41c-2.225 8.501-10.653 13.828-19.287 12.189l-26.557-5.039c-9.512-1.805-15.506-11.289-13.054-20.655l1.568-5.989c2.452-9.366 12.323-14.697 21.5-11.61l25.62 8.618c8.329 2.802 13.066 11.575 10.841 20.076z"/><path d="m107.036 181.976.659 2.403c2.323 8.475-2.312 17.302-10.608 20.2l-25.518 8.914c-9.14 3.193-19.073-2.023-21.633-11.361l-1.637-5.971c-2.56-9.337 3.324-18.89 12.815-20.805l26.497-5.346c8.613-1.737 17.102 3.491 19.425 11.966z"/></g><g fill="#b4acb7"><path d="m394.715 140.836c-4.268 0-7.726-3.459-7.726-7.726v-.517c0-4.267 3.459-7.726 7.726-7.726 4.268 0 7.726 3.459 7.726 7.726v.517c.001 4.267-3.458 7.726-7.726 7.726z"/><path d="m373.407 151.835c-4.268 0-7.726-3.459-7.726-7.726v-.517c0-4.267 3.459-7.726 7.726-7.726s7.726 3.459 7.726 7.726v.517c0 4.266-3.459 7.726-7.726 7.726z"/><path d="m374.786 127.088c-4.268 0-7.726-3.459-7.726-7.726v-.517c0-4.267 3.459-7.726 7.726-7.726s7.726 3.459 7.726 7.726v.517c0 4.267-3.459 7.726-7.726 7.726z"/></g><g fill="#b4acb7"><path d="m241.804 125.172c-4.267 0-7.726-3.459-7.726-7.726v-.517c0-4.267 3.459-7.726 7.726-7.726s7.726 3.459 7.726 7.726v.517c.001 4.267-3.458 7.726-7.726 7.726z"/><path d="m220.495 136.171c-4.267 0-7.726-3.459-7.726-7.726v-.517c0-4.267 3.459-7.726 7.726-7.726s7.726 3.459 7.726 7.726v.517c0 4.266-3.459 7.726-7.726 7.726z"/><path d="m221.875 111.424c-4.267 0-7.726-3.459-7.726-7.726v-.517c0-4.267 3.459-7.726 7.726-7.726s7.726 3.459 7.726 7.726v.517c0 4.267-3.459 7.726-7.726 7.726z"/></g></g></svg>