<svg id="Capa_1" enable-background="new 0 0 512 512" height="512" viewBox="0 0 512 512" width="512" xmlns="http://www.w3.org/2000/svg"><g><path d="m11.886 240.33 64.299-183.107c5.975-17 25.084-25.393 41.642-18.296l46.476 19.911c14.069 6.037 10.953 26.822-4.268 28.457l-48.193 5.205-22.596 129.616" fill="#c3bec6"/><path d="m113.261 37.372c-9.704 2.483-18.059 9.612-21.665 19.852l-62.913 179.148-16.802 3.956 64.304-183.105c5.429-15.463 21.716-23.797 37.076-19.851z" fill="#b4acb7"/><path d="m422.755 222.116-22.595-129.616-48.194-5.204c-15.221-1.635-18.337-22.42-4.268-28.457l46.476-19.911c16.558-7.096 35.667 1.296 41.642 18.296l64.299 183.107" fill="#c3bec6"/><path d="m483.322 236.38-60.564-14.258-22.592-129.617-48.192-5.202c-15.226-1.638-18.337-22.427-4.275-28.464l46.482-19.903c1.504-.649 3.029-1.164 4.564-1.556 9.704 2.483 18.069 9.601 21.675 19.852z" fill="#b4acb7"/><path d="m74.1 472.797c29.698 1.232 59.395 2.162 89.09 2.788 27.198.574 52.542-13.748 66.143-37.308 11.852-20.53 41.484-20.53 53.336 0 13.601 23.56 38.945 37.882 66.143 37.308 29.697-.627 59.393-1.556 89.09-2.788 37.007-1.535 67.237-30.056 71.072-66.896 5.416-52.031 3.562-104.059-5.561-156.091-2.482-14.155-14.455-24.7-28.808-25.415-145.733-7.262-291.466-7.262-437.207 0-14.353.715-26.326 11.261-28.808 25.415-9.124 52.031-10.978 104.06-5.562 156.09 3.835 36.84 34.065 65.362 71.072 66.897z" fill="#c3bec6"/><path d="m76.83 472.903c-.907-.041-1.823-.072-2.73-.113-37.014-1.535-67.24-30.05-71.072-66.889-5.419-52.034-3.564-104.058 5.563-156.093 2.472-14.155 14.453-24.704 28.804-25.415 3.925-.196 7.85-.381 11.775-.567-6.902 4.801-11.878 12.228-13.413 20.964-9.591 54.713-11.538 109.415-5.841 164.118 3.008 28.938 21.52 53.003 46.914 63.995z" fill="#b4acb7"/><path d="m471.061 401.959c-1.865 17.925-16.802 32.008-34.738 32.749-27.743 1.164-55.825 2.05-83.558 2.668-1.586.031-3.173.072-4.759.103-.258 0-.515.01-.773.01-12.96 0-25.054-7.005-31.554-18.265-12.455-21.582-34.769-34.459-59.678-34.459-7.685 0-15.123 1.226-22.108 3.564-15.638 5.213-28.958 15.968-37.571 30.895-6.5 11.26-18.595 18.265-31.554 18.265-.258 0-.515-.01-.773-.01-6.325-.134-12.661-.278-19.017-.453-23.086-.587-46.317-1.36-69.3-2.318-5.779-.237-11.26-1.865-16.081-4.574-10.137-5.656-17.389-16.03-18.657-28.175-4.821-46.358-3.41-93.355 4.214-139.785 31.657-1.535 63.51-2.73 95.374-3.564 29.813-.793 59.637-1.288 89.327-1.463 8.726-.052 17.441-.082 26.146-.082 13.217 0 26.465.062 39.744.185 46.698.433 93.664 1.617 140.341 3.544 10.271.422 20.521.886 30.761 1.381 7.624 46.429 9.035 93.426 4.214 139.784z" fill="#e2dfe2"/><path d="m229.855 257.146-84.876 179.879c-23.086-.587-46.317-1.36-69.3-2.318-5.779-.237-11.26-1.865-16.081-4.574l80.931-171.525c29.812-.792 59.636-1.286 89.326-1.462z" fill="#f9f6f9"/><path d="m436.086 260.793-83.321 176.583c-1.586.031-3.173.072-4.759.103-.258 0-.515.01-.773.01-12.96 0-25.054-7.005-31.554-18.265-12.455-21.582-34.769-34.459-59.678-34.459-7.685 0-15.123 1.226-22.108 3.564l61.852-131.08c46.698.433 93.664 1.618 140.341 3.544z" fill="#f9f6f9"/><path d="m347.233 445.215c-15.711 0-30.366-8.479-38.245-22.128-11.056-19.158-30.864-30.596-52.987-30.596-6.77 0-13.382 1.065-19.655 3.164-13.981 4.66-25.814 14.401-33.331 27.43-7.881 13.651-22.536 22.13-38.246 22.13-.179 0-.358-.003-.537-.007l-.235-.004c-.054 0-.109-.001-.163-.002-6.343-.134-12.694-.279-19.066-.455-23.368-.595-46.726-1.376-69.41-2.321-6.811-.279-13.57-2.201-19.544-5.558-12.622-7.042-21.062-19.797-22.556-34.109-4.892-47.046-3.454-94.766 4.274-141.838.591-3.595 3.612-6.289 7.251-6.466 31.81-1.542 63.956-2.743 95.546-3.571 30.04-.799 60.148-1.292 89.484-1.465 9.363-.055 17.931-.083 26.191-.083 13.179 0 26.574.062 39.817.186 46.694.433 93.995 1.627 140.588 3.55 9.846.404 19.926.857 30.814 1.383 3.64.176 6.662 2.87 7.253 6.465 7.728 47.072 9.167 94.793 4.274 141.836-2.259 21.717-20.359 38.771-42.104 39.67-27.22 1.142-55.384 2.041-83.704 2.673l-4.78.104c-.05.001-.102.002-.152.002l-.235.004c-.183.003-.363.006-.542.006zm-91.232-68.177c27.71 0 52.522 14.327 66.37 38.324 5.127 8.882 14.654 14.4 24.862 14.4l.235-.004c.147-.003.294-.006.441-.006l4.704-.102c28.199-.629 56.261-1.525 83.385-2.663 14.139-.584 25.905-11.688 27.376-25.829 4.538-43.625 3.468-87.854-3.177-131.567-8.493-.399-16.537-.754-24.429-1.078-46.431-1.917-93.565-3.107-140.096-3.538-13.194-.123-26.542-.185-39.673-.185-8.229 0-16.767.027-26.1.083-29.23.172-59.23.663-89.168 1.46-29.402.77-59.288 1.865-88.93 3.258-6.645 43.714-7.715 87.943-3.178 131.568.972 9.311 6.481 17.622 14.736 22.227 3.879 2.18 8.24 3.422 12.633 3.602 22.607.943 45.88 1.721 69.18 2.314 6.334.175 12.631.318 18.918.451.147 0 .294.003.441.006l.235.004c10.207 0 19.734-5.519 24.863-14.401 9.405-16.304 24.258-28.509 41.818-34.362 7.85-2.628 16.113-3.962 24.554-3.962z" fill="#b4acb7"/></g></svg>