<svg id="Capa_1" enable-background="new 0 0 512 512" height="512" viewBox="0 0 512 512" width="512" xmlns="http://www.w3.org/2000/svg"><g><path d="m258.822 490.101c-34.462 0-75.515-4.934-122.018-14.664-48.157-10.077-84.635-49.509-90.77-98.121-8.093-64.116 1.73-123.469 2.152-125.964 1.325-7.833 8.752-13.107 16.583-11.785 7.833 1.325 13.11 8.75 11.785 16.583-.096.564-9.518 57.803-1.976 117.563 4.598 36.437 31.974 66 68.119 73.563 43.941 9.195 84.097 14.054 116.126 14.054s72.185-4.86 116.126-14.054c36.145-7.564 63.521-37.126 68.119-73.563 7.542-59.76-1.881-116.998-1.977-117.569-1.318-7.832 3.962-15.254 11.793-16.575 7.827-1.324 15.252 3.952 16.576 11.782.422 2.495 10.245 61.849 2.152 125.964-6.135 48.612-42.613 88.044-90.77 98.121-46.505 9.731-87.558 14.665-122.02 14.665z" fill="#c3bec6"/><g fill="#b4acb7"><path d="m274.491 461.33c32.028 0 72.185-4.86 116.126-14.054 36.145-7.564 63.521-37.126 68.119-73.563 7.542-59.76-1.88-116.998-1.977-117.569-.98-5.822 1.691-11.412 6.341-14.443-2.918-1.895-6.518-2.757-10.217-2.131-7.831 1.321-13.111 8.742-11.793 16.574.097.571 9.519 57.81 1.977 117.569-4.598 36.437-31.974 65.999-68.119 73.563-40.436 8.461-77.65 13.241-108.291 13.951 2.655.061 5.279.103 7.834.103z"/><path d="m152.472 475.437c-48.157-10.077-84.635-49.509-90.77-98.121-8.093-64.116 1.73-123.469 2.152-125.964.699-4.132 3.105-7.538 6.363-9.653-1.604-1.046-3.44-1.792-5.449-2.131-7.831-1.322-15.258 3.951-16.583 11.785-.423 2.496-10.245 61.849-2.152 125.964 6.135 48.612 42.613 88.044 90.77 98.121 46.504 9.73 87.556 14.664 122.018 14.664 2.571 0 5.191-.037 7.835-.091-32.795-.682-71.149-5.57-114.184-14.574z"/></g><path d="m464.694 159.987v96.301h-417.388v-96.301c0-45.616 24.714-85.484 61.491-106.892 13.681-7.984 29.031-13.403 45.4-15.607 5.47-.752 11.064-1.133 16.74-1.133h170.135c5.676 0 11.27.381 16.74 1.133 16.369 2.205 31.719 7.623 45.4 15.607 36.768 21.418 61.482 61.276 61.482 106.892z" fill="#e27d47"/><path d="m464.694 178.355v68.332c-1.597.237-3.235.35-4.893.35h-407.602c-1.658 0-3.297-.113-4.893-.35v-68.332c1.597-.237 3.235-.35 4.893-.35h407.602c1.658 0 3.296.113 4.893.35z" fill="#dd6938"/><g fill="#dd6938"><path d="m403.212 53.097v47.219c0 12.536-10.164 22.699-22.699 22.699s-22.699-10.164-22.699-22.699v-62.83c16.369 2.206 31.718 7.626 45.398 15.611z"/><path d="m154.197 37.486v62.83c0 12.536-10.164 22.699-22.699 22.699s-22.699-10.164-22.699-22.699v-47.219c13.68-7.985 29.029-13.405 45.398-15.611z"/></g><path d="m199.812 195.475c-3.663-56.372-4.069-112.745-1.22-169.117.637-11.562 10.736-22.899 22.346-24.32 23.375-2.716 46.75-2.716 70.124 0 11.612 1.421 21.708 12.758 22.346 24.32 2.85 56.372 2.443 112.745-1.22 169.117l-64.942 23.692z" fill="#e27d47"/><g fill="#dd6938"><path d="m227.469 21.93c-2.923 57.851-2.51 132.678 1.255 190.516l-28.919-16.976c-3.669-56.362-4.068-112.737-1.214-169.113.634-11.556 10.729-22.892 22.341-24.326 6.675-.772 13.336-1.324 19.996-1.641-7.487 4.592-12.99 13.004-13.459 21.54z"/><path d="m227.127 36.358c-68.28 0-123.633 55.353-123.633 123.633v96.301h-56.191v-96.301c0-68.28 55.353-123.633 123.633-123.633z"/><path d="m309.621 312.666h-107.242c-12.43 0-23.627-7.511-28.342-19.012l-11.95-29.149 93.913-34.515 93.914 34.515-11.95 29.149c-4.716 11.501-15.913 19.012-28.343 19.012z"/></g><path d="m459.803 195.475h-407.606c-19.062 0-34.515 15.453-34.515 34.515 0 19.062 15.453 34.515 34.515 34.515h407.606c19.062 0 34.515-15.453 34.515-34.515 0-19.062-15.453-34.515-34.515-34.515z" fill="#e27d47"/><path d="m121.511 264.493h-69.312c-19.065 0-34.517-15.452-34.517-34.503v-.014c0-19.051 15.452-34.503 34.517-34.503h69.312c-19.065 0-34.517 15.452-34.517 34.503v.014c0 19.051 15.452 34.503 34.517 34.503z" fill="#dd6938"/><path d="m279.417 512h-41.191c-20.164 0-36.509-16.346-36.509-36.509v-16.056c0-7.122 5.774-12.896 12.896-12.896h88.418c7.122 0 12.896 5.774 12.896 12.896v16.056c0 20.163-16.346 36.509-36.51 36.509z" fill="#f9f6f9"/><path d="m265.621 511.992h-27.392c-20.167 0-36.512-16.345-36.512-36.501v-16.062c0-7.12 5.769-12.89 12.89-12.89h27.392c-7.12 0-12.889 5.769-12.889 12.89v16.062c-.001 20.156 16.344 36.501 36.511 36.501z" fill="#e2dfe2"/></g></svg>