<svg id="Capa_1" enable-background="new 0 0 512 512" height="512" viewBox="0 0 512 512" width="512" xmlns="http://www.w3.org/2000/svg"><g><path d="m324.663 279.653c-.185 10.384-3.884 20.398-10.518 28.392-14.443 17.431-28.732 35.222-42.619 52.395-7.984 9.88-23.055 9.88-31.039 0-13.887-17.173-28.175-34.964-42.619-52.395-6.634-7.994-10.333-18.008-10.518-28.392-.721-40.929-.556-81.868.515-122.808.567-21.912 1.401-43.834 2.493-65.757.041-1.081.103-2.174.154-3.255 43.659-10.405 87.328-10.405 130.988 0 .051 1.082.113 2.174.154 3.255 1.092 21.912 1.926 43.814 2.493 65.715 1.072 40.961 1.237 81.9.516 122.85z" fill="#c3bec6"/><path d="m231.402 311.195c6.064 18.462 12.067 37.305 17.894 55.498-3.321-1.176-6.394-3.259-8.808-6.25-13.893-17.172-28.177-34.974-42.627-52.404-6.621-7.993-10.324-17.997-10.51-28.384-1.134-63.945-.082-127.88 3.156-191.826 12.562-2.991 25.124-5.126 37.676-6.394-1.289 66.482-1.702 132.965-1.227 199.447.073 11.088 1.641 21.773 4.446 30.313z" fill="#b4acb7"/><path d="m400.836 511.996h-289.652c-7.137-29.312-9.478-58.623-7.013-87.935 1.186-14.315 3.527-28.621 7.013-42.936l146.631 63.935 143.021-63.935c3.476 14.305 5.817 28.621 7.003 42.926 2.465 29.311.134 58.633-7.003 87.945z" fill="#665e66"/><path d="m407.839 424.05c-43.844 27.064-98.156 55.89-151.839 72.104-53.673-16.213-107.985-45.03-151.829-72.093 1.186-14.315 3.527-28.621 7.013-42.936l146.631 63.935 143.021-63.935c3.475 14.305 5.817 28.62 7.003 42.925z" fill="#544f57"/><path d="m161.594 512h-50.414c-10.623-43.617-10.623-87.244 0-130.871l46.268 20.174c-6.23 36.902-4.837 73.805 4.146 110.697z" fill="#544f57"/><path d="m256.001 471.092c96.951-29.283 195.984-99.704 231.646-126.641 7.994-6.038 10.309-17.041 5.417-25.784l-6.646-11.877c-5.518-9.862-18.089-13.214-27.784-7.408-42.462 25.428-150.571 88.867-202.633 107.455-52.062-18.587-160.171-82.026-202.633-107.454-9.695-5.806-22.266-2.454-27.784 7.408l-6.646 11.877c-4.892 8.742-2.577 19.745 5.417 25.784 35.662 26.937 134.696 97.357 231.646 126.64z" fill="#da4a54"/><path d="m18.895 320.274c34.12 25.775 154.774 113.495 250.056 146.667-4.316 1.463-8.633 2.854-12.949 4.152-96.95-29.278-195.982-99.701-231.647-126.64-7.644-5.769-10.096-16.091-6.027-24.632.186.164.371.309.567.453z" fill="#d82e3d"/><path d="m324.148 156.804c-45.431 1.04-90.852 1.061-136.283.041.567-21.912 1.401-43.834 2.493-65.757h131.297c1.092 21.913 1.926 43.814 2.493 65.716z" fill="#b4acb7"/><path d="m382.881 107.8c-1.696 17.152-15.966 30.315-33.198 30.854-63.139 1.963-126.27 1.963-189.409 0-17.231-.539-31.501-13.702-33.198-30.854-.963-9.719-.963-19.446 0-29.165.173-1.718.467-3.393.877-5.018h254.05c.41 1.625.704 3.3.877 5.018.964 9.719.964 19.446.001 29.165z" fill="#f9f6f9"/><path d="m191.71 139.466c-10.481-.216-20.955-.489-31.436-.812-17.231-.539-31.501-13.702-33.198-30.854-.963-9.719-.963-19.446 0-29.165.173-1.718.467-3.393.877-5.018h44.577c-.439 1.74-.755 3.537-.942 5.384-1.028 10.424-1.028 20.862 0 31.285 1.281 12.883 9.167 23.674 20.122 29.18z" fill="#e2dfe2"/><g><path d="m438.481 49.042c-2.434 24.608-22.907 43.493-47.629 44.267-90.586 2.816-181.161 2.816-271.747 0-24.722-.774-45.195-19.659-47.629-44.267-1.382-13.944-1.382-27.899 0-41.843.248-2.465.67-4.868 1.258-7.199h364.488c.588 2.331 1.011 4.734 1.258 7.199 1.383 13.944 1.383 27.899.001 41.843z" fill="#665e66"/><path d="m164.207 94.474c-15.037-.309-30.065-.701-45.102-1.165-24.722-.774-45.195-19.659-47.629-44.267-1.382-13.944-1.382-27.899 0-41.843.248-2.465.67-4.868 1.258-7.199h63.956c-.629 2.496-1.083 5.074-1.351 7.725-1.475 14.955-1.475 29.931 0 44.886 1.836 18.482 13.15 33.963 28.868 41.863z" fill="#544f57"/><g><g><path d="m327.572 66.426c-4.804.176-9.608.176-14.412 0-8.376-.307-15.15-7.082-15.458-15.458-.176-4.804-.176-9.608 0-14.412.307-8.376 7.082-15.15 15.458-15.458 4.704-.173 9.408-.176 14.113-.011 8.605.303 15.465 7.163 15.768 15.768.165 4.704.162 9.409-.011 14.113-.308 8.376-7.082 15.151-15.458 15.458z" fill="#ffef4a"/><path d="m393.952 66.426c-4.804.176-9.608.176-14.412 0-8.376-.307-15.15-7.082-15.458-15.458-.176-4.804-.176-9.608 0-14.412.307-8.376 7.082-15.15 15.458-15.458 4.704-.173 9.408-.176 14.113-.011 8.605.303 15.465 7.163 15.768 15.768.165 4.704.162 9.409-.011 14.113-.307 8.376-7.082 15.151-15.458 15.458z" fill="#78d0b1"/></g><g><path d="m326.706 66.429c.145 0 .289.01.433.01-4.662.165-9.324.155-13.975-.01-8.375-.309-15.151-7.086-15.46-15.46-.176-4.806-.176-9.612 0-14.419.309-8.375 7.085-15.151 15.46-15.45 4.662-.175 9.334-.175 13.996-.01-.155 0-.299 0-.454.01-8.375.299-15.151 7.075-15.45 15.45-.186 4.806-.186 9.612 0 14.419.299 8.374 7.075 15.15 15.45 15.46z" fill="#ffd321"/><path d="m393.085 66.429c.144 0 .289.01.433.01-4.662.165-9.313.155-13.975-.01-8.375-.309-15.151-7.086-15.46-15.46-.175-4.806-.175-9.612 0-14.419.309-8.375 7.086-15.151 15.46-15.45 4.662-.175 9.334-.175 13.996-.01-.155 0-.299 0-.454.01-8.375.299-15.151 7.075-15.45 15.45-.176 4.806-.176 9.612 0 14.419.299 8.374 7.075 15.15 15.45 15.46z" fill="#66b49d"/></g></g></g><g fill="#f9f6f9"><path d="m114.144 192.195-1.281 2.219c-4.519 7.828-14.328 10.82-22.447 6.846l-24.974-12.22c-8.945-4.377-12.312-15.415-7.332-24.039l3.184-5.515c4.979-8.624 16.221-11.228 24.485-5.67l23.07 15.517c7.5 5.044 9.814 15.034 5.295 22.862z"/><path d="m91.458 248.513v2.563c0 9.039-6.999 16.534-16.016 17.153l-27.738 1.903c-9.935.682-18.37-7.194-18.37-17.153v-6.368c0-9.959 8.434-17.834 18.37-17.153l27.738 1.903c9.017.618 16.016 8.113 16.016 17.152z"/><path d="m420.553 251.076v-2.563c0-9.039 6.999-16.534 16.016-17.153l27.738-1.903c9.935-.682 18.37 7.194 18.37 17.153v6.368c0 9.959-8.434 17.834-18.37 17.153l-27.738-1.903c-9.017-.618-16.016-8.114-16.016-17.152z"/><path d="m399.149 194.414-1.281-2.219c-4.519-7.828-2.206-17.818 5.294-22.863l23.07-15.517c8.263-5.558 19.506-2.955 24.485 5.67l3.184 5.515c4.979 8.624 1.613 19.662-7.332 24.039l-24.973 12.221c-8.119 3.974-17.928.982-22.447-6.846z"/></g></g></svg>