<svg id="Capa_1" enable-background="new 0 0 512 512" height="512" viewBox="0 0 512 512" width="512" xmlns="http://www.w3.org/2000/svg"><g><path d="m349.18 163.363v92.46l-18.602 5.847-12.654 3.975v-102.282z" fill="#f9f6f9"/><path d="m330.578 163.363v98.307l-12.654 3.975v-102.282z" fill="#e2dfe2"/><path d="m369.864 181.462h-72.627c-6.083 0-11.015-4.931-11.015-11.015v-36.688h94.656v36.688c.001 6.083-4.931 11.015-11.014 11.015z" fill="#c3bec6"/><path d="m309.515 181.462h-12.277c-6.083 0-11.015-4.931-11.015-11.015v-36.688h23.292z" fill="#b4acb7"/><path d="m317.928 254.358c-2.842 0-5.576-1.573-6.926-4.29-1.898-3.821-.34-8.459 3.482-10.357l31.258-15.529c3.824-1.897 8.459-.34 10.357 3.482s.34 8.459-3.482 10.357l-31.258 15.529c-1.104.548-2.276.808-3.431.808z" fill="#e2dfe2"/><path d="m317.928 226.076c-2.842 0-5.576-1.573-6.926-4.29-1.898-3.821-.34-8.459 3.482-10.357l31.258-15.529c3.824-1.897 8.459-.34 10.357 3.482 1.898 3.821.34 8.459-3.482 10.357l-31.258 15.529c-1.104.548-2.276.808-3.431.808z" fill="#e2dfe2"/><path d="m168.434 174.087c.082 54.847-.68 109.705-2.277 164.563-.268 9.169-6.48 17.143-15.34 19.501-23.128 6.171-46.256 6.171-69.383 0-8.86-2.359-15.082-10.333-15.35-19.501-1.617-55.816-2.369-111.631-2.256-167.437.052-34.779.453-69.559 1.185-104.338.299-14.248.659-28.495 1.071-42.743.268-9.169 6.49-17.142 15.35-19.512 23.128-6.161 46.256-6.161 69.383 0 8.86 2.369 15.072 10.343 15.34 19.512.402 13.877.752 27.743 1.04 41.62.783 36.108 1.195 72.216 1.237 108.335z" fill="#c3bec6"/><path d="m116.352 98.093c-.152-.001-.304-.001-.455 0-12.581.048-22.759 10.3-23.064 22.877-.978 40.28-.978 80.561 0 120.841.305 12.577 10.483 22.829 23.064 22.877.152.001.304.001.455 0 12.581-.048 22.759-10.3 23.064-22.877.978-40.28.978-80.561 0-120.841-.306-12.577-10.484-22.829-23.064-22.877z" fill="#b4acb7"/><path d="m361.375 487.35 24.65 24.65h112.366s10.791-28.223 13.156-49.887c.503-4.61-.629-9.247-3.217-13.095l-9.599-14.278c-3.639-5.413-9.734-8.659-16.256-8.659h-452.95c-6.522 0-12.617 3.246-16.256 8.659l-9.599 14.278c-2.587 3.848-3.72 8.485-3.217 13.095 2.365 21.664 13.156 49.887 13.156 49.887h112.366l24.65-24.65z" fill="#665e66"/><g fill="#544f57"><path d="m68.422 426.08h-38.897c-6.522 0-12.617 3.246-16.256 8.659l-9.599 14.279c-2.587 3.848-3.72 8.485-3.216 13.095 2.364 21.664 13.155 49.887 13.155 49.887h49.331s-10.791-28.223-13.156-49.887c-.503-4.61.629-9.247 3.216-13.095z"/><path d="m361.375 487.35 24.65 24.65h49.331l-24.65-24.65z"/></g><path d="m15.924 322.879v20.472c0 5.646 2.691 10.954 7.246 14.291l43.363 31.771v36.668h212.399v-36.668s105.866-10.11 184.61-39.97c6.85-2.598 11.345-9.205 11.345-16.531v-10.032c0-9.784-7.932-17.716-17.716-17.716h-423.531c-9.784-.002-17.716 7.93-17.716 17.715z" fill="#78d0b1"/><path d="m66.509 389.388h212.424v19.184h-212.424z" fill="#66b49d"/><path d="m99.427 389.406v36.675h-32.894v-36.675l-43.36-31.771c-4.553-3.327-7.242-8.643-7.242-14.289v-20.47c0-9.787 7.932-17.719 17.709-17.719h32.894c-9.787 0-17.719 7.932-17.719 17.719v20.47c0 5.645 2.689 10.961 7.242 14.289z" fill="#66b49d"/><path d="m168.434 174.087c-34.872-.494-69.744-1.452-104.606-2.874.052-34.779.453-69.559 1.185-104.338 34.068-.556 68.127-.927 102.185-1.123.782 36.108 1.194 72.216 1.236 108.335z" fill="#b4acb7"/><path d="m216.083 6.664c-10.615 12.085-21.649 24.201-32.803 36.294-3.701 4.013-8.898 6.312-14.357 6.343-41.346.229-82.691.719-124.037 1.471-10.263.187-18.694 8.25-19.268 18.498-1.387 24.756.753 44.325 6.418 69.592 1.938 8.642 9.435 14.935 18.283 15.327 57.193 2.538 114.385 3.818 171.578 3.838 58.106.02 116.212-1.259 174.318-3.838 8.849-.393 16.346-6.685 18.284-15.328 6.977-31.114 8.606-53.589 4.888-87.751-1.15-10.568-2.812-21.136-4.986-31.704-1.804-8.771-9.395-15.181-18.341-15.577-55.067-2.442-110.135-3.716-165.202-3.824-5.652-.011-11.044 2.412-14.775 6.659z" fill="#78d0b1"/><g fill="#66b49d"><path d="m74.687 144.01c-5.666-25.266-7.805-49.987-6.418-74.743.473-8.44 6.279-16.432 14.043-19.099-12.475.179-24.95.374-37.424.601-10.263.187-18.694 8.25-19.268 18.498-1.387 24.756.753 44.325 6.418 69.592 1.938 8.642 9.435 14.935 18.283 15.327 10.601.471 21.203.883 31.804 1.267-3.672-2.739-6.383-6.738-7.438-11.443z"/><path d="m211.573 49.298c5.459-.03 10.656-2.329 14.357-6.343 11.154-12.094 22.188-24.209 32.803-36.294 1.6-1.822 3.507-4.253 5.607-6.438-11.16-.118-22.321-.2-33.481-.222-5.653-.011-11.045 2.412-14.776 6.66-10.615 12.085-21.649 24.2-32.803 36.294-3.358 3.641-7.951 5.852-12.851 6.256 13.716.095 27.43.163 41.144.087z"/></g><g><path d="m389.082 84.876c-6.047 0-11.789-3.572-14.265-9.501-3.29-7.875.428-16.926 8.303-20.215l81.192-33.915c7.873-3.289 16.926.428 20.214 8.302 3.29 7.875-.428 16.926-8.303 20.215l-81.192 33.915c-1.945.813-3.964 1.199-5.949 1.199z" fill="#665e66"/><path d="m476.223 49.762-81.189 33.914c-1.947.814-3.966 1.205-5.955 1.205-5.903 0-11.517-3.41-14.062-9.086 1.937-.237 3.874-.742 5.759-1.525l104.183-43.526c2.473 7.573-1.256 15.897-8.736 19.018z" fill="#544f57"/><circle cx="470.267" cy="35.504" fill="#da4a54" r="23.124"/><path d="m478.234 57.22c-2.483.906-5.161 1.401-7.963 1.401-12.774 0-23.128-10.353-23.128-23.117 0-12.774 10.353-23.128 23.128-23.128 2.802 0 5.481.494 7.963 1.401-8.849 3.256-15.164 11.755-15.164 21.727s6.315 18.461 15.164 21.716z" fill="#d82e3d"/></g><g><g><path d="m251.37 124.917c-4.798.176-9.597.176-14.395 0-8.366-.307-15.133-7.073-15.44-15.44-.176-4.798-.176-9.597 0-14.395.307-8.366 7.073-15.133 15.44-15.44 4.699-.172 9.398-.176 14.096-.011 8.595.302 15.447 7.155 15.749 15.749.165 4.699.162 9.398-.011 14.097-.306 8.366-7.072 15.133-15.439 15.44z" fill="#ffef4a"/><path d="m317.674 124.917c-4.798.176-9.597.176-14.395 0-8.366-.307-15.133-7.073-15.44-15.44-.176-4.798-.176-9.597 0-14.395.307-8.366 7.073-15.133 15.44-15.44 4.699-.172 9.398-.176 14.096-.011 8.595.302 15.447 7.155 15.749 15.749.165 4.699.162 9.398-.011 14.097-.306 8.366-7.073 15.133-15.439 15.44z" fill="#da4a54"/></g><g><path d="m250.505 124.919c.144 0 .288.01.433.01-4.656.165-9.313.155-13.959-.01-8.365-.309-15.133-7.077-15.442-15.442-.175-4.801-.175-9.601 0-14.402.309-8.365 7.077-15.133 15.442-15.432 4.656-.175 9.323-.175 13.98-.01-.155 0-.299 0-.453.01-8.365.299-15.133 7.067-15.432 15.432-.185 4.801-.185 9.601 0 14.402.298 8.365 7.066 15.133 15.431 15.442z" fill="#ffd321"/><path d="m316.808 124.919c.144 0 .288.01.433.01-4.656.165-9.303.155-13.959-.01-8.365-.309-15.133-7.077-15.442-15.442-.175-4.801-.175-9.601 0-14.402.309-8.365 7.077-15.133 15.442-15.432 4.656-.175 9.323-.175 13.98-.01-.155 0-.299 0-.453.01-8.365.299-15.134 7.067-15.432 15.432-.175 4.801-.175 9.601 0 14.402.297 8.365 7.066 15.133 15.431 15.442z" fill="#d82e3d"/></g></g></g></svg>