<svg id="Capa_1" enable-background="new 0 0 512 512" height="512" viewBox="0 0 512 512" width="512" xmlns="http://www.w3.org/2000/svg"><g><path d="m84.934 113.124h342.577v52.072h-342.577z" fill="#f9f6f9"/><path d="m84.934 139.16h342.577v26.036h-342.577z" fill="#e2dfe2"/><g><path d="m85.922 195.624h-44.511v-117.847h44.511c10.23 0 18.523 8.293 18.523 18.523v80.8c.001 10.23-8.293 18.524-18.523 18.524z" fill="#665e66"/><path d="m426.078 195.624h44.511v-117.847h-44.511c-10.23 0-18.523 8.293-18.523 18.523v80.8c-.001 10.23 8.293 18.524 18.523 18.524z" fill="#665e66"/><g fill="#544f57"><path d="m407.555 140.097v36.994c0 10.24 8.293 18.533 18.523 18.533h44.514v-37.004h-44.514c-10.23 0-18.523-8.293-18.523-18.523z"/><path d="m104.445 140.097v36.994c0 10.24-8.293 18.533-18.523 18.533h-44.514v-37.004h44.514c10.23 0 18.523-8.293 18.523-18.523z"/></g></g><path d="m49.306 224.129h413.833v37.803h-413.833z" fill="#f9f6f9"/><path d="m49.306 243.03h413.833v18.901h-413.833z" fill="#e2dfe2"/><g fill="#ffef4a"><path d="m317.864 74.099-1.894-1.094c-6.681-3.857-9.235-12.229-5.844-19.159l10.431-21.315c3.736-7.635 13.157-10.508 20.518-6.258l4.707 2.718c7.361 4.25 9.583 13.845 4.839 20.898l-13.244 19.691c-4.305 6.402-12.832 8.377-19.513 4.519z"/><path d="m247.789 54.737h-2.187c-7.715 0-14.112-5.974-14.64-13.67l-1.624-23.674c-.582-8.48 6.14-15.679 14.64-15.679h5.435c8.5 0 15.222 7.199 14.64 15.679l-1.624 23.674c-.528 7.696-6.925 13.67-14.64 13.67z"/><path d="m177.421 73.006-1.894 1.094c-6.681 3.857-15.208 1.883-19.514-4.519l-13.244-19.691c-4.744-7.053-2.522-16.648 4.839-20.898l4.707-2.718c7.361-4.25 16.782-1.377 20.518 6.258l10.431 21.315c3.391 6.929.838 15.301-5.843 19.159z"/></g><path d="m498.649 510.287h-485.298c-17.802-143.02-17.802-301.493 0-444.523 22.767-2.215 45.524-4.11 68.291-5.697-8.829 74.327-7.644 164.108 3.554 238.425 113.866 9.148 227.742 9.148 341.608 0 11.198-74.317 12.383-164.098 3.554-238.425 22.767 1.586 45.524 3.482 68.291 5.697 17.801 143.03 17.801 301.503 0 444.523z" fill="#9dc6fb"/><path d="m41.805 510.287h-28.454c-17.802-143.02-17.802-301.493 0-444.523 9.601-.937 19.192-1.813 28.783-2.627-16.482 144.205-16.596 302.76-.329 447.15z" fill="#80b4fb"/><path d="m276.264 214.253c0-21.398-11.528-41.136-30.164-51.649l-9.917-5.594v57.243h-13.573c-8.114 0-14.691 6.577-14.691 14.691v28.171c0 8.114 6.577 14.691 14.691 14.691h67.225c8.114 0 14.691-6.577 14.691-14.691v-28.171c0-8.114-6.577-14.691-14.691-14.691z" fill="#da4a54"/><path d="m304.53 236.245v20.871c0 8.108-6.583 14.69-14.69 14.69h-67.23c-8.118 0-14.69-6.583-14.69-14.69v-20.871c0 8.118 6.573 14.69 14.69 14.69h67.23c8.108 0 14.69-6.573 14.69-14.69z" fill="#d82e3d"/><g><g><path d="m98.034 391.018c-4.798.176-9.597.176-14.395 0-8.366-.307-15.133-7.073-15.44-15.44-.176-4.798-.176-9.597 0-14.395.307-8.366 7.073-15.133 15.44-15.44 4.699-.172 9.398-.176 14.096-.011 8.595.302 15.447 7.155 15.749 15.749.165 4.699.162 9.398-.011 14.096-.306 8.368-7.073 15.134-15.439 15.441z" fill="#ffef4a"/><path d="m164.337 391.018c-4.798.176-9.597.176-14.395 0-8.366-.307-15.133-7.073-15.44-15.44-.176-4.798-.176-9.597 0-14.395.307-8.366 7.073-15.133 15.44-15.44 4.699-.172 9.398-.176 14.096-.011 8.595.302 15.447 7.155 15.749 15.749.165 4.699.162 9.398-.011 14.096-.306 8.368-7.072 15.134-15.439 15.441z" fill="#da4a54"/></g><g><path d="m97.169 391.021c.144 0 .288.01.433.01-4.656.165-9.313.155-13.959-.01-8.365-.309-15.133-7.077-15.442-15.442-.175-4.801-.175-9.601 0-14.402.309-8.365 7.077-15.133 15.442-15.432 4.656-.175 9.323-.175 13.979-.01-.155 0-.299 0-.453.01-8.365.299-15.133 7.067-15.432 15.432-.185 4.801-.185 9.601 0 14.402.299 8.364 7.067 15.133 15.432 15.442z" fill="#ffd321"/><path d="m163.471 391.021c.144 0 .288.01.433.01-4.656.165-9.303.155-13.959-.01-8.365-.309-15.133-7.077-15.442-15.442-.175-4.801-.175-9.601 0-14.402.309-8.365 7.077-15.133 15.442-15.432 4.656-.175 9.323-.175 13.98-.01-.155 0-.299 0-.453.01-8.365.299-15.133 7.067-15.432 15.432-.175 4.801-.175 9.601 0 14.402.298 8.364 7.066 15.133 15.431 15.442z" fill="#d82e3d"/></g></g><g><g><path d="m98.034 458.848c-4.798.176-9.597.176-14.395 0-8.366-.307-15.133-7.073-15.44-15.44-.176-4.798-.176-9.597 0-14.395.307-8.366 7.073-15.133 15.44-15.44 4.699-.172 9.398-.176 14.096-.011 8.595.302 15.447 7.155 15.749 15.749.165 4.699.162 9.398-.011 14.096-.306 8.368-7.073 15.134-15.439 15.441z" fill="#ffef4a"/><path d="m164.337 458.848c-4.798.176-9.597.176-14.395 0-8.366-.307-15.133-7.073-15.44-15.44-.176-4.798-.176-9.597 0-14.395.307-8.366 7.073-15.133 15.44-15.44 4.699-.172 9.398-.176 14.096-.011 8.595.302 15.447 7.155 15.749 15.749.165 4.699.162 9.398-.011 14.096-.306 8.368-7.072 15.134-15.439 15.441z" fill="#da4a54"/></g><g><path d="m97.169 458.851c.144 0 .288.01.433.01-4.656.165-9.313.155-13.959-.01-8.365-.309-15.133-7.077-15.442-15.442-.175-4.801-.175-9.601 0-14.402.309-8.365 7.077-15.133 15.442-15.432 4.656-.175 9.323-.175 13.979-.01-.155 0-.299 0-.453.01-8.365.299-15.133 7.067-15.432 15.432-.185 4.801-.185 9.601 0 14.402.299 8.365 7.067 15.133 15.432 15.442z" fill="#ffd321"/><path d="m163.471 458.851c.144 0 .288.01.433.01-4.656.165-9.303.155-13.959-.01-8.365-.309-15.133-7.077-15.442-15.442-.175-4.801-.175-9.601 0-14.402.309-8.365 7.077-15.133 15.442-15.432 4.656-.175 9.323-.175 13.98-.01-.155 0-.299 0-.453.01-8.365.299-15.133 7.067-15.432 15.432-.175 4.801-.175 9.601 0 14.402.298 8.365 7.066 15.133 15.431 15.442z" fill="#d82e3d"/></g></g><g fill="#544f57"><path d="m258.142 454.251c-9.46 0-17.129-7.669-17.129-17.129v-63.034c0-9.46 7.669-17.129 17.129-17.129 9.46 0 17.129 7.669 17.129 17.129v63.034c0 9.46-7.669 17.129-17.129 17.129z"/><path d="m317.351 454.251c-9.46 0-17.129-7.669-17.129-17.129v-63.034c0-9.46 7.669-17.129 17.129-17.129 9.46 0 17.129 7.669 17.129 17.129v63.034c0 9.46-7.669 17.129-17.129 17.129z"/><path d="m376.56 454.251c-9.46 0-17.129-7.669-17.129-17.129v-63.034c0-9.46 7.669-17.129 17.129-17.129 9.46 0 17.129 7.669 17.129 17.129v63.034c0 9.46-7.669 17.129-17.129 17.129z"/><path d="m435.77 454.251c-9.46 0-17.129-7.669-17.129-17.129v-63.034c0-9.46 7.669-17.129 17.129-17.129 9.46 0 17.129 7.669 17.129 17.129v63.034c-.001 9.46-7.669 17.129-17.129 17.129z"/></g></g></svg>