<svg id="Capa_1" enable-background="new 0 0 512 512" height="512" viewBox="0 0 512 512" width="512" xmlns="http://www.w3.org/2000/svg"><g><path d="m511.105 411.939-5.378 58.535-22.854 26.552-114.687-5.062-71.236-21.49-18.253 30.663-36.998-30.662v-57.362l80.038-187.751 50.978 49.809-2.601 16.175c-3.729 23.189 11.507 45.173 34.521 49.83l63.377 12.826c27.043 5.48 45.627 30.462 43.093 57.937z" fill="#c3bec6"/><path d="m210.529 470.475v-57.362-53.106l53.255 32.884 2.457 106.871z" fill="#b4acb7"/><path d="m210.529 470.473h86.422v41.527h-86.422z" fill="#665e66"/><path d="m210.529 470.473h54.945v41.527h-54.945z" fill="#544f57"/><path d="m505.728 470.473v41.527h-157.577l-51.2-41.527z" fill="#665e66"/><path d="m393.438 146.317-20.717 128.855h-7.149c-23.344 0-40.198 22.345-33.8 44.792l4.378 15.319c5.007 17.554 1.896 36.438-8.478 51.458-5.697 8.252-13.248 14.845-21.881 19.378s-18.348 6.995-28.381 6.995h-66.879v-53.106l-39.837-213.69h222.744z" fill="#665e66"/><path d="m210.529 413.113v-53.106l-39.837-213.69h87.421l6.13 266.796z" fill="#544f57"/><g><path d="m257.676 73.387v177.276c0 18.712-9.462 35.217-23.857 44.998l14.908 43.813h-219.223l14.908-43.821v-27.471l-5.349-6.183v-223.469c0-7.549 3.059-14.378 8.007-19.318 4.94-4.948 11.769-8.007 19.318-8.007 15.089 0 27.324 12.235 27.324 27.324v-11.195c0-7.549 3.059-14.377 8.007-19.326 4.94-4.948 11.769-8.007 19.318-8.007 15.098 0 27.333 12.235 27.333 27.324v20.626c0-7.548 3.059-14.377 8.007-19.317 4.94-4.948 11.777-8.007 19.318-8.007 15.089 0 27.324 12.235 27.324 27.324v25.435c0-15.097 12.235-27.324 27.332-27.324 15.09.001 27.325 12.227 27.325 27.325z" fill="#9dc6fb"/><path d="m99.358 303.709v35.763h-69.853l14.91-43.818v-8.483c5.987 1.906 12.366 2.928 18.99 2.928h22.342c7.517-.001 13.611 6.093 13.611 13.61z" fill="#80b4fb"/><path d="m39.061 262v-223.469c0-7.544 3.061-14.38 8.002-19.328 4.948-4.941 11.777-8.002 19.328-8.002 4.143 0 8.078.923 11.597 2.575-2.887 1.353-5.503 3.199-7.731 5.427-4.941 4.948-8.002 11.784-8.002 19.328v223.469z" fill="#80b4fb"/><path d="m93.715 156.683v-129.353c0-7.544 3.061-14.38 8.002-19.328 4.948-4.941 11.777-8.002 19.327-8.002 4.143 0 8.078.923 11.597 2.575-2.887 1.353-5.503 3.199-7.731 5.427-4.941 4.948-8.002 11.784-8.002 19.328v106.16c0 12.809-10.384 23.193-23.193 23.193z" fill="#80b4fb"/><path d="m148.368 149.032v-101.079c0-7.544 3.061-14.38 8.002-19.328 4.948-4.941 11.777-8.002 19.328-8.002 4.143 0 8.078.923 11.597 2.575-2.887 1.353-5.503 3.199-7.731 5.427-4.941 4.948-8.002 11.784-8.002 19.328v77.885c0 12.81-10.384 23.194-23.194 23.194z" fill="#80b4fb"/><path d="m203.022 157.114v-83.729c0-7.544 3.061-14.38 8.002-19.328 4.948-4.941 11.777-8.002 19.328-8.002 4.143 0 8.078.923 11.597 2.575-2.887 1.353-5.503 3.199-7.731 5.427-4.941 4.948-8.002 11.784-8.002 19.328v60.535c0 12.81-10.385 23.194-23.194 23.194z" fill="#80b4fb"/><path d="m54.529 113.998c14.317 6.201 23.569 20.288 23.569 35.888v70.834c0 4.267-3.459 7.726-7.726 7.726s-7.726-3.459-7.726-7.726l-27.52-56.681c0-4.655 12.698-16.808 10.277-20.555" fill="#80b4fb"/><g fill="#f9f6f9"><circle cx="185.896" cy="182.156" r="7.726"/><circle cx="124.415" cy="182.156" r="7.726"/><circle cx="155.155" cy="182.156" r="7.726"/><circle cx="138.394" cy="208.014" r="7.726"/><circle cx="171.917" cy="208.014" r="7.726"/><circle cx="124.415" cy="233.882" r="7.726"/><circle cx="185.896" cy="233.882" r="7.726"/><circle cx="155.155" cy="233.882" r="7.726"/><circle cx="171.917" cy="259.739" r="7.726"/><circle cx="138.394" cy="259.739" r="7.726"/><circle cx="205.449" cy="259.739" r="7.726"/><circle cx="216.626" cy="233.882" r="7.726"/><circle cx="205.449" cy="208.014" r="7.726"/><circle cx="216.626" cy="182.156" r="7.726"/><circle cx="93.674" cy="182.156" r="7.726"/><circle cx="104.862" cy="208.014" r="7.726"/><circle cx="93.674" cy="233.882" r="7.726"/><circle cx="104.862" cy="259.739" r="7.726"/></g><path d="m32.033 121.958c-17.325 0-31.369 14.044-31.369 31.369v74.04c0 34.649 28.089 62.738 62.738 62.738v-136.778c0-17.324-14.044-31.369-31.369-31.369z" fill="#9dc6fb"/><path d="m55.782 289.642c-31.057-3.755-55.118-30.203-55.118-62.273v-74.043c0-17.322 14.047-31.369 31.369-31.369 4.428 0 8.64.916 12.457 2.568-11.125 4.823-18.912 15.907-18.912 28.801v82.663c.001 22.742 12.097 42.653 30.204 53.653z" fill="#80b4fb"/></g></g></svg>