<svg id="Capa_1" enable-background="new 0 0 512 512" height="512" viewBox="0 0 512 512" width="512" xmlns="http://www.w3.org/2000/svg"><g><g><path d="m191.164 486.359c-.124.319-.247.628-.371.937-6.036 14.948-20.593 24.704-36.715 24.704h-61.172c-16.122 0-30.679-9.756-36.705-24.704-.134-.309-.258-.618-.381-.937-10.394-26.033-14.402-54.187-11.95-82.116 2.668-30.535 7.561-61.265 10.899-80.21 2.04-11.62 3.503-18.811 3.503-18.811l65.221-20.655 65.231 20.655s1.463 7.222 3.513 18.883c3.338 18.955 8.221 49.644 10.889 80.138 2.44 27.928-1.567 56.083-11.962 82.116z" fill="#9dc6fb"/><path d="m95.282 500.51c.68 4.255 1.607 8.118 2.74 11.487h-5.11c-16.122 0-30.679-9.756-36.716-24.704-.124-.309-.258-.618-.381-.937-10.394-26.033-14.392-54.187-11.95-82.116 4.306-49.253 14.402-99.021 14.402-99.021l65.221-20.655-27.331 22.005s-4.234 53.013-6.037 105.47c-1.03 29.752.649 59.75 5.007 87.483.052.329.103.659.155.988z" fill="#80b4fb"/><path d="m138.222.001h-29.457c-11.392 0-21.551 7.17-25.367 17.904l-22.2 62.445c-3.199 8.999-1.391 19.02 4.752 26.334l22.977 27.354c4.074 4.85 6.307 10.981 6.307 17.316v133.059h56.519v-133.059c0-6.334 2.233-12.465 6.307-17.316l22.977-27.354c6.143-7.314 7.951-17.334 4.752-26.334l-22.2-62.445c-3.816-10.734-13.975-17.904-25.367-17.904z" fill="#f9f6f9"/><path d="m116.057 151.354v133.058h-20.83v-133.058c0-6.336-2.225-12.465-6.305-17.317l-22.973-27.351c-6.14-7.314-7.953-17.338-4.749-26.331l22.2-62.45c3.812-10.735 13.97-17.905 25.364-17.905h6.325c-6.49 0-12.29 7.17-14.464 17.905l-12.661 62.45c-1.823 8.993-.793 19.017 2.709 26.331.001 0 25.384 38.333 25.384 44.668z" fill="#e2dfe2"/><path d="m192.236 324.105h-135.881c-.536 0-1.061-.021-1.587-.072 2.04-11.62 3.503-18.811 3.503-18.811l65.221-20.655 65.231 20.655s1.463 7.222 3.513 18.883z" fill="#80b4fb"/><path d="m195.466 263.904h-143.945c-11.41 0-20.659 9.25-20.659 20.659 0 11.41 9.25 20.659 20.659 20.659h143.945c11.41 0 20.659-9.25 20.659-20.659.001-11.41-9.249-20.659-20.659-20.659z" fill="#9dc6fb"/><path d="m92.367 299.167c3.739 3.75 8.901 6.057 14.608 6.057h-55.455c-5.697 0-10.868-2.308-14.608-6.057-3.739-3.729-6.047-8.901-6.047-14.608 0-11.404 9.251-20.655 20.655-20.655h55.455c-11.404 0-20.655 9.251-20.655 20.655-.001 5.707 2.317 10.879 6.047 14.608z" fill="#80b4fb"/></g><path d="m419.781 342.285v-17.355-138.131-17.356s35.077-14.684 57.83-35.739c1.905-1.763 3.038-4.199 3.191-6.79.89-15.107 1.973-70.012-24.787-115.157 0 0-8.818-11.757-36.234-11.757 0 0 9.791 49.109 0 79.407 0 0-19.591 9.54-39.183 9.54s-39.183-9.54-39.183-9.54c-9.791-30.298 0-79.407 0-79.407-27.417 0-36.234 11.757-36.234 11.757-26.759 45.145-25.677 100.05-24.787 115.157.153 2.592 1.286 5.027 3.191 6.79 22.753 21.055 57.83 35.739 57.83 35.739v17.356 138.131 17.356s-35.077 14.684-57.83 35.739c-1.905 1.763-3.038 4.198-3.191 6.79-.89 15.107-1.973 70.012 24.787 115.157 0 0 8.818 11.757 36.234 11.757 0 0-9.791-49.109 0-79.407 0 0 19.591-9.54 39.183-9.54s39.183 9.54 39.183 9.54c9.791 30.298 0 79.407 0 79.407 27.417 0 36.234-11.757 36.234-11.757 26.759-45.145 25.677-100.05 24.787-115.157-.153-2.592-1.286-5.027-3.191-6.79-22.753-21.056-57.83-35.74-57.83-35.74z" fill="#c3bec6"/><path d="m303.896 112.09c-2.748-108.656 37.519-112.09 37.519-112.09-27.417 0-36.234 11.757-36.234 11.757-26.764 45.153-25.677 100.069-24.786 115.165.153 2.587 1.283 5.017 3.185 6.777 22.753 21.058 57.836 35.744 57.836 35.744v17.356 138.131 17.356s-35.083 14.686-57.836 35.744c-1.902 1.76-3.032 4.19-3.185 6.777-.89 15.096-1.978 70.012 24.786 115.165 0 0 8.818 11.757 36.234 11.757 0 0-40.268-3.434-37.52-112.09.089-3.538 1.637-6.885 4.258-9.264 7.704-6.99 25.503-21.524 46.602-27.998 4.621-1.418 7.822-5.619 7.822-10.453v-192.119c0-4.834-3.201-9.035-7.822-10.453-21.149-6.49-38.983-21.079-46.657-28.049-2.6-2.362-4.114-5.702-4.202-9.213z" fill="#b4acb7"/></g></svg>