<svg id="Capa_1" enable-background="new 0 0 511.998 511.998" height="512" viewBox="0 0 511.998 511.998" width="512" xmlns="http://www.w3.org/2000/svg"><g><path d="m418.323 347.718h-24.603v-142.507h24.603c10.629 0 19.245 8.616 19.245 19.245v104.016c0 10.63-8.616 19.246-19.245 19.246z" fill="#e27d47"/><path d="m437.567 288.73v39.744c0 10.631-8.612 19.244-19.244 19.244h-24.601v-39.734h24.601c10.632 0 19.244-8.623 19.244-19.254z" fill="#dd6938"/><path d="m166.5.002h-22.409c-13.488 0-24.422 10.934-24.422 24.422v141.049h71.253v-141.048c0-13.488-10.934-24.423-24.422-24.423z" fill="#e27d47"/><path d="m166.953.01c-13.289.227-23.982 11.074-23.982 24.415v141.047h-23.302v-141.047c0-13.485 10.94-24.425 24.425-24.425h22.416c.144 0 .298 0 .443.01z" fill="#dd6938"/><path d="m410.616 376.848c-.721 23.621-31.681 25.353-33.257 48.974-2.132 31.769-27.206 57.193-58.924 59.872-70.153 5.903-95.612 3.788-165.775-2.115-31.718-2.678-56.792-28.102-58.924-59.872-1.586-23.621-17.637-23.238-18.358-46.859-1.998-64.095-.834-128.201 3.461-192.296 2.132-31.769 27.206-57.193 58.924-59.872 70.163-5.903 140.315-5.903 210.468 0 31.718 2.678 56.792 28.102 58.924 59.872 4.296 64.095 5.46 128.201 3.461 192.296z" fill="#665e66"/><path d="m167.628 484.744c-4.986-.361-9.982-.742-14.968-1.164-31.718-2.678-56.792-28.102-58.924-59.872-1.586-23.621-17.637-23.238-18.358-46.859-1.998-64.095-.834-128.201 3.461-192.296 2.132-31.769 27.206-57.193 58.924-59.872 4.986-.422 9.982-.814 14.968-1.164-18.388 11.198-31.007 30.842-32.532 53.557-4.543 67.742-5.769 135.484-3.657 203.226.762 24.96 1.978 49.911 3.657 74.881 1.525 22.714 29.041 18.365 47.429 29.563z" fill="#544f57"/><path d="m410.616 376.848c-.721 23.621-1.885 47.232-3.461 70.853-2.132 31.769-27.206 57.193-58.924 59.872-65.167 5.48-130.333 5.872-195.5 1.164h-.103c-4.955-.361-9.91-.752-14.865-1.164-31.718-2.678-56.792-28.102-58.924-59.872-1.586-23.621-2.74-47.232-3.461-70.853 8.427-2.411 23.085-6.129 40.824-8.633 2.833-.402 5.748-.773 8.736-1.102 16.874-1.865 32.728 8.292 38.136 24.383 1.834 5.47 3.626 11.496 5.099 17.76 3.812 16.183 18.378 27.525 34.994 27.525h79.661c16.616 0 31.193-11.342 34.994-27.525 1.473-6.263 3.266-12.289 5.11-17.76 5.408-16.091 21.262-26.248 38.125-24.383 21.632 2.38 39.783 6.933 49.559 9.735z" fill="#e27d47"/><path d="m152.731 508.737h-.103c-4.955-.361-9.91-.752-14.865-1.164-31.718-2.678-56.792-28.102-58.924-59.872-1.586-23.621-2.74-47.232-3.461-70.853 8.427-2.411 23.085-6.129 40.824-8.633.721 28.988 2.06 57.976 3.997 86.964 1.525 22.716 14.144 42.36 32.532 53.558z" fill="#dd6938"/><path d="m336.214 160.352c-62.144-2.306-124.288-2.306-186.432 0-21.652.803-39.465 17.538-41.361 39.122-1.299 14.787-1.299 29.573 0 44.36 1.895 21.584 19.709 38.319 41.361 39.122 62.144 2.306 124.288 2.306 186.432 0 21.652-.803 39.465-17.538 41.361-39.122 1.299-14.787 1.299-29.573 0-44.36-1.896-21.583-19.71-38.318-41.361-39.122z" fill="#78d0b1"/><path d="m172.125 283.678c-7.448-.206-14.896-.443-22.344-.721-21.643-.804-39.465-17.543-41.36-39.125-1.298-14.793-1.298-29.575 0-44.358 1.895-21.592 19.717-38.321 41.36-39.125 7.448-.278 14.896-.515 22.344-.731-16.688 5.532-29.163 20.489-30.77 38.764-1.37 15.514-1.37 31.028 0 46.531 1.607 18.275 14.082 33.233 30.77 38.765z" fill="#66b49d"/><path d="m242.998 292.404c-31.24 0-62.48-.575-93.503-1.727-25.576-.949-46.543-20.797-48.771-46.167-1.332-15.166-1.332-30.546 0-45.712 2.228-25.37 23.195-45.218 48.771-46.167 62.044-2.303 124.961-2.303 187.005 0 25.576.949 46.543 20.797 48.771 46.167 1.332 15.166 1.332 30.546 0 45.712-2.228 25.37-23.195 45.218-48.771 46.167-31.022 1.152-62.262 1.727-93.502 1.727zm0-126.047c-31.049 0-62.098.572-92.929 1.716-17.807.661-32.403 14.451-33.951 32.077-1.254 14.269-1.254 28.739 0 43.008 1.548 17.626 16.144 31.416 33.951 32.077 61.663 2.288 124.195 2.288 185.858 0 17.807-.661 32.403-14.451 33.951-32.077 1.253-14.269 1.253-28.739 0-43.008-1.548-17.626-16.143-31.416-33.951-32.077-30.831-1.144-61.88-1.716-92.929-1.716z" fill="#544f57"/><g fill="#544f57"><path d="m279.994 335.6h-73.993c-4.267 0-7.726-3.459-7.726-7.726s3.459-7.726 7.726-7.726h73.993c4.267 0 7.726 3.459 7.726 7.726.001 4.267-3.458 7.726-7.726 7.726z"/><path d="m296.438 368.486h-106.88c-4.267 0-7.726-3.459-7.726-7.726s3.459-7.726 7.726-7.726h106.88c4.267 0 7.726 3.459 7.726 7.726s-3.459 7.726-7.726 7.726z"/><path d="m279.994 401.372h-73.993c-4.267 0-7.726-3.459-7.726-7.726s3.459-7.726 7.726-7.726h73.993c4.267 0 7.726 3.459 7.726 7.726.001 4.267-3.458 7.726-7.726 7.726z"/></g><g fill="#f9f6f9"><path d="m227.326 259.526h-14.303c-11.934 0-21.642-9.709-21.642-21.642v-36.912c0-11.934 9.709-21.642 21.642-21.642h14.303c11.934 0 21.642 9.709 21.642 21.642v36.912c.001 11.933-9.708 21.642-21.642 21.642zm-14.303-64.744c-3.413 0-6.19 2.777-6.19 6.19v36.912c0 3.413 2.777 6.19 6.19 6.19h14.303c3.413 0 6.19-2.777 6.19-6.19v-36.912c0-3.413-2.777-6.19-6.19-6.19z"/><path d="m293.604 259.526h-14.304c-11.934 0-21.642-9.709-21.642-21.642v-36.912c0-11.934 9.709-21.642 21.642-21.642h14.303c11.934 0 21.642 9.709 21.642 21.642v36.912c.001 11.933-9.708 21.642-21.641 21.642zm-14.304-64.744c-3.413 0-6.19 2.777-6.19 6.19v36.912c0 3.413 2.777 6.19 6.19 6.19h14.303c3.413 0 6.19-2.777 6.19-6.19v-36.912c0-3.413-2.777-6.19-6.19-6.19z"/><path d="m333.361 259.526c-4.267 0-7.726-3.459-7.726-7.726v-64.744c0-4.267 3.459-7.726 7.726-7.726s7.726 3.459 7.726 7.726v64.744c0 4.267-3.459 7.726-7.726 7.726z"/></g></g></svg>