<svg id="Capa_1" enable-background="new 0 0 512 512" height="512" viewBox="0 0 512 512" width="512" xmlns="http://www.w3.org/2000/svg"><g><g><path d="m176.813 456.552 10.948-56.969 68.239-25.422 68.239 25.422 10.948 56.969-79.187 17.814z" fill="#544f57"/><path d="m44.36 392.824c141.093 10.061 282.186 10.061 423.28 0 18.262-1.302 32.999-15.338 35.224-33.511 12.181-99.479 12.181-198.957 0-298.436-2.225-18.173-16.962-32.209-35.224-33.511-141.094-10.061-282.187-10.061-423.28 0-18.262 1.302-32.999 15.338-35.224 33.511-12.181 99.478-12.181 198.957 0 298.436 2.225 18.172 16.962 32.208 35.224 33.511z" fill="#665e66"/><path d="m53.454 393.453c-3.029-.206-6.057-.412-9.086-.628-18.265-1.308-33.007-15.34-35.232-33.512-12.177-99.485-12.177-198.959 0-298.444 2.225-18.172 16.967-32.203 35.232-33.512 3.029-.216 6.058-.423 9.086-.629-6.634 6.325-11.126 14.886-12.311 24.529-12.97 105.892-12.97 211.774 0 317.667 1.185 9.643 5.677 18.204 12.311 24.529z" fill="#544f57"/><path d="m36.329 323.481c.851 8.947 8.091 15.935 17.059 16.523 67.34 4.42 135.412 6.662 202.613 6.662s135.273-2.242 202.613-6.662c8.968-.589 16.208-7.577 17.059-16.523 8.187-86.083 7.028-173.003-3.483-258.848-.427-3.483-3.264-6.192-6.746-6.441-69.491-4.954-139.957-7.467-209.444-7.467s-139.953 2.513-209.442 7.467c-3.483.248-6.32 2.957-6.746 6.441-10.512 85.845-11.67 172.766-3.483 258.848z" fill="#f9f6f9"/><path d="m256 354.393c-67.272 0-135.611-2.247-203.119-6.679-12.833-.842-23.029-10.726-24.244-23.501 0-.001 0-.001 0-.001-8.237-86.604-7.057-174.255 3.506-260.518.875-7.142 6.706-12.698 13.866-13.208 69.674-4.968 140.325-7.487 209.991-7.487s140.317 2.519 209.991 7.487c7.16.511 12.991 6.066 13.866 13.208 10.563 86.263 11.742 173.913 3.506 260.519-1.215 12.776-11.411 22.659-24.244 23.502-67.508 4.431-135.847 6.678-203.119 6.678zm-211.98-31.643c.493 5.188 4.646 9.202 9.873 9.545 67.173 4.409 135.171 6.645 202.107 6.645s134.934-2.236 202.107-6.645c5.227-.343 9.38-4.357 9.873-9.545 8.121-85.395 6.97-171.814-3.424-256.874-69.202-4.927-139.365-7.424-208.556-7.424s-139.353 2.497-208.556 7.424c-10.394 85.059-11.545 171.478-3.424 256.874z" fill="#544f57"/><path d="m256 382.402c-4.267 0-7.726-3.459-7.726-7.726v-.515c0-4.267 3.459-7.726 7.726-7.726s7.726 3.459 7.726 7.726v.515c0 4.267-3.459 7.726-7.726 7.726z" fill="#544f57"/><path d="m376.953 492.18h-241.906c-9.838 0-17.814-7.976-17.814-17.814 0-9.838 7.976-17.814 17.814-17.814h241.906c9.838 0 17.814 7.976 17.814 17.814 0 9.838-7.976 17.814-17.814 17.814z" fill="#665e66"/><path d="m183.082 492.178h-48.037c-9.838 0-17.812-7.974-17.812-17.812 0-4.914 1.998-9.375 5.213-12.599 3.225-3.214 7.685-5.213 12.599-5.213h48.037c-4.924 0-9.374 1.999-12.599 5.213-3.225 3.224-5.213 7.685-5.213 12.599 0 9.838 7.974 17.812 17.812 17.812z" fill="#544f57"/></g><path d="m142.824 235.17h-65.354c3.492-14.814 16.792-25.837 32.677-25.837s29.185 11.023 32.677 25.837z" fill="#9dc6fb"/><path d="m123.168 285.57c-4.267 0-7.726-3.459-7.726-7.726s3.459-7.726 7.726-7.726h139.772l119.129-1.37 13.5-.001c9.501 0 17.231-7.73 17.231-17.231v-33.675c0-9.501-7.73-17.231-17.231-17.231h-212.766c-16.742 0-30.363-13.621-30.363-30.363v-43.796c0-16.742 13.621-30.363 30.363-30.363h181.539c4.267 0 7.726 3.459 7.726 7.726s-3.459 7.726-7.726 7.726h-181.539c-8.222 0-14.91 6.689-14.91 14.91v43.796c0 8.222 6.689 14.91 14.91 14.91h212.765c18.022 0 32.684 14.662 32.684 32.684v33.675c0 18.022-14.662 32.684-32.684 32.684h-13.411l-119.128 1.37z" fill="#c3bec6"/><path d="m76.573 250.622h67.147v51.89h-67.147z" fill="#9dc6fb"/><path d="m356.12 250.437h-67.145c-14.379 0-26.036 11.657-26.036 26.036 0 14.379 11.657 26.036 26.036 26.036h67.145c14.379 0 26.036-11.657 26.036-26.036 0-14.379-11.656-26.036-26.036-26.036z" fill="#9dc6fb"/><path d="m252.213 137.42c-2.418 0-4.798-1.131-6.305-3.252-2.471-3.479-1.654-8.302 1.824-10.774l27.56-19.579-27.56-19.58c-3.478-2.471-4.295-7.295-1.824-10.774 2.472-3.478 7.295-4.295 10.774-1.824l36.426 25.879c2.04 1.449 3.252 3.797 3.252 6.299s-1.212 4.85-3.252 6.299l-36.426 25.878c-1.358.964-2.921 1.428-4.469 1.428z" fill="#c3bec6"/><path d="m408.199 83.187-64.953 54.96c-.536-1.679-.824-3.472-.824-5.337v-33.336c0-9.715 7.871-17.585 17.585-17.585h41.557c2.349 0 4.585.464 6.635 1.298z" fill="#9dc6fb"/><path d="m419.15 99.474v33.337c0 9.715-7.871 17.596-17.585 17.596h-41.557c-2.122 0-4.162-.381-6.047-1.071l64.53-54.62c.432 1.513.659 3.11.659 4.758z" fill="#9dc6fb"/><g fill="#e27d47"><path d="m111.863 113.596h-38.026c-4.267 0-7.726-3.459-7.726-7.726s3.459-7.726 7.726-7.726h38.026c4.267 0 7.726 3.459 7.726 7.726s-3.459 7.726-7.726 7.726z"/><path d="m111.863 139.289h-38.026c-4.267 0-7.726-3.459-7.726-7.726s3.459-7.726 7.726-7.726h38.026c4.267 0 7.726 3.459 7.726 7.726s-3.459 7.726-7.726 7.726z"/><path d="m111.863 165.325h-38.026c-4.267 0-7.726-3.459-7.726-7.726s3.459-7.726 7.726-7.726h38.026c4.267 0 7.726 3.459 7.726 7.726s-3.459 7.726-7.726 7.726z"/></g><path d="m291.143 167.006-24.093 17.117-24.093-17.117c-7.314-5.196-17.443.033-17.443 9.005v33.748c0 8.971 10.129 14.2 17.443 9.005l24.093-17.117 24.093 17.117c7.314 5.196 17.443-.033 17.443-9.005v-33.748c0-8.972-10.129-14.201-17.443-9.005z" fill="#da4a54"/></g></svg>