<svg id="Capa_1" enable-background="new 0 0 512 512" height="512" viewBox="0 0 512 512" width="512" xmlns="http://www.w3.org/2000/svg"><g><path d="m332.738 328.545c-32.121 32.121-111.6 41.877-153.476 0-17.698-34.573-20.119-84.938-7.253-123.817 2.04-6.15 4.45-12.012 7.253-17.472 34.418-25.888 73.308-39.961 153.476 0 2.802 5.46 5.213 11.322 7.253 17.472 12.867 38.879 10.446 89.244-7.253 123.817z" fill="#da4a54"/><path d="m233.728 328.545-11.146 23.98-43.32-23.98c-20.501-40.051-20.501-101.237 0-141.289l44.005-28.63 10.46 28.63c-20.499 40.052-20.499 101.238.001 141.289z" fill="#d82e3d"/><path d="m337.125 0c-.124 18.677-1.597 37.344-4.389 56.032-53.446 4.326-106.881 4.326-160.327 0-2.802-18.688-4.265-37.355-4.389-56.032z" fill="#665e66"/><path d="m250.034 59.266c-25.868-.062-51.746-1.144-77.624-3.235-2.802-18.688-4.265-37.355-4.389-56.032h41.733c.062 18.677.804 37.344 2.225 56.032 12.692 2.03 25.373 3.101 38.055 3.235z" fill="#544f57"/><path d="m456.297 432.686-7.953 34.944-10.096 44.37h-371.349l-18.049-79.314 176.357-46.821 40.383-10.725 44.267 13.362z" fill="#c3bec6"/><path d="m448.344 467.63h-316.358l4.223 44.37h-69.31l-18.049-79.314 176.357-46.821 84.65 2.637 146.44 44.184z" fill="#b4acb7"/><g fill="#f9f6f9"><g><path d="m445.478 279.939.672-2.007c2.372-7.08 9.82-11.115 17.046-9.233l22.226 5.787c7.961 2.073 12.501 10.455 9.888 18.255l-1.671 4.988c-2.613 7.801-11.286 11.756-18.889 8.616l-21.227-8.768c-6.901-2.851-10.416-10.558-8.045-17.638z"/><path d="m450.344 209.744-.421-2.075c-1.486-7.317 2.947-14.536 10.146-16.519l22.142-6.101c7.931-2.185 16.054 2.804 17.691 10.865l1.047 5.155c1.637 8.062-3.896 15.824-12.051 16.906l-22.768 3.02c-7.402.983-14.3-3.934-15.786-11.251z"/></g><g><path d="m66.522 279.939-.672-2.007c-2.372-7.08-9.82-11.115-17.046-9.233l-22.226 5.787c-7.961 2.073-12.501 10.455-9.888 18.255l1.671 4.988c2.613 7.801 11.286 11.756 18.889 8.616l21.227-8.768c6.901-2.851 10.416-10.558 8.045-17.638z"/><path d="m61.656 209.744.421-2.075c1.486-7.317-2.947-14.536-10.146-16.519l-22.142-6.101c-7.931-2.185-16.054 2.804-17.691 10.865l-1.047 5.155c-1.637 8.062 3.896 15.824 12.051 16.906l22.768 3.02c7.402.983 14.3-3.934 15.786-11.251z"/></g></g><path d="m456.298 432.689h-407.448c-15.764 0-28.544-12.779-28.544-28.544v-47.056c0-15.764 12.779-28.544 28.544-28.544h407.448c15.764 0 28.544 12.779 28.544 28.544v47.056c0 15.764-12.78 28.544-28.544 28.544z" fill="#665e66"/><path d="m135.182 432.684h-86.329c-15.762 0-28.546-12.774-28.546-28.546v-47.049c0-15.772 12.784-28.546 28.546-28.546h86.329c-15.762 0-28.546 12.774-28.546 28.546v47.049c0 15.771 12.784 28.546 28.546 28.546z" fill="#544f57"/><path d="m374.437 107.728c-41.254.896-80.608 39.586-121.863 39.572-39.987-.014-81.875-38.704-121.862-39.572-11.317-.246-20.974-8.371-23.071-19.494-1.499-7.952-1.499-15.903 0-23.855 2.097-11.123 11.755-19.249 23.071-19.494 81.242-1.764 162.483-1.764 243.725 0 11.317.246 20.974 8.371 23.071 19.494 1.499 7.952 1.499 15.903 0 23.855-2.097 11.123-11.755 19.248-23.071 19.494z" fill="#c3bec6"/><path d="m192.095 108.718c-20.459-.216-40.919-.546-61.378-.989-11.322-.247-20.974-8.365-23.076-19.491-1.494-7.953-1.494-15.906 0-23.859 2.102-11.116 11.754-19.244 23.076-19.491 20.47-.443 40.939-.773 61.419-.989-9.849 1.999-17.781 9.766-19.697 19.913-1.566 8.334-1.566 16.658 0 24.992 1.916 10.137 9.828 17.905 19.656 19.914z" fill="#b4acb7"/><path d="m339.991 204.728h-167.982c2.04-6.15 4.45-12.012 7.253-17.472 34.418-25.888 73.308-39.961 153.476 0 2.802 5.46 5.213 11.322 7.253 17.472z" fill="#d82e3d"/><path d="m408.898 187.256h-312.647c-12.096 0-21.902-9.806-21.902-21.902v-36.108c0-12.096 9.806-21.902 21.902-21.902h312.647c12.096 0 21.902 9.806 21.902 21.902v36.108c0 12.096-9.806 21.902-21.902 21.902z" fill="#665e66"/><path d="m159.967 187.255h-63.717c-12.094 0-21.902-9.807-21.902-21.902v-36.108c0-12.094 9.807-21.902 21.902-21.902h63.717c-12.094 0-21.902 9.807-21.902 21.902v36.108c0 12.095 9.807 21.902 21.902 21.902z" fill="#544f57"/></g></svg>