<svg id="Capa_1" enable-background="new 0 0 512 512" height="512" viewBox="0 0 512 512" width="512" xmlns="http://www.w3.org/2000/svg"><g><path d="m303.847 415.453c-12.378-54.789-16.235-105.942-17.437-132.437-.542-11.957 2.981-23.739 10.004-33.431l21.317-29.422c6.538-9.024 10.058-19.882 10.058-31.026v-28.747h53.849v28.747c0 11.143 3.52 22.002 10.058 31.026l21.317 29.422c7.023 9.693 10.546 21.474 10.004 33.431-1.202 26.495-5.059 77.648-17.437 132.437l-58.849 16.955z" fill="#78d0b1"/><path d="m343.96 160.386v28.75c0 11.14-1.4 22-4.02 31.02l-8.51 29.42c-2.8 9.7-4.21 21.48-3.99 33.44.48 26.49 2.02 77.64 6.96 132.43h-30.55c-12.38-54.79-16.24-105.94-17.44-132.43-.54-11.96 2.98-23.74 10-33.44l21.32-29.42c6.54-9.02 10.06-19.88 10.06-31.02v-28.75z" fill="#66b49d"/><path d="m317.025 102.528h75.379v57.862h-75.379z" fill="#da4a54"/><path d="m317.025 102.528h27.713v57.862h-27.713z" fill="#d82e3d"/><path d="m85.356 415.453c-12.378-54.789-16.235-105.942-17.437-132.437-.542-11.957 2.981-23.739 10.004-33.431l21.317-29.422c6.538-9.024 10.058-19.882 10.058-31.026v-28.747h53.849v28.747c0 11.143 3.52 22.002 10.058 31.026l21.317 29.422c7.023 9.693 10.546 21.474 10.004 33.431-1.202 26.495-5.059 77.648-17.437 132.437l-49.373 23.892z" fill="#78d0b1"/><path d="m125.469 160.386v28.75c0 11.14-1.4 22-4.02 31.02l-8.51 29.42c-2.8 9.7-4.21 21.48-3.99 33.44.48 26.49 2.02 77.64 6.96 132.43h-30.55c-12.38-54.79-16.24-105.94-17.44-132.43-.54-11.96 2.98-23.74 10-33.44l21.32-29.42c6.54-9.02 10.06-19.88 10.06-31.02v-28.75z" fill="#66b49d"/><path d="m461.852 415.453h-411.703c-23.554 0-42.649 19.094-42.649 42.648 0 23.554 19.094 42.648 42.649 42.648h411.703c23.554 0 42.648-19.094 42.648-42.648 0-23.554-19.094-42.648-42.648-42.648z" fill="#c3bec6"/><g fill="#665e66"><path d="m461.852 508.25h-411.704c-27.652 0-50.148-22.497-50.148-50.148s22.496-50.148 50.148-50.148h411.703c27.652 0 50.148 22.497 50.148 50.148s-22.495 50.148-50.147 50.148zm-411.704-85.297c-19.38 0-35.148 15.768-35.148 35.149s15.768 35.148 35.148 35.148h411.703c19.381 0 35.148-15.768 35.148-35.148s-15.768-35.148-35.148-35.148h-411.703z"/><circle cx="50.149" cy="458.101" r="19.472"/><circle cx="461.851" cy="458.101" r="19.472"/><circle cx="379.511" cy="458.101" r="19.472"/><circle cx="297.17" cy="458.101" r="19.472"/><circle cx="214.83" cy="458.101" r="19.472"/><circle cx="132.489" cy="458.101" r="19.472"/></g><path d="m392.404 117.492h-75.379c-15.549 0-28.154-12.605-28.154-28.154v-38.687l60.855-24.941 70.831 24.941v38.687c0 15.549-12.604 28.154-28.153 28.154z" fill="#c3bec6"/><path d="m363.221 117.488h-46.2c-15.55 0-28.15-12.6-28.15-28.15v-38.69h46.2v38.69c0 15.551 12.6 28.15 28.15 28.15z" fill="#b4acb7"/><path d="m159.668 136.459h-46.888c-7.989 0-14.466 6.476-14.466 14.466 0 7.989 6.476 14.466 14.466 14.466h46.888c7.989 0 14.466-6.476 14.466-14.466-.001-7.99-6.477-14.466-14.466-14.466z" fill="#c3bec6"/><path d="m124.834 161.154c2.62 2.61 6.23 4.23 10.23 4.23h-22.28c-4 0-7.61-1.62-10.23-4.23-2.62-2.62-4.24-6.23-4.24-10.23 0-7.99 6.48-14.47 14.47-14.47h22.28c-7.99 0-14.47 6.48-14.47 14.47 0 4 1.62 7.61 4.24 10.23z" fill="#b4acb7"/><path d="m481.049 50.651h-450.098c-12.952 0-23.451-10.499-23.451-23.45 0-12.952 10.499-23.451 23.451-23.451h450.099c12.951 0 23.451 10.499 23.451 23.451-.001 12.951-10.5 23.45-23.452 23.45z" fill="#665e66"/></g></svg>