<svg id="Capa_1" enable-background="new 0 0 512 512" height="512" viewBox="0 0 512 512" width="512" xmlns="http://www.w3.org/2000/svg"><g><path d="m265.403 434.297h23.336c28.835 0 53.694 20.274 59.494 48.52l5.991 29.183h-245.6l5.992-29.183c5.799-28.245 30.659-48.52 59.494-48.52h23.336" fill="#f9f6f9"/><path d="m215.217 434.293c-28.835 0-53.693 20.274-59.493 48.522l-5.996 29.185h-41.104l5.985-29.185c5.8-28.247 30.668-48.522 59.503-48.522z" fill="#e2dfe2"/><path d="m200.293 480.752 31.131 31.248 31.131-31.248-10.295-34.749-52.072 4.567" fill="#da4a54"/><path d="m288.741 434.297-6.894 54.185-50.42-20.206h-.003l-50.42 20.206-6.894-54.185" fill="#e2dfe2"/><path d="m265.4 377.557v56.742c0 18.761-15.213 33.974-33.974 33.974-18.771 0-33.984-15.213-33.984-33.974v-56.742z" fill="#ffddce"/><path d="m242.522 466.42c-3.476 1.196-7.208 1.85-11.093 1.85-18.771 0-33.984-15.213-33.984-33.974v-56.742h22.186v56.742c0 14.887 9.569 27.534 22.891 32.124z" fill="#ffcbbe"/><path d="m89.482 330.309c-24.498 0-44.357-19.859-44.357-44.357 0-3.372.376-6.655 1.089-9.811 5.754-25.485 43.268-21.305 43.268 4.821h283.884c0-26.126 37.514-30.306 43.268-4.821.713 3.156 1.089 6.44 1.089 9.811 0 24.498-19.859 44.357-44.357 44.357" fill="#ffcbbe"/><path d="m89.488 302.735c-2.427 0-4.815-1.141-6.319-3.272-.167-.23-7.065-9.618-14.295-6.701-3.956 1.598-8.459-.317-10.056-4.274s.317-8.459 4.274-10.056c7.86-3.173 16.414-1.897 24.087 3.587 5.156 3.686 8.297 8.079 8.638 8.568 2.443 3.499 1.586 8.315-1.913 10.758-1.347.939-2.889 1.39-4.416 1.39z" fill="#eaac9d"/><path d="m373.359 302.735c-1.527 0-3.068-.451-4.415-1.391-3.499-2.442-4.356-7.259-1.913-10.758.341-.489 3.482-4.882 8.638-8.568 7.673-5.484 16.227-6.758 24.088-3.587 3.957 1.596 5.871 6.099 4.274 10.056-1.596 3.957-6.099 5.872-10.056 4.274-7.296-2.945-14.204 6.571-14.273 6.668-1.503 2.154-3.904 3.306-6.343 3.306z" fill="#eaac9d"/><path d="m197.443 377.557h67.958v52.274h-67.958z" fill="#ffcbbe"/><path d="m269.911 411.845h-76.974c-57.137 0-103.455-46.318-103.455-103.455v-44.815l15.821-101.093h249.379l18.684 101.093v44.815c0 57.137-46.318 103.455-103.455 103.455z" fill="#ffddce"/><path d="m344.483 190.006s-6.748 73.569 28.881 73.569v-90.903z" fill="#665e66"/><path d="m260.894 411.845h-67.958c-57.131 0-103.455-46.324-103.455-103.455v-44.815l15.821-101.099h52.136v145.914c.002 57.131 46.315 103.455 103.456 103.455z" fill="#ffcbbe"/><path d="m118.363 190.006s6.748 73.569-28.881 73.569v-90.903z" fill="#544f57"/><g fill="#544f57"><ellipse cx="158.604" cy="272.576" rx="13.391" ry="22.233"/><path d="m304.244 250.343c-7.384 0-13.391 9.974-13.391 22.233s6.008 22.233 13.391 22.233c7.384 0 13.391-9.974 13.391-22.233s-6.007-22.233-13.391-22.233z"/></g><path d="m231.427 346.535c-14.89 0-28.251-8.869-34.038-22.596-1.658-3.932.186-8.463 4.118-10.121 3.933-1.658 8.464.186 10.121 4.118 3.367 7.986 11.139 13.146 19.8 13.146s16.433-5.16 19.8-13.146c1.658-3.932 6.19-5.776 10.121-4.118 3.932 1.657 5.776 6.189 4.118 10.121-5.789 13.727-19.15 22.596-34.04 22.596z" fill="#da4a54"/><g fill="#eab1b7"><ellipse cx="315.035" cy="315.745" rx="23.235" ry="14.128"/><ellipse cx="147.813" cy="315.745" rx="23.235" ry="14.128"/></g><path d="m245.246 299.986h-27.644c-4.267 0-7.726-3.459-7.726-7.726s3.459-7.726 7.726-7.726h27.644c4.267 0 7.726 3.459 7.726 7.726s-3.459 7.726-7.726 7.726z" fill="#ffcbbe"/><path d="m386.139 118.609v71.393h-309.433v-71.393c0-33.82 18.321-63.377 45.588-79.245 10.142-5.92 21.521-9.938 33.657-11.573 4.059-.552 8.2-.838 12.412-.838h126.131c4.212 0 8.353.286 12.412.838 12.136 1.636 23.515 5.654 33.657 11.573 27.255 15.878 45.576 45.424 45.576 79.245z" fill="#f9f6f9"/><g fill="#e2dfe2"><path d="m340.561 39.364v35.006c0 9.293-7.535 16.828-16.828 16.828s-16.828-7.535-16.828-16.828v-46.58c12.135 1.637 23.514 5.655 33.656 11.574z"/><path d="m155.95 27.791v46.58c0 9.293-7.535 16.828-16.828 16.828s-16.828-7.535-16.828-16.828v-35.007c10.142-5.919 21.521-9.937 33.656-11.573z"/></g><path d="m189.768 144.918c-2.715-41.793-3.017-83.585-.905-125.378.472-8.572 7.96-16.976 16.566-18.03 17.329-2.014 34.659-2.014 51.988 0 8.608 1.054 16.093 9.458 16.566 18.03 2.113 41.793 1.811 83.585-.905 125.378l-48.146 17.564z" fill="#f9f6f9"/><path d="m210.272 16.258c-2.167 42.889-1.861 98.363.931 141.242l-21.439-12.585c-2.72-41.785-3.016-83.58-.9-125.374.47-8.568 7.954-16.972 16.563-18.035 4.948-.573 9.887-.982 14.825-1.217-5.553 3.404-9.632 9.641-9.98 15.969z" fill="#e2dfe2"/><path d="m210.018 26.955c-50.62 0-91.657 41.036-91.657 91.657v71.394h-41.658v-71.394c0-50.621 41.037-91.657 91.657-91.657z" fill="#e2dfe2"/><path d="m271.176 231.8h-79.506c-9.215 0-17.516-5.569-21.012-14.095l-8.859-21.61 69.624-25.588 69.624 25.588-8.859 21.61c-3.495 8.526-11.797 14.095-21.012 14.095z" fill="#f9f6f9"/><path d="m397.462 153.571v33.864c0 4.786-3.872 8.658-8.658 8.658h-314.766c-4.773 0-8.646-3.873-8.646-8.658v-33.864c0-4.773 3.872-8.658 8.646-8.658h314.766c4.785-.001 8.658 3.884 8.658 8.658z" fill="#f9f6f9"/><path d="m113.946 196.095h-39.909c-4.78 0-8.643-3.874-8.643-8.664v-33.862c0-4.77 3.863-8.654 8.643-8.654h39.909c-4.78 0-8.643 3.884-8.643 8.654v33.862c0 4.79 3.863 8.664 8.643 8.664z" fill="#e2dfe2"/><g><path d="m397.327 496.704h-40.319v-188.864h51.409l51.428 14.186c4.153 1.146 7.03 4.924 7.03 9.232 0 5.289-4.288 9.577-9.577 9.577h-59.971z" fill="#c3bec6"/><g fill="#f9f6f9"><path d="m368.101 374.2v41.962c0 5.671-4.597 10.268-10.268 10.268h-8.593c-5.671 0-10.268-4.597-10.268-10.268v-41.962c0-5.671 4.597-10.268 10.268-10.268h8.593c5.671 0 10.268 4.597 10.268 10.268z"/><path d="m466.875 371.665v3.401c0 3.407-2.231 6.413-5.492 7.4l-42.324 12.808c-3.261.987-5.492 3.992-5.492 7.4v16.023c0 4.27-3.461 7.731-7.731 7.731h-8.51c-4.27 0-7.731-3.461-7.731-7.731v-47.031c0-4.27 3.461-7.731 7.731-7.731h11.09 50.727c4.271-.001 7.732 3.46 7.732 7.73z"/></g></g><path d="m389.161 452.355h-31.142c-11.222 0-20.318 9.097-20.318 20.318v19.008c0 11.222 9.097 20.318 20.318 20.318h31.142c11.222 0 20.318-9.097 20.318-20.318v-19.008c.001-11.221-9.096-20.318-20.318-20.318z" fill="#ffddce"/><path d="m381.514 511.995h-23.488c-11.229 0-20.325-9.096-20.325-20.315v-19.007c0-11.229 9.097-20.325 20.325-20.325h23.488c-11.219 0-20.315 9.096-20.315 20.325v19.007c0 11.219 9.097 20.315 20.315 20.315z" fill="#ffcbbe"/></g></svg>