<svg id="Capa_1" enable-background="new 0 0 511.998 511.998" height="512" viewBox="0 0 511.998 511.998" width="512" xmlns="http://www.w3.org/2000/svg"><g><path d="m418.367 188.392c-79.635 5.195-159.278 5.195-238.921 0-8.761-47.26-8.761-94.512 0-141.773 25.207-1.646 50.422-2.765 75.629-3.368 14.128 5.344 41.768 11.466 41.768 11.466s31.265-6.122 45.895-11.466c25.207.603 50.422 1.723 75.629 3.368 8.761 47.261 8.761 94.513 0 141.773z" fill="#da4a54"/><path d="m211.182 190.184c-10.579-.5-21.158-1.103-31.737-1.792-8.761-47.26-8.761-94.512 0-141.773 10.579-.689 21.158-1.292 31.737-1.792-8.675 48.459-8.675 96.908 0 145.357z" fill="#d82e3d"/><path d="m342.738 43.251v76.646c0 7.71-8.796 12.129-14.981 7.521l-19.642-14.637c-5.462-4.066-12.948-4.066-18.418 0l-19.633 14.637c-6.185 4.609-14.99.189-14.99-7.521v-76.646c29.221-.706 58.443-.706 87.664 0z" fill="#f9f6f9"/><path d="m441.761 357.165c-95.23 6.212-190.469 6.212-285.709 0-10.477-56.515-10.477-113.021 0-169.536 30.143-1.968 60.296-3.307 90.439-4.028 34.944-.845 69.887-.845 104.831 0 30.143.721 60.296 2.06 90.439 4.028 10.476 56.515 10.476 113.021 0 169.536z" fill="#e27d47"/><path d="m194.003 359.308c-12.651-.598-25.301-1.319-37.952-2.143-10.477-56.515-10.477-113.021 0-169.536 12.65-.824 25.301-1.545 37.952-2.143-10.374 57.948-10.374 115.885 0 173.822z" fill="#dd6938"/><path d="m351.321 183.601v91.655c0 9.22-10.518 14.505-17.915 8.993l-23.488-17.503c-6.531-4.862-15.484-4.862-22.025 0l-23.478 17.503c-7.397 5.511-17.925.226-17.925-8.993v-91.655c34.944-.845 69.888-.845 104.831 0z" fill="#f9f6f9"/><path d="m86.383 408.605c-11.379 0-20.604-9.224-20.604-20.604v-312.786l-50.168-12.542c-11.039-2.76-17.751-13.946-14.991-24.985s13.948-17.751 24.985-14.991l65.775 16.443c9.172 2.293 15.607 10.534 15.607 19.988v328.873c-.001 11.38-9.225 20.604-20.604 20.604z" fill="#665e66"/><path d="m491.409 425h-417.539c-11.371 0-20.589-9.218-20.589-20.589v-26.652c0-11.371 9.218-20.589 20.589-20.589h417.539c11.371 0 20.589 9.218 20.589 20.589v26.652c0 11.371-9.218 20.589-20.589 20.589z" fill="#c3bec6"/><path d="m127.309 424.992h-53.435c-11.373 0-20.593-9.21-20.593-20.583v-26.651c0-11.373 9.22-20.593 20.593-20.593h53.435c-11.363 0-20.583 9.22-20.583 20.593v26.651c0 11.373 9.22 20.583 20.583 20.583z" fill="#b4acb7"/><g fill="#665e66"><circle cx="150.256" cy="444.386" r="45.536"/><circle cx="415.024" cy="444.386" r="45.536"/></g><g fill="#c3bec6"><circle cx="150.256" cy="444.386" r="16.37"/><circle cx="415.024" cy="444.386" r="16.37"/></g></g></svg>