<svg id="Capa_1" enable-background="new 0 0 512 512" height="512" viewBox="0 0 512 512" width="512" xmlns="http://www.w3.org/2000/svg"><g><circle cx="100.033" cy="124.428" fill="#665e66" r="100.033"/><path d="m110.827 223.882c-3.544.381-7.149.577-10.796.577-55.249-.001-100.031-44.783-100.031-100.031 0-55.249 44.782-100.031 100.031-100.031 3.647 0 7.253.196 10.796.577-50.18 5.378-89.245 47.852-89.245 99.454s39.065 94.076 89.245 99.454z" fill="#544f57"/><circle cx="100.033" cy="124.428" fill="#c3bec6" r="44.273"/><path d="m113.738 166.542c-4.306 1.401-8.921 2.163-13.701 2.163-24.457 0-44.277-19.821-44.277-44.277 0-24.446 19.821-44.267 44.277-44.267 4.78 0 9.395.762 13.701 2.163-17.75 5.769-30.576 22.437-30.576 42.103.001 19.677 12.826 36.346 30.576 42.115z" fill="#b4acb7"/><circle cx="411.967" cy="124.428" fill="#665e66" r="100.033"/><circle cx="411.967" cy="124.428" fill="#c3bec6" r="44.273"/><path d="m425.673 166.542c-4.306 1.401-8.921 2.163-13.701 2.163-24.457 0-44.277-19.821-44.277-44.277 0-24.446 19.821-44.267 44.277-44.267 4.78 0 9.395.762 13.701 2.163-17.75 5.769-30.576 22.437-30.576 42.103.001 19.677 12.826 36.346 30.576 42.115z" fill="#b4acb7"/><circle cx="256" cy="342.593" fill="#665e66" r="100.033"/><path d="m485.852 372.913c-7.194 0-14.18-3.774-17.966-10.487-20.825-36.929-51.082-67.939-87.502-89.676-37.472-22.365-80.483-34.186-124.384-34.186s-86.912 11.821-124.384 34.186c-36.42 21.737-66.677 52.747-87.502 89.676-5.588 9.911-18.154 13.418-28.066 7.826-9.912-5.589-13.416-18.155-7.827-28.067 24.341-43.167 59.708-79.412 102.277-104.819 43.854-26.175 94.169-40.01 145.503-40.01s101.649 13.835 145.503 40.01c42.568 25.407 77.936 61.653 102.277 104.819 5.59 9.912 2.086 22.478-7.827 28.067-3.199 1.804-6.674 2.661-10.102 2.661z" fill="#f9f6f9"/><g fill="#e2dfe2"><path d="m37.706 342.185c24.341-43.167 59.708-79.412 102.277-104.819 39.646-23.663 84.573-37.238 130.76-39.626-4.902-.253-9.818-.383-14.743-.383-51.334 0-101.649 13.835-145.503 40.01-42.568 25.406-77.936 61.652-102.277 104.818-5.59 9.912-2.086 22.478 7.827 28.067 8.319 4.693 18.492 2.958 24.856-3.574-6.225-6.384-7.798-16.333-3.197-24.493z"/><path d="m497.372 362.426c-20.825-36.929-51.083-67.939-87.502-89.676-37.472-22.365-80.483-34.186-124.384-34.186-4.928 0-9.844.157-14.743.453 38.744 2.342 76.376 13.879 109.641 33.733 36.42 21.737 66.677 52.747 87.502 89.676 3.786 6.713 10.772 10.487 17.966 10.487 3.428 0 6.902-.857 10.101-2.66 1.747-.985 3.284-2.197 4.618-3.563-1.218-1.251-2.301-2.672-3.199-4.264z"/></g><circle cx="256" cy="342.593" fill="#c3bec6" r="44.273"/><path d="m269.706 384.707c-4.306 1.401-8.921 2.163-13.701 2.163-24.457 0-44.277-19.821-44.277-44.277 0-24.446 19.821-44.267 44.277-44.267 4.78 0 9.395.762 13.701 2.163-17.75 5.769-30.576 22.437-30.576 42.103 0 19.677 12.826 36.346 30.576 42.115z" fill="#b4acb7"/><g fill="#f9f6f9"><g><path d="m372.889 436.309 2.107-.207c7.431-.73 14.158 4.419 15.394 11.783l3.803 22.65c1.362 8.113-4.432 15.683-12.619 16.486l-5.235.514c-8.187.804-15.343-5.494-15.584-13.717l-.675-22.957c-.219-7.463 5.378-13.822 12.809-14.552z"/><path d="m438.941 412.057 1.721-1.233c6.071-4.347 14.471-3.252 19.223 2.507l14.619 17.714c5.236 6.345 4.003 15.797-2.685 20.587l-4.277 3.063c-6.688 4.79-16.034 2.913-20.355-4.088l-12.063-19.544c-3.922-6.353-2.254-14.658 3.817-19.006z"/></g><g><path d="m139.111 436.309-2.107-.207c-7.431-.73-14.158 4.419-15.394 11.783l-3.803 22.65c-1.362 8.113 4.432 15.683 12.619 16.486l5.235.514c8.187.804 15.343-5.494 15.584-13.717l.675-22.957c.219-7.463-5.378-13.822-12.809-14.552z"/><path d="m73.059 412.057-1.721-1.233c-6.071-4.347-14.471-3.252-19.223 2.507l-14.619 17.714c-5.236 6.345-4.003 15.797 2.685 20.587l4.277 3.063c6.688 4.79 16.034 2.913 20.355-4.088l12.063-19.544c3.922-6.353 2.254-14.658-3.817-19.006z"/></g></g><g fill="#544f57"><path d="m422.762 223.882c-3.544.381-7.149.577-10.796.577-55.249 0-100.031-44.782-100.031-100.03 0-55.249 44.782-100.031 100.031-100.031 3.647 0 7.253.196 10.796.577-50.18 5.378-89.245 47.852-89.245 99.454s39.065 94.075 89.245 99.453z"/><path d="m266.794 442.046c-3.544.381-7.149.577-10.796.577-55.249 0-100.031-44.782-100.031-100.03 0-55.249 44.782-100.031 100.031-100.031 3.647 0 7.253.196 10.796.577-50.18 5.378-89.245 47.852-89.245 99.454s39.065 94.076 89.245 99.453z"/></g></g></svg>