<svg id="Capa_1" enable-background="new 0 0 512 512" height="512" viewBox="0 0 512 512" width="512" xmlns="http://www.w3.org/2000/svg"><g><g><path d="m127.488 512c-20.108 0-39.017-7.835-53.243-22.06-28.638-28.627-29.61-74.387-2.21-104.176.072-.078.146-.155.22-.229l31.765-31.765c2.974-2.973 7.793-2.972 10.765 0s2.972 7.792 0 10.764l-31.65 31.649c-21.749 23.765-20.939 60.189 1.873 82.992 11.351 11.351 26.437 17.602 42.48 17.602s31.129-6.251 42.48-17.601l163.596-163.597c23.638-23.626 62.096-23.625 85.73-.001 11.446 11.445 17.748 26.671 17.748 42.873 0 16.196-6.302 31.417-17.747 42.861l-66.351 66.352c-2.973 2.972-7.792 2.972-10.765 0-2.972-2.972-2.972-7.792 0-10.764l66.352-66.352c8.569-8.568 13.288-19.967 13.288-32.097 0-12.136-4.72-23.539-13.288-32.108-17.698-17.691-46.501-17.694-64.204.001l-163.596 163.596c-14.227 14.225-33.135 22.06-53.243 22.06z" fill="#c3bec6"/><path d="m464.786 6.745c-1.21-1.401-2.516-2.706-3.916-3.916-4.513-3.899-11.251-3.746-15.581.355-18.205 17.242-35.862 35.03-52.971 53.367 4.065 8.433 10.314 14.682 18.747 18.747 18.337-17.11 36.125-34.767 53.367-52.971 4.101-4.331 4.253-11.069.354-15.582z" fill="#f9f6f9"/><path d="m454.502 7.326c-19.206 18.919-38.248 37.989-57.139 57.225-1.953-2.398-3.633-5.069-5.048-8.006 17.11-18.331 34.773-36.123 52.974-53.362 4.186-3.971 10.634-4.244 15.143-.725-1.809 1.178-3.877 2.858-5.93 4.868z" fill="#e2dfe2"/><path d="m434.071 42.293c-2.703-3.129-5.619-6.045-8.749-8.748-10.082-8.71-25.133-8.369-34.806.792-40.668 38.516-80.113 78.255-118.334 119.217 9.08 18.839 23.04 32.798 41.879 41.879 40.962-38.221 80.701-77.666 119.217-118.334 9.162-9.673 9.502-24.725.793-34.806z" fill="#f9f6f9"/><path d="m280.634 167.77c-3.174-4.38-5.988-9.119-8.451-14.224 38.227-40.955 77.666-80.696 118.334-119.209 8.164-7.733 20.154-9.183 29.761-4.215-3.583 2.161-7.331 5.062-10.914 8.573-43.446 42.484-86.361 85.514-128.73 129.075z" fill="#e2dfe2"/><path d="m327.638 175.355c-11.013-12.572-22.806-24.364-35.378-35.378-9.17-8.033-22.844-8.029-31.957.069-20.121 17.88-38.735 37.267-55.84 58.162 19.022 24.274 40.67 45.922 64.944 64.944 20.895-17.105 40.283-35.719 58.162-55.84 8.097-9.113 8.102-22.787.069-31.957z" fill="#665e66"/><path d="m234.965 232.647c-10.82-10.82-20.987-22.294-30.501-34.436 17.103-20.894 35.72-40.287 55.839-58.165 9.119-8.099 22.789-8.099 31.958-.065 2.204 1.932 4.38 3.877 6.534 5.859-4.38 1.823-9.549 5.327-14.518 10.081-20.757 19.852-40.904 40.316-60.441 61.389 3.015 5.816 6.72 10.929 11.129 15.337z" fill="#544f57"/><path d="m142.199 419.743c-.309.136-.61.266-.912.395-14.626 6.211-31.571 2.865-42.807-8.372l-42.635-42.635c-11.237-11.237-14.583-28.182-8.365-42.8.122-.309.251-.61.388-.919 10.899-25.388 27.729-47.804 48.903-65.561 23.141-19.422 47.97-37.429 63.5-48.307 9.521-6.677 15.552-10.669 15.552-10.669l59.852 31.061 31.068 59.86s-4.014 6.053-10.713 15.609c-10.885 15.538-28.871 40.33-48.264 63.442-17.763 21.167-40.179 37.997-65.567 48.896z" fill="#da4a54"/><path d="m65.509 362.779c-2.491 3.439-4.538 6.778-6.096 9.916l-3.561-3.561c-11.237-11.237-14.583-28.181-8.372-42.807.129-.302.251-.61.388-.919 10.899-25.388 27.736-47.797 48.903-65.561 37.329-31.326 79.052-58.977 79.052-58.977l59.852 31.061-34.385-3.712s-39.899 33.997-77.716 69.301c-21.454 20.018-41.192 42.096-57.483 64.462-.194.266-.388.532-.582.797z" fill="#d82e3d"/><path d="m256.031 307.405-94.704-94.704c-.373-.373-.725-.754-1.055-1.156 9.521-6.677 15.552-10.669 15.552-10.669l59.852 31.061 31.068 59.86c-.001-.001-4.014 6.051-10.713 15.608z" fill="#d82e3d"/><path d="m300.241 267.698-100.325-100.325c-7.952-7.952-20.846-7.952-28.798 0-7.952 7.952-7.952 20.846 0 28.798l100.325 100.325c7.952 7.952 20.846 7.952 28.798 0 7.952-7.952 7.952-20.845 0-28.798z" fill="#da4a54"/><path d="m203.807 220.419c-.007 5.22 1.982 10.425 5.959 14.403l-38.65-38.65c-3.971-3.971-5.967-9.183-5.959-14.403-.007-5.205 1.989-10.418 5.967-14.396 7.948-7.948 20.843-7.948 28.792 0l38.65 38.65c-7.948-7.948-20.844-7.948-28.792 0-3.979 3.977-5.967 9.197-5.967 14.396z" fill="#d82e3d"/></g><g fill="#665e66"><path d="m344.568 147.716c-1.947 0-3.896-.743-5.383-2.229-2.972-2.972-2.972-7.792 0-10.764l11.481-11.481c2.973-2.972 7.792-2.972 10.765 0 2.972 2.972 2.972 7.792 0 10.764l-11.481 11.481c-1.486 1.486-3.435 2.229-5.382 2.229z"/><path d="m327.507 130.656c-1.947 0-3.896-.743-5.383-2.229-2.972-2.972-2.972-7.792 0-10.764l11.481-11.481c2.973-2.972 7.792-2.972 10.765 0 2.972 2.972 2.972 7.792 0 10.764l-11.481 11.481c-1.486 1.485-3.434 2.229-5.382 2.229z"/></g></g></svg>