<svg id="Capa_1" enable-background="new 0 0 512 512" height="512" viewBox="0 0 512 512" width="512" xmlns="http://www.w3.org/2000/svg"><g><path d="m512 268.885v212.773c0 4.902-1.988 9.341-5.196 12.549s-7.647 5.196-12.549 5.196c-9.803 0-17.745-7.941-17.745-17.745v-92.407c0-8.509-6.89-15.399-15.389-15.399h-.011c-3.482 0-6.7 1.157-9.277 3.114-3.713 2.798-6.111 7.258-6.111 12.286v61.556c0 5.197-2.104 9.888-5.501 13.296-3.408 3.398-8.11 5.501-13.296 5.501-10.382 0-18.797-8.415-18.797-18.797v-194.146l-81.447 5.838-99.413 7.121 33.018-170.141h82.309c93.565.001 169.405 75.852 169.405 169.405z" fill="#da4a54"/><path d="m451.833 275.079v101.887c-3.713 2.798-6.111 7.258-6.111 12.286v61.556c0 5.197-2.104 9.888-5.501 13.296-3.448 3.438-8.221 5.551-13.48 5.5-10.39-.1-18.613-8.893-18.613-19.283v-193.659l-81.447 5.838 7.626-62.144h42.803c41.268 0 74.723 33.454 74.723 74.723z" fill="#d82e3d"/><g><path d="m277.875 373.521c-63.073 62.939-165.418 62.939-228.484.007l-2.187-2.187c-62.939-63.074-62.939-165.418 0-228.492 26.903-26.962 54.899-52.831 83.996-77.599 10.659-9.082 21.473-18.022 32.429-26.806 7.326 5.868 14.571 11.804 21.763 17.807 65.074 54.319 124.763 114.008 179.082 179.082 6.003 7.192 11.938 14.437 17.807 21.763-8.784 10.956-17.725 21.771-26.806 32.429-24.769 29.097-50.637 57.093-77.6 83.996z" fill="#665e66"/><path d="m24.399 342.648c-38.892-62.367-31.283-145.589 22.805-199.796 36.765-36.84 75.576-71.649 116.425-104.406 19.279 15.456 38.097 31.373 56.461 47.744-40.224 36.356-79.481 73.679-117.749 111.992-48.711 48.77-77.369 104.547-77.942 144.466z" fill="#544f57"/><path d="m355.475 289.525c-.484-.394-.937-.819-1.383-1.265l-221.62-221.619c-.446-.446-.878-.907-1.272-1.391 10.659-9.082 21.473-18.022 32.429-26.806 7.326 5.868 14.571 11.804 21.763 17.807l179.082 179.082c6.003 7.192 11.938 14.437 17.807 21.763-8.784 10.956-17.725 21.77-26.806 32.429z" fill="#544f57"/><path d="m401.574 240.77-221.617-221.616c-8.743-8.743-22.917-8.743-31.659 0-8.743 8.743-8.743 22.917 0 31.659l221.617 221.617c8.743 8.743 22.917 8.743 31.659 0 8.743-8.743 8.743-22.917 0-31.66z" fill="#665e66"/><path d="m201.241 94.485c0 5.727 2.187 11.454 6.56 15.828l-59.503-59.503c-4.374-4.374-6.56-10.101-6.56-15.828.008-5.735 2.194-11.462 6.56-15.828 8.74-8.74 22.909-8.747 31.655 0l59.503 59.503c-8.74-8.74-22.916-8.74-31.655 0-4.366 4.366-6.553 10.093-6.56 15.828z" fill="#544f57"/></g></g></svg>