<svg id="Capa_1" enable-background="new 0 0 512 512" height="512" viewBox="0 0 512 512" width="512" xmlns="http://www.w3.org/2000/svg"><g><path d="m439.496 397.351-42.145 42.145-324.847-324.847 42.145-42.145 121.953 121.953 19.398 19.398 41.671 41.671.484.484z" fill="#da4a54"/><path d="m231.543 39.206h23.093v459.409h-23.093z" fill="#d82e3d" transform="matrix(.707 -.707 .707 .707 -118.949 250.653)"/><path d="m435.756 118.399-137.601 137.611-.484.474-41.661 41.671-19.398 19.388-118.213 118.214-42.155-42.156 106.675-106.675 30.936-30.926 42.145-42.145 11.064-11.074 126.537-126.538z" fill="#da4a54"/><path d="m230.951 20.115h27.141v448.811h-27.141z" fill="#d82e3d" transform="matrix(.707 .707 -.707 .707 244.521 -101.284)"/><path d="m297.681 256c0 .165 0 .319-.01.484-.165 22.51-12.424 42.145-30.596 52.735l-11.064-11.064-19.398 19.388c-.165.01-.319.01-.484.01-22.716 0-42.557-12.311-53.209-30.627l30.935-30.926-30.936-30.937c10.662-18.316 30.504-30.617 53.209-30.617.155 0 .319 0 .474.01l19.398 19.399 11.064-11.074c18.183 10.591 30.442 30.226 30.607 52.745.01.155.01.32.01.474z" fill="#d82e3d"/><path d="m256 0c-141.382 0-256 114.618-256 256s114.618 256 256 256 256-114.618 256-256-114.618-256-256-256zm0 436.004c-99.412 0-180.004-80.591-180.004-180.004s80.592-180.004 180.004-180.004 180.004 80.592 180.004 180.004-80.592 180.004-180.004 180.004z" fill="#da4a54"/><g fill="#d82e3d"><path d="m274.146 435.097c5.968.598 12.02.906 18.146.906 99.412 0 180.004-80.591 180.004-180.004s-80.592-180.003-180.005-180.003c-6.125 0-12.178.309-18.146.906 90.891 9.099 161.858 85.81 161.858 179.097s-70.967 169.999-161.857 179.098z"/><path d="m36.291 256c0-135.28 104.942-246.042 237.854-255.352-5.995-.42-12.043-.648-18.145-.648-141.382 0-256 114.618-256 256s114.618 256 256 256c6.102 0 12.15-.228 18.146-.648-132.913-9.31-237.855-120.072-237.855-255.352z"/></g><circle cx="256" cy="256" fill="#665e66" r="61.55"/><circle cx="256" cy="256" fill="#f9f6f9" r="27.921"/></g></svg>