<svg id="Capa_1" enable-background="new 0 0 512 512" height="512" viewBox="0 0 512 512" width="512" xmlns="http://www.w3.org/2000/svg"><g><g><path d="m257.447 70.162h-2.894c-10.208 0-18.673-7.904-19.372-18.089l-2.149-31.327c-.77-11.22 8.125-20.746 19.372-20.746h7.192c11.247 0 20.142 9.526 19.372 20.746l-2.149 31.327c-.698 10.184-9.163 18.089-19.372 18.089z" fill="#f9f48e"/></g><g><path d="m409.034 105.012-2.047-2.047c-7.218-7.218-7.615-18.793-.907-26.489l20.632-23.671c7.39-8.479 20.415-8.925 28.368-.972l5.086 5.086c7.953 7.953 7.507 20.978-.972 28.368l-23.671 20.632c-7.695 6.708-19.27 6.312-26.489-.907z" fill="#f9f48e"/></g><g fill="#f9f48e"><path d="m441.838 257.447v-2.894c0-10.208 7.904-18.673 18.089-19.372l31.327-2.149c11.221-.77 20.746 8.125 20.746 19.372v7.192c0 11.247-9.526 20.142-20.746 19.372l-31.327-2.149c-10.184-.698-18.089-9.163-18.089-19.372z"/><path d="m70.162 254.553v2.894c0 10.208-7.904 18.673-18.089 19.372l-31.327 2.149c-11.22.77-20.746-8.125-20.746-19.372v-7.192c0-11.247 9.526-20.142 20.746-19.372l31.327 2.149c10.184.698 18.089 9.163 18.089 19.372z"/></g><g><path d="m105.012 102.966-2.047 2.047c-7.218 7.218-18.793 7.615-26.489.907l-23.67-20.632c-8.479-7.39-8.925-20.415-.972-28.368l5.086-5.086c7.953-7.953 20.978-7.507 28.368.972l20.632 23.671c6.707 7.695 6.311 19.27-.908 26.489z" fill="#f9f48e"/></g><g><path d="m102.966 391.535 2.047 2.047c7.218 7.218 7.615 18.793.907 26.489l-20.632 23.671c-7.39 8.479-20.415 8.925-28.368.972l-5.086-5.086c-7.953-7.953-7.507-20.978.972-28.368l23.671-20.632c7.695-6.708 19.27-6.311 26.489.907z" fill="#f9f48e"/></g><g><path d="m406.988 393.582 2.047-2.047c7.218-7.218 18.793-7.615 26.489-.907l23.671 20.632c8.479 7.39 8.925 20.415.972 28.368l-5.086 5.086c-7.953 7.953-20.978 7.507-28.368-.972l-20.632-23.671c-6.708-7.696-6.312-19.271.907-26.489z" fill="#f9f48e"/></g><g><path d="m322.833 438.535c0-21.581 11.93-41.598 31.235-51.246 28.699-14.342 48.71-43.343 50.316-77.293 2.125-44.92 1.891-89.839-.701-134.759-2.263-39.214-33.697-70.485-72.911-72.743-49.253-2.836-98.507-2.836-147.76 0-39.214 2.258-70.648 33.529-72.911 72.743-2.592 44.92-2.826 89.839-.701 134.759 1.606 33.95 21.617 62.951 50.316 77.293 19.305 9.647 31.235 29.664 31.235 51.246l69.758 22.293z" fill="#ffef4a"/><g><path d="m274.08 377.571h-34.377c-13.081 0-23.685 10.604-23.685 23.685v37.28l37.875 9.164 43.872-9.164v-37.28c0-13.081-10.604-23.685-23.685-23.685z" fill="#e27d47"/><path d="m269.237 377.572c-13.083 0-23.684 10.601-23.684 23.684v44.425l-29.535-7.143v-37.282c0-13.083 10.601-23.684 23.684-23.684z" fill="#dd6938"/></g><path d="m214.066 445.928-23.117-7.386c0-21.582-11.93-41.599-31.235-51.251-28.701-14.34-48.717-43.34-50.314-77.295-2.132-44.916-1.895-89.832.701-134.758 2.256-39.209 33.697-70.485 72.906-72.741 1.937-.113 3.863-.216 5.8-.309-15.391 12.815-26.167 38.075-27.217 67.621-1.69 47.234-1.844 94.468-.464 141.712 1.051 35.696 14.041 66.189 32.667 81.271 12.402 10.033 20.108 30.729 20.273 53.136z" fill="#ffd321"/><path d="m284.746 512h-55.71c-21.035 0-38.087-17.052-38.087-38.087v-35.378h131.884v35.378c0 21.035-17.052 38.087-38.087 38.087z" fill="#c3bec6"/><path d="m269.912 511.997h-40.878c-21.036 0-38.086-17.05-38.086-38.086v-35.377h40.878v35.377c.001 21.037 17.05 38.086 38.086 38.086z" fill="#b4acb7"/><path d="m322.833 481.639h-131.884c-4.268 0-7.726-3.459-7.726-7.726s3.459-7.726 7.726-7.726h131.884c4.268 0 7.726 3.459 7.726 7.726s-3.458 7.726-7.726 7.726z" fill="#b4acb7"/><g><path d="m359.888 225.384c-1.151-3.592-4.318-6.161-8.059-6.645-4.734-.611-9.468-1.083-14.198-1.405-3.728-.259-6.951-2.637-8.377-6.093-.013-.038-.03-.076-.047-.115-1.431-3.452-.841-7.409 1.618-10.228 3.112-3.575 6.131-7.252 9.044-11.035 2.306-2.985 2.726-7.044.998-10.398-5.057-9.804-12.487-17.234-22.291-22.291-3.354-1.728-7.413-1.308-10.398.998-3.783 2.913-7.46 5.932-11.035 9.044-2.819 2.458-6.776 3.049-10.228 1.618-.038-.017-.076-.034-.115-.047-3.456-1.427-5.834-4.649-6.093-8.377-.323-4.73-.794-9.464-1.405-14.198-.484-3.741-3.053-6.908-6.645-8.059-10.509-3.354-21.021-3.354-31.53 0-3.592 1.151-6.161 4.318-6.645 8.059-.611 4.734-1.083 9.468-1.405 14.198-.259 3.728-2.637 6.951-6.093 8.377-.038.013-.076.03-.115.047-3.452 1.431-7.409.841-10.228-1.618-3.575-3.112-7.252-6.131-11.035-9.044-2.985-2.306-7.044-2.726-10.398-.998-9.804 5.057-17.234 12.487-22.291 22.291-1.728 3.354-1.308 7.413.998 10.398 2.913 3.783 5.932 7.46 9.044 11.035 2.458 2.819 3.049 6.776 1.618 10.228-.017.038-.034.076-.047.115-1.427 3.456-4.649 5.834-8.377 6.093-4.73.323-9.464.794-14.198 1.405-3.741.484-6.908 3.053-8.059 6.645-3.354 10.509-3.354 21.021 0 31.53 1.151 3.592 4.318 6.161 8.059 6.645 4.734.611 9.468 1.083 14.198 1.405 3.728.259 6.951 2.637 8.377 6.093.013.038.03.076.047.115 1.431 3.452.841 7.409-1.618 10.228-3.112 3.575-6.131 7.252-9.044 11.035-2.306 2.985-2.726 7.044-.998 10.398 5.057 9.804 12.487 17.234 22.291 22.291 3.354 1.728 7.413 1.308 10.398-.998 3.783-2.913 7.46-5.932 11.035-9.044 2.819-2.458 6.776-3.049 10.228-1.618.038.017.076.034.115.047 3.456 1.427 5.834 4.649 6.093 8.377.323 4.73.794 9.464 1.405 14.198.484 3.741 3.053 6.908 6.645 8.059 10.509 3.354 21.022 3.354 31.53 0 3.592-1.151 6.161-4.318 6.645-8.059.611-4.734 1.083-9.468 1.405-14.198.259-3.728 2.637-6.951 6.093-8.377.038-.013.076-.03.115-.047 3.452-1.431 7.409-.841 10.228 1.618 3.575 3.112 7.252 6.131 11.035 9.044 2.985 2.306 7.044 2.726 10.398.998 9.804-5.057 17.234-12.487 22.291-22.291 1.728-3.354 1.308-7.413-.998-10.398-2.913-3.783-5.932-7.46-9.044-11.035-2.458-2.819-3.049-6.776-1.618-10.228.017-.038.034-.076.047-.115 1.427-3.456 4.649-5.834 8.377-6.093 4.73-.323 9.464-.794 14.198-1.405 3.741-.484 6.908-3.053 8.059-6.645 3.355-10.509 3.355-21.021 0-31.53zm-102.997 58.674c-23.698 0-42.909-19.211-42.909-42.909s19.211-42.909 42.909-42.909 42.909 19.211 42.909 42.909-19.211 42.909-42.909 42.909z" fill="#f9f6f9"/><path d="m184.594 305.427c-1.728-3.495-1.308-7.724.998-10.836 2.913-3.94 5.932-7.775 9.044-11.498 2.458-2.938 3.049-7.061 1.618-10.658-.017-.042-.034-.081-.047-.123-1.427-3.601-4.649-6.076-8.377-6.348-4.73-.335-9.464-.828-14.199-1.465-3.741-.505-6.908-3.18-8.059-6.925-3.354-10.951-3.354-21.905 0-32.856 1.151-3.745 4.318-6.42 8.059-6.925 4.734-.637 9.469-1.129 14.199-1.465 3.728-.272 6.951-2.747 8.377-6.348.013-.042.03-.081.047-.123 1.431-3.596.841-7.719-1.618-10.658-3.112-3.724-6.131-7.558-9.044-11.498-2.306-3.112-2.726-7.341-.998-10.836 4.216-8.518 10.084-15.32 17.6-20.398-2.297-.637-4.794-.425-6.989.705-9.804 5.057-17.23 12.483-22.287 22.287-1.728 3.354-1.308 7.414.998 10.399 2.913 3.783 5.932 7.46 9.04 11.035 2.458 2.819 3.049 6.777 1.618 10.229-.017.038-.034.076-.047.115-1.427 3.456-4.645 5.834-8.373 6.093-4.73.323-9.464.794-14.199 1.405-3.741.484-6.908 3.053-8.059 6.645-3.354 10.509-3.354 21.022 0 31.531 1.151 3.592 4.318 6.161 8.059 6.645 4.734.611 9.469 1.083 14.199 1.405 3.728.259 6.947 2.637 8.373 6.093.013.038.03.076.047.115 1.431 3.452.841 7.409-1.618 10.229-3.108 3.575-6.127 7.252-9.04 11.035-2.306 2.985-2.726 7.044-.998 10.399 5.057 9.804 12.483 17.23 22.287 22.287 2.195 1.129 4.692 1.342 6.989.705-7.516-5.077-13.384-11.879-17.6-20.397zm61.563 34.656c-.611-4.934-1.083-9.868-1.405-14.797-.259-3.885-2.637-7.244-6.093-8.73-.038-.013-.076-.03-.115-.047-2.471-1.07-5.201-1.057-7.588-.025 1.219 1.516 1.979 3.384 2.119 5.401.323 4.73.794 9.464 1.405 14.199.484 3.741 3.053 6.908 6.645 8.059 2.607.832 5.218 1.461 7.825 1.881-1.506-1.571-2.508-3.652-2.793-5.941zm-5.031-201.932c-3.592 1.151-6.161 4.318-6.645 8.059-.611 4.734-1.083 9.469-1.405 14.199-.14 2.017-.9 3.885-2.119 5.401 2.386 1.032 5.116 1.045 7.588-.025.038-.017.076-.034.115-.047 3.456-1.486 5.834-4.845 6.093-8.73.323-4.93.794-9.864 1.405-14.797.285-2.289 1.287-4.369 2.794-5.94-2.608.419-5.219 1.047-7.826 1.88z" fill="#e2dfe2"/></g></g></g></svg>