<svg id="Capa_1" enable-background="new 0 0 512 512" height="512" viewBox="0 0 512 512" width="512" xmlns="http://www.w3.org/2000/svg"><g><path d="m442.386 512c0-13.612-8.344-33.36-13.499-44.263-2.548-5.39-7.01-9.639-12.524-11.905-34.018-13.983-92.961-21.768-139.441-21.768h-41.843c-46.48 0-105.423 7.785-139.442 21.768-5.514 2.267-9.976 6.516-12.524 11.905-5.156 10.903-13.499 30.651-13.499 44.263z" fill="#c3bec6"/><path d="m242.777 434.067c-29.391 0-66.673 7.788-88.183 21.768-3.482 2.266-6.305 6.521-7.922 11.909-3.255 10.899-8.53 30.648-8.53 44.257h-68.528c0-13.609 8.344-33.357 13.506-44.257 2.545-5.388 7.005-9.642 12.527-11.909 34.017-13.979 92.953-21.768 139.435-21.768z" fill="#b4acb7"/><circle cx="256" cy="227.891" fill="#e27d47" r="227.891"/><path d="m265.937 455.571c-3.297.144-6.614.216-9.941.216-125.857 0-227.886-102.029-227.886-227.897 0-125.857 102.029-227.886 227.886-227.886 3.327 0 6.645.072 9.941.216-121.263 5.193-217.966 105.141-217.966 227.671 0 122.54 96.703 222.488 217.966 227.68z" fill="#dd6938"/><circle cx="256" cy="227.891" fill="#f9f6f9" r="176.962"/><path d="m432.959 227.885c0 48.862-19.81 93.108-51.828 125.136l-31.503-31.503c25.858-25.858 38.776-59.751 38.776-93.633z" fill="#da4a54"/><path d="m287.579 288.89-14.169-34.338c6.653-6.915 10.752-16.307 10.752-26.661 0-20.961-16.767-37.994-37.619-38.448l-41.016-99.398c-3.255-7.889-12.288-11.645-20.179-8.39-7.889 3.256-11.645 12.29-8.39 20.179l41.016 99.397c-6.653 6.915-10.751 16.307-10.751 26.661 0 20.961 16.767 37.994 37.618 38.448l14.17 34.339c2.46 5.961 8.219 9.562 14.29 9.562 1.964 0 3.96-.377 5.888-1.172 7.889-3.256 11.645-12.29 8.39-20.179z" fill="#e2dfe2"/><path d="m271.074 404.217c-4.965.422-9.993.639-15.071.639-97.733 0-176.965-79.231-176.965-176.965s79.231-176.954 176.964-176.954c5.079 0 10.106.216 15.071.639-90.676 7.644-161.893 83.661-161.893 176.315s71.217 168.682 161.894 176.326z" fill="#e2dfe2"/><path d="m407.208 220.165h-11.358c-1.689-30.863-13.505-61.266-35.45-85.747l7.983-7.983c3.018-3.017 3.018-7.909 0-10.927-3.017-3.018-7.909-3.018-10.927 0l-7.982 7.982c-24.481-21.946-54.886-33.76-85.749-35.449v-11.358c0-4.267-3.459-7.726-7.726-7.726s-7.726 3.459-7.726 7.726v11.357c-30.863 1.689-61.267 13.503-85.749 35.449l-7.982-7.982c-3.017-3.018-7.909-3.017-10.927 0s-3.018 7.909 0 10.927l7.983 7.983c-21.945 24.481-33.761 54.884-35.45 85.747h-11.358c-4.267 0-7.726 3.459-7.726 7.726s3.459 7.726 7.726 7.726h11.36c1.689 30.863 13.497 61.271 35.442 85.752l-7.977 7.978c-3.018 3.017-3.018 7.909 0 10.927 3.017 3.018 7.909 3.018 10.927 0l13.292-13.292c3.018-3.017 3.018-7.909 0-10.927-48.613-48.613-48.614-127.712-.002-176.326l.002-.002.002-.002c48.613-48.611 127.712-48.611 176.325 0 .001.001.001.001.002.002s.001.001.002.002c48.612 48.614 48.611 127.713-.002 176.326-3.018 3.017-3.018 7.909 0 10.927l13.292 13.292c1.509 1.509 3.486 2.263 5.463 2.263s3.955-.754 5.463-2.263c3.018-3.017 3.018-7.909 0-10.927l-7.977-7.978c21.945-24.481 33.753-54.889 35.442-85.752h11.36c4.267 0 7.726-3.459 7.726-7.726s-3.457-7.725-7.724-7.725z" fill="#665e66"/><path d="m256 412.579c-101.838 0-184.689-82.851-184.689-184.688s82.851-184.689 184.689-184.689 184.689 82.851 184.689 184.689-82.851 184.688-184.689 184.688zm0-353.924c-93.317 0-169.236 75.919-169.236 169.236s75.919 169.236 169.236 169.236 169.236-75.919 169.236-169.236-75.919-169.236-169.236-169.236z" fill="#dd6938"/><path d="m283.609 310.241c-6.071 0-11.83-3.601-14.29-9.562l-82.053-198.845c-3.256-7.889.501-16.923 8.39-20.179 7.89-3.255 16.924.501 20.179 8.39l82.053 198.845c3.256 7.889-.501 16.923-8.39 20.179-1.929.795-3.925 1.172-5.889 1.172z" fill="#da4a54"/><path d="m294.189 306.036c-1.329 1.257-2.905 2.287-4.698 3.029-1.926.804-3.925 1.174-5.882 1.174-6.078 0-11.837-3.595-14.299-9.56l-82.044-198.846c-3.255-7.891.494-16.926 8.386-20.181 1.38-.567 2.802-.927 4.213-1.082-4.543 4.265-6.212 11.054-3.698 17.153l82.054 198.846c2.462 5.965 8.221 9.56 14.289 9.56.556 0 1.112-.031 1.679-.093z" fill="#d82e3d"/><circle cx="256" cy="227.891" fill="#9dc6fb" r="38.469"/><path d="m266.279 264.978c-3.276.907-6.717 1.391-10.281 1.391-21.242 0-38.467-17.225-38.467-38.477 0-21.242 17.225-38.467 38.467-38.467 3.564 0 7.005.484 10.281 1.391-16.256 4.492-28.196 19.388-28.196 37.076 0 17.687 11.939 32.594 28.196 37.086z" fill="#80b4fb"/></g></svg>