<svg id="Capa_1" enable-background="new 0 0 512 512" height="512" viewBox="0 0 512 512" width="512" xmlns="http://www.w3.org/2000/svg"><g><path d="m251.482 403.717c-4.142 0-7.5-3.358-7.5-7.5v-189.599c0-4.142 3.358-7.5 7.5-7.5s7.5 3.358 7.5 7.5v189.598c0 4.143-3.357 7.501-7.5 7.501z" fill="#80b4fb"/><path d="m413.662 171.632c4.118-9.124 36.419-11.655 36.711-21.074.302-9.764-31.92-14.322-35.321-23.318-3.4-8.996 17.75-33.728 11.065-40.851-6.449-6.871-32.348 12.597-41.471 8.479-9.124-4.118-11.655-36.419-21.074-36.711-9.764-.302-14.322 31.92-23.318 35.321-8.996 3.4-33.728-17.75-40.851-11.065-6.871 6.449 12.597 32.348 8.479 41.471-4.118 9.124-36.419 11.655-36.711 21.074-.302 9.764 31.92 14.322 35.321 23.318 3.4 8.996-17.75 33.728-11.065 40.851 6.449 6.871 32.348-12.597 41.471-8.479 9.124 4.118 11.655 36.419 21.074 36.711 9.764.302 14.322-31.92 23.318-35.321 8.996-3.4 33.728 17.75 40.851 11.065 6.871-6.448-12.597-32.347-8.479-41.471z" fill="#ffef4a"/><path d="m485.496 307.533c-49.572-21.399-101.646-27.751-101.646-27.751-4.969-30.818-20.343-64.602-27.795-79.708-2.508-5.084-7.341-8.644-12.953-9.449-60.324-8.653-116.816-2.559-154.982 4.527-30.27 5.6-49.02 11.84-49.02 11.84-27.94 39.9-46.56 99.39-46.56 99.39-16.807 5.252-40.257 15.482-49.373 19.551-2.348 1.048-3.843 3.395-3.812 5.966.062 5.255.237 10.355.505 15.273l26.08-3.88 3.99 29.93-26.89 6.43c3.12 22.08 7.11 35.8 7.11 35.8h31.75c0-27.95 19.15-51.42 45.05-58.01 4.74-1.2 9.7-1.84 14.81-1.84 33.06 0 59.85 26.79 59.85 59.85h109.09c0-33.06 26.8-59.85 59.86-59.85s59.85 26.79 59.85 59.85h31.44c9.63-12.65 16.03-26.29 20.24-39.44-10.971-1.492-19.235-11.478-17.96-23.116 1.144-10.449 10.171-18.518 20.682-18.584 1.618-.01 3.195.16 4.708.5.54-9.803.156-17.552-.196-21.899-.192-2.363-1.652-4.441-3.828-5.38zm-127.466 18.938c-33.51 4.7-61.15 27.94-72.18 58.98h-59.39c-12.38-34.84-45.67-59.85-84.7-59.85-3.68 0-7.3.23-10.87.66-4.8.57-9.49 1.54-14.03 2.85l4.31-13.77c.16-.49 15.07-47.5 36.91-82.65 3.01-.82 6.68-1.77 10.94-2.8 23.38-5.64 64.67-13.52 112.62-13.52 17.26 0 34.16 1.02 50.43 3.04 7.23 15.37 18.39 41.73 22.16 65.15 0 0 4.42 36.03 3.8 41.91z" fill="#9dc6fb"/><path d="m188.12 195.151c-4.91 8.39-11.75 20.5-19.1 34.74-4.26 1.03-7.93 1.98-10.94 2.8-21.84 35.15-36.75 82.16-36.91 82.65l-4.31 13.77c4.54-1.31 9.23-2.28 14.03-2.85-2.52 11.02-3.97 21.57-3.94 31.18-25.9 6.59-45.05 30.06-45.05 58.01h-31.75s-3.99-13.72-7.11-35.8l26.89-6.43-3.99-29.93-26.08 3.88c-.268-4.919-.443-10.018-.505-15.273-.03-2.571 1.464-4.918 3.812-5.966 9.116-4.069 32.566-14.298 49.373-19.551 0 0 18.62-59.49 46.56-99.39 0 0 18.75-6.24 49.02-11.84z" fill="#80b4fb"/><path d="m461.852 415.454h-411.703c-23.554 0-42.649 19.094-42.649 42.648 0 23.554 19.094 42.649 42.649 42.649h411.703c23.554 0 42.648-19.094 42.648-42.649 0-23.553-19.094-42.648-42.648-42.648z" fill="#c3bec6"/><path d="m461.85 508.251h-411.7c-13.398 0-25.992-5.216-35.463-14.687-9.471-9.47-14.687-22.064-14.687-35.463 0-27.653 22.497-50.15 50.15-50.15h411.7c13.386 0 25.979 5.215 35.46 14.683 9.475 9.473 14.69 22.068 14.69 35.467 0 27.653-22.497 50.15-50.15 50.15zm-411.7-85.3c-19.382 0-35.15 15.768-35.15 35.15 0 9.391 3.656 18.219 10.293 24.856 6.638 6.638 15.465 10.293 24.856 10.293h411.7c19.382 0 35.15-15.768 35.15-35.15 0-9.392-3.655-18.219-10.293-24.857-6.646-6.637-15.475-10.293-24.857-10.293h-411.699z" fill="#b4acb7"/><path d="m348.42 159.832c-5.952-5.952-5.952-15.602 0-21.553l38.133-38.133 21.553 21.553-38.133 38.133c-5.952 5.952-15.602 5.952-21.553 0z" fill="#665e66"/><path d="m374.05 134.202c-13.506-13.506-13.506-35.404 0-48.91l71.411-71.411 48.91 48.91-71.411 71.411c-13.507 13.506-35.404 13.506-48.91 0z" fill="#da4a54"/><path d="m374.046 134.199c-13.506-13.506-13.506-35.398 0-48.904l71.415-71.415 15.804 15.804-71.415 71.415c-13.505 13.506-20.577 28.327-15.804 33.1z" fill="#d82e3d"/><path d="m503.67 45.831c-1.36 6.22-4.47 12.12-9.3 16.96-13.51 13.51-35.4 13.51-48.91 0-4.84-4.84-7.94-10.74-9.3-16.96-1.11-4.94-1.11-10.06 0-15 1.36-6.21 4.46-12.12 9.3-16.95 13.51-13.51 35.4-13.51 48.91 0 4.83 4.83 7.93 10.74 9.3 16.95 1.11 4.94 1.11 10.06 0 15z" fill="#665e66"/><path d="m503.67 45.831h-67.51c-1.11-4.94-1.11-10.06 0-15h67.51c1.11 4.94 1.11 10.06 0 15z" fill="#544f57"/><path d="m148.647 214.01c11.089.432 27.141 32.564 36.94 28.941 10.157-3.756 1.422-38.76 9.248-46s42.045 4.19 46.579-5.644c4.374-9.487-26.414-27.989-25.982-39.077.432-11.089 32.564-27.141 28.941-36.94-3.756-10.157-38.76-1.422-46-9.248s4.19-42.045-5.644-46.579c-9.487-4.374-27.989 26.414-39.077 25.982-11.089-.432-27.141-32.564-36.94-28.941-10.157 3.756-1.422 38.76-9.248 46s-42.045-4.19-46.579 5.644c-4.374 9.487 26.414 27.989 25.982 39.077-.432 11.089-32.564 27.141-28.941 36.94 3.756 10.157 38.76 1.422 46 9.248s-4.19 42.045 5.644 46.579c9.487 4.374 27.988-26.414 39.077-25.982z" fill="#ffef4a"/><path d="m163.581 159.832c-5.952 5.952-15.602 5.952-21.553 0l-38.133-38.133 21.553-21.553 38.133 38.133c5.951 5.951 5.951 15.601 0 21.553z" fill="#665e66"/><path d="m137.95 134.202c-13.506 13.506-35.404 13.506-48.91 0l-71.411-71.412 48.91-48.91 71.411 71.411c13.506 13.507 13.506 35.405 0 48.911z" fill="#da4a54"/><path d="m137.948 134.205c-13.506 13.506-35.398 13.506-48.904 0l-71.414-71.415 15.804-15.804 71.415 71.415c13.505 13.506 28.326 20.577 33.099 15.804z" fill="#d82e3d"/><path d="m66.54 62.791c-4.84 4.84-10.74 7.94-16.96 9.3-4.94 1.11-10.06 1.11-15 0-6.21-1.36-12.12-4.46-16.95-9.3-13.51-13.51-13.51-35.4 0-48.91 4.83-4.83 10.74-7.93 16.95-9.3 4.94-1.11 10.06-1.11 15 0 6.22 1.36 12.12 4.47 16.96 9.3 13.51 13.51 13.51 35.4 0 48.91z" fill="#665e66"/><path d="m49.58 4.581v67.51c-4.94 1.11-10.06 1.11-15 0v-67.51c4.94-1.11 10.06-1.11 15 0z" fill="#544f57"/><g fill="#665e66"><circle cx="50.149" cy="458.103" r="19.472"/><circle cx="461.851" cy="458.103" r="19.472"/><circle cx="379.511" cy="458.103" r="19.472"/><circle cx="297.17" cy="458.103" r="19.472"/><circle cx="214.83" cy="458.103" r="19.472"/><circle cx="132.489" cy="458.103" r="19.472"/></g></g></svg>