<svg id="Capa_1" enable-background="new 0 0 512 512" height="512" viewBox="0 0 512 512" width="512" xmlns="http://www.w3.org/2000/svg"><g><path d="m58.184 140.408 58.923-94.551 52.071 19.184 47.96-65.039 54.813 33.522 43.849-19.184 52.072 52.071 45.219-17.814 39.739 91.811-197.323 20.134z" fill="#665e66"/><path d="m117.11 45.858 16.039 94.55h-74.965z" fill="#544f57"/><path d="m413.089 48.598-17.297 91.81h-238.434l34.254-50.695-22.437-24.673 47.964-65.035 18.657 84.701 36.159-51.179 43.844-19.182-26.898 83.588 63.954 9.797 15.02-41.32z" fill="#544f57"/><path d="m448.157 321.385c-1.247 4.883-3.534 9.457-6.676 13.413-10.734 13.495-39.27 45.657-83.836 69.423h-204.273c-44.565-23.766-73.101-55.928-83.836-69.423-3.152-3.956-5.429-8.53-6.686-13.413-12.414-48.521-14.536-92.025-14.422-117.409.062-14.68.876-23.303.876-23.303l173.801-16.967 32.399-3.163 32.399 3.163 173.811 16.967s.803 8.612.865 23.303c.124 25.373-2.009 68.888-14.422 117.409z" fill="#e27d47"/><path d="m462.579 203.976h-414.151c.062-14.68.876-23.303.876-23.303l173.801-16.967h64.798l173.811 16.967c0 .001.803 8.613.865 23.303z" fill="#dd6938"/><path d="m186.311 404.216h-32.945c-44.566-23.766-73.101-55.928-83.836-69.423-3.142-3.956-5.429-8.53-6.676-13.413-19.604-76.593-13.557-140.711-13.557-140.711l29.952-20.13 36.566 20.13s-4.09 64.118 9.179 140.711c.855 4.883 2.4 9.457 4.522 13.413 7.274 13.495 26.61 45.657 56.795 69.423z" fill="#dd6938"/><g fill="#665e66"><circle cx="153.272" cy="427.738" r="43.678"/><circle cx="357.742" cy="427.738" r="43.678"/></g><g fill="#544f57"><path d="m161.494 470.645c-2.668.505-5.419.773-8.231.773-24.117 0-43.669-19.563-43.669-43.68 0-24.127 19.553-43.68 43.669-43.68 2.812 0 5.563.268 8.231.773-20.192 3.843-35.459 21.593-35.459 42.907 0 21.304 15.267 39.065 35.459 42.907z"/><path d="m365.964 470.645c-2.668.505-5.419.773-8.231.773-24.117 0-43.669-19.563-43.669-43.68 0-24.127 19.553-43.68 43.669-43.68 2.812 0 5.563.268 8.231.773-20.192 3.843-35.459 21.593-35.459 42.907 0 21.304 15.268 39.065 35.459 42.907z"/></g><circle cx="153.272" cy="427.738" fill="#c3bec6" r="17.733"/><circle cx="357.742" cy="427.738" fill="#c3bec6" r="17.733"/><path d="m375.475 427.738c0 9.787-7.932 17.729-17.729 17.729-1.38 0-2.73-.155-4.018-.464 7.85-1.823 13.701-8.86 13.701-17.266s-5.851-15.453-13.701-17.276c1.288-.309 2.637-.464 4.018-.464 9.796.001 17.729 7.944 17.729 17.741z" fill="#b4acb7"/><path d="m171.004 427.738c0 9.787-7.932 17.729-17.729 17.729-1.38 0-2.73-.155-4.018-.464 7.85-1.823 13.701-8.86 13.701-17.266s-5.851-15.453-13.701-17.276c1.288-.309 2.637-.464 4.018-.464 9.797.001 17.729 7.944 17.729 17.741z" fill="#b4acb7"/><path d="m475.072 140.408h-439.131c-8.634 0-15.633 6.999-15.633 15.633v9.003c0 8.634 6.999 15.633 15.633 15.633h439.131c8.634 0 15.633-6.999 15.633-15.633v-9.003c0-8.634-6.999-15.633-15.633-15.633z" fill="#f9f6f9"/><path d="m84.241 180.672h-48.305c-8.633 0-15.628-6.995-15.628-15.628v-9.004c0-8.633 6.995-15.638 15.628-15.638h48.305c-8.633 0-15.628 7.005-15.628 15.638v9.004c.001 8.633 6.995 15.628 15.628 15.628z" fill="#e2dfe2"/><path d="m491.706 471.416h-471.415c-11.206 0-20.291 9.085-20.291 20.291 0 11.206 9.085 20.291 20.291 20.291h471.415c11.206 0 20.291-9.085 20.291-20.291-.001-11.206-9.085-20.291-20.291-20.291z" fill="#c3bec6"/><path d="m512 491.704c0 11.208-9.086 20.294-20.294 20.294h-471.408c-5.604 0-10.673-2.277-14.35-5.944s-5.944-8.746-5.944-14.35c0-3.739 1.02-7.263 2.802-10.271.865 1.483 1.926 2.854 3.142 4.059 3.678 3.667 8.746 5.944 14.35 5.944h471.408c7.448 0 13.969-4.018 17.492-10.003 1.782 3.008 2.802 6.531 2.802 10.271z" fill="#b4acb7"/></g></svg>