<svg id="Capa_1" enable-background="new 0 0 512 512" height="512" viewBox="0 0 512 512" width="512" xmlns="http://www.w3.org/2000/svg"><g><g><path d="m424.93 401.98c-112.62 8.39-225.24 8.39-337.86 0-9.6-59.11-11.76-118.22-6.47-177.34 1.53-17.15 3.69-34.3 6.47-51.45 74.46-5.54 148.92 12.857 223.38 14.636 38.16.92 76.32-17.476 114.48-14.636 12.39 76.27 12.39 152.53 0 228.79z" fill="#e27d47"/><path d="m126.252 170.625c-8.48 77.98-8.48 155.96 0 233.93-13.06-.74-26.12-1.6-39.18-2.57-12.39-76.26-12.39-152.52 0-228.79 13.06-.97 26.12-1.83 39.18-2.57z" fill="#dd6938"/><path d="m406.31 196.03s-11 31.24-50.9 69.81c0 0-54.45 11.98-118.03 11.98s-118.02-11.98-118.02-11.98c-18.59-17.96-30.91-26.51-38.76-41.2 1.53-17.15 3.69-34.3 6.47-51.45 74.46-5.54 77.017 35.397 151.477 37.177 35.2 14.44 140.583-16.357 167.763-14.337z" fill="#dd6938"/><path d="m424.93 173.19s-11 41.24-50.9 79.81c0 0-54.45 11.98-118.03 11.98s-118.02-11.98-118.02-11.98c-39.9-38.57-50.91-79.81-50.91-79.81 112.62-8.38 225.24-8.38 337.86 0z" fill="#eaaa89"/></g><path d="m461.852 401.983h-411.703c-23.554 0-42.649 19.094-42.649 42.648 0 23.554 19.094 42.648 42.649 42.648h411.703c23.554 0 42.648-19.094 42.648-42.648 0-23.553-19.094-42.648-42.648-42.648z" fill="#c3bec6"/><path d="m461.85 494.78h-411.7c-13.398 0-25.993-5.216-35.464-14.687-9.47-9.47-14.686-22.064-14.686-35.463 0-27.653 22.497-50.15 50.15-50.15h411.7c13.398 0 25.993 5.216 35.464 14.687 9.471 9.47 14.687 22.064 14.687 35.463-.001 27.653-22.498 50.15-50.151 50.15zm-411.7-85.3c-19.382 0-35.15 15.768-35.15 35.15 0 9.392 3.655 18.219 10.293 24.857s15.466 10.293 24.857 10.293h411.7c19.382 0 35.15-15.768 35.15-35.15 0-9.392-3.655-18.219-10.293-24.856-6.638-6.638-15.466-10.293-24.857-10.293h-411.7z" fill="#b4acb7"/><g fill="#665e66"><circle cx="50.149" cy="444.632" r="19.472"/><circle cx="461.851" cy="444.632" r="19.472"/><circle cx="379.511" cy="444.632" r="19.472"/><circle cx="297.17" cy="444.632" r="19.472"/><circle cx="214.83" cy="444.632" r="19.472"/><circle cx="132.489" cy="444.632" r="19.472"/></g><g><g><path d="m257.405 85.322h-2.809c-9.909 0-18.125-7.672-18.804-17.558l-2.086-30.407c-.747-10.891 7.886-20.138 18.803-20.138h6.981c10.917 0 19.551 9.246 18.803 20.138l-2.086 30.407c-.677 9.886-8.894 17.558-18.802 17.558z" fill="#f9f48e"/></g><g fill="#f9f48e"><path d="m338.191 105.019-1.982-1.991c-6.991-7.022-7.35-18.259-.822-25.713l20.078-22.93c7.192-8.213 19.836-8.618 27.538-.881l4.925 4.948c7.702 7.737 7.24 20.379-1.006 27.533l-23.021 19.974c-7.485 6.493-18.719 6.082-25.71-.94z"/><path d="m173.809 105.019 1.982-1.991c6.991-7.022 7.35-18.259.822-25.713l-20.078-22.93c-7.192-8.213-19.836-8.618-27.538-.881l-4.925 4.948c-7.702 7.737-7.24 20.379 1.006 27.533l23.021 19.974c7.485 6.493 18.719 6.082 25.71-.94z"/></g></g></g></svg>