<svg id="Capa_1" enable-background="new 0 0 512 512" height="512" viewBox="0 0 512 512" width="512" xmlns="http://www.w3.org/2000/svg"><g><path d="m490.84 398.278c-1.04 29.391-5.172 75.904-19.79 113.722h-430.1c-14.619-37.818-18.75-84.331-19.79-113.722-.628-17.451-.165-28.866-.165-28.866l188.76-31.894 38.106-6.439 40.836 6.439 202.307 31.894c.001.001.465 11.415-.164 28.866z" fill="#f9f6f9"/><path d="m415.948 458.474c-39.885 2.306-79.771 2.306-119.656 0-11.644-.673-21.061-9.696-22.231-21.301-2.387-23.68-2.387-47.359 0-71.039 1.17-11.605 10.586-20.628 22.231-21.301 39.885-2.306 79.771-2.306 119.656 0 11.644.673 21.061 9.696 22.231 21.301 2.387 23.679 2.387 47.359 0 71.039-1.17 11.605-10.586 20.628-22.231 21.301z" fill="#e2dfe2"/><path d="m97.135 512h-56.186c-23.292-60.255-19.955-142.587-19.955-142.587l56.021-9.467c-.123 28.154 1.453 103.769 20.12 152.054z" fill="#e2dfe2"/><path d="m427.958 308.653-218.203 28.866-178.458-28.866c-5.285-13.732-7.726-31.482-3.935-54.198l44.483 11.919s-39.291-46.307 9.715-105.789l32.564 32.564s-10.868-59.751 61.306-86.762l11.919 44.493s15.401-43.051 69.146-46.142c8.19-.484 17.276-.031 27.331 1.648l-11.919 44.493c0-.01 23.282-19.759 58.02-13.784 14.258 2.442 30.452 9.231 47.769 23.488l-32.564 32.564s59.751-10.868 86.762 61.306l-44.483 11.919c-.001.002 28.113 10.067 40.547 42.281z" fill="#c3bec6"/><path d="m329.926 137.096-105.996 171.557h-93.427l125.991-203.914c8.19-.484 17.276-.031 27.331 1.648l-11.919 44.493c0-.01 23.282-19.759 58.02-13.784z" fill="#e2dfe2"/><path d="m299.51 308.652-74.94 25.172-64.835-25.172c0-38.591 31.287-69.887 69.888-69.887s69.887 31.296 69.887 69.887z" fill="#544f57"/><path d="m490.84 398.278h-469.68c-.628-17.451-.165-28.866-.165-28.866l188.76-31.894h78.943l202.307 31.894c0 .001.464 11.415-.165 28.866z" fill="#e2dfe2"/><path d="m512 348.425c0 11.593-9.398 20.991-20.991 20.991h-36.679-128.443-139.774-128.443-36.679c-11.593 0-20.991-9.398-20.991-20.991v-18.783c0-11.593 9.398-20.991 20.991-20.991h36.679 128.443 139.775 128.442 36.679c11.593 0 20.991 9.398 20.991 20.991z" fill="#e27d47"/><path d="m75.801 369.418h-54.806c-11.6 0-20.995-9.406-20.995-20.996v-18.78c0-11.59 9.395-20.995 20.995-20.995h54.806c-11.59 0-20.985 9.405-20.985 20.995v18.78c0 11.59 9.395 20.996 20.985 20.996z" fill="#dd6938"/><g fill="#f9f6f9"><path d="m276.535 61.23-2.518.202c-8.879.711-16.793-5.574-18.11-14.383l-4.052-27.097c-1.451-9.706 5.621-18.611 15.403-19.395l6.256-.501c9.783-.784 18.183 6.881 18.295 16.695l.314 27.397c.103 8.906-6.709 16.371-15.588 17.082z"/><path d="m449.967 211.276-.202-2.518c-.711-8.879 5.574-16.793 14.383-18.11l27.097-4.052c9.706-1.451 18.611 5.621 19.395 15.403l.501 6.256c.784 9.783-6.881 18.183-16.695 18.295l-27.397.314c-8.905.103-16.37-6.709-17.082-15.588z"/><path d="m422.452 131.973-1.433-2.079c-5.056-7.334-3.569-17.33 3.401-22.875l21.44-17.059c7.68-6.11 18.928-4.438 24.498 3.642l3.562 5.167c5.57 8.08 3.132 19.187-5.31 24.192l-23.569 13.971c-7.663 4.541-17.534 2.375-22.589-4.959z"/><path d="m358.971 77.052-2.281-1.084c-8.045-3.823-11.756-13.223-8.492-21.511l10.039-25.493c3.596-9.131 14.173-13.307 23.037-9.095l5.668 2.694c8.864 4.212 12.306 15.051 7.497 23.606l-13.426 23.884c-4.365 7.764-13.997 10.823-22.042 6.999z"/></g><path d="m433.762 458.474c-39.885 2.306-79.771 2.306-119.656 0-11.644-.673-21.061-9.696-22.231-21.301-2.387-23.68-2.387-47.359 0-71.039 1.17-11.605 10.586-20.628 22.231-21.301 39.885-2.306 79.771-2.306 119.656 0 11.644.673 21.061 9.696 22.231 21.301 2.387 23.679 2.387 47.359 0 71.039-1.17 11.605-10.586 20.628-22.231 21.301z" fill="#665e66"/><path d="m324.893 459.023c-3.595-.155-7.191-.35-10.786-.556-11.641-.67-21.057-9.694-22.231-21.294-2.39-23.684-2.39-47.368 0-71.041 1.174-11.61 10.59-20.634 22.231-21.304 3.595-.206 7.191-.402 10.786-.556-6.933 3.946-11.827 11.074-12.671 19.47-2.545 25.27-2.545 50.541 0 75.821.844 8.396 5.738 15.515 12.671 19.46z" fill="#544f57"/><g><g><path d="m347.98 424.291c-4.798.176-9.597.176-14.395 0-8.366-.307-15.133-7.073-15.44-15.44-.176-4.798-.176-9.597 0-14.395.307-8.366 7.073-15.133 15.44-15.44 4.699-.172 9.398-.176 14.096-.011 8.595.302 15.447 7.155 15.749 15.749.165 4.699.162 9.398-.011 14.096-.306 8.368-7.073 15.134-15.439 15.441z" fill="#ffef4a"/><path d="m414.284 424.291c-4.798.176-9.597.176-14.395 0-8.366-.307-15.133-7.073-15.44-15.44-.176-4.798-.176-9.597 0-14.395.307-8.366 7.073-15.133 15.44-15.44 4.699-.172 9.398-.176 14.096-.011 8.595.302 15.447 7.155 15.749 15.749.165 4.699.162 9.398-.011 14.096-.306 8.368-7.073 15.134-15.439 15.441z" fill="#78d0b1"/></g><g><path d="m347.115 424.294c.144 0 .288.01.433.01-4.656.165-9.313.155-13.959-.01-8.365-.309-15.133-7.077-15.442-15.442-.175-4.801-.175-9.601 0-14.402.309-8.365 7.077-15.133 15.442-15.432 4.656-.175 9.323-.175 13.98-.01-.155 0-.299 0-.453.01-8.365.299-15.133 7.067-15.432 15.432-.185 4.801-.185 9.601 0 14.402.298 8.364 7.066 15.133 15.431 15.442z" fill="#ffd321"/><path d="m413.418 424.294c.144 0 .288.01.433.01-4.656.165-9.303.155-13.959-.01-8.365-.309-15.133-7.077-15.442-15.442-.175-4.801-.175-9.601 0-14.402.309-8.365 7.077-15.133 15.442-15.432 4.656-.175 9.323-.175 13.98-.01-.155 0-.299 0-.453.01-8.365.299-15.133 7.067-15.432 15.432-.175 4.801-.175 9.601 0 14.402.297 8.364 7.065 15.133 15.431 15.442z" fill="#66b49d"/></g></g></g></svg>