<svg id="Capa_1" enable-background="new 0 0 512 512" height="512" viewBox="0 0 512 512" width="512" xmlns="http://www.w3.org/2000/svg"><g><path d="m288.658 495.213h-54.75c-10.236 0-18.533-8.298-18.533-18.533 0-10.236 8.298-18.533 18.533-18.533h54.75c10.236 0 18.533 8.298 18.533 18.533 0 10.236-8.297 18.533-18.533 18.533z" fill="#e27d47"/><path d="m261.657 495.217h-27.745c-10.233 0-18.537-8.293-18.537-18.537 0-5.117 2.073-9.748 5.436-13.1 3.352-3.352 7.984-5.425 13.1-5.425h27.745c-5.117 0-9.748 2.073-13.1 5.425-3.363 3.352-5.436 7.984-5.436 13.1 0 10.245 8.304 18.537 18.537 18.537z" fill="#dd6938"/><path d="m148.593 216.626v37.488h-92.16c-9.828 0-17.832 8.005-17.832 17.832v63.171h-37.489v-63.171c0-30.504 24.817-55.321 55.321-55.321h92.16z" fill="#e27d47"/><path d="m134.675 254.115h-67.94c-.721-12.537-1.102-25.095-1.226-37.488h68.404c.072 12.393.309 24.961.762 37.488z" fill="#dd6938"/><g><path d="m38.605 258.011v13.935c0-9.831 7.998-17.829 17.829-17.829h92.158v-13.935h-92.158c-9.831 0-17.829 7.998-17.829 17.829z" fill="#dd6938"/></g><path d="m178.238 412.859 10.303 30.641c3.046 9.06 11.537 15.162 21.095 15.162h103.296c9.558 0 18.049-6.103 21.095-15.162l10.303-30.641-84.682-149.253z" fill="#665e66"/><path d="m234.535 458.662h-24.9c-9.561 0-18.052-6.098-21.095-15.163l-10.3-30.634 81.403-149.254.529.937-41.893 148.317 5.337 30.634c1.579 9.065 5.968 15.163 10.919 15.163z" fill="#544f57"/><path d="m261.288 266.512-1.114-1.963.265-.937z" fill="#544f57"/><path d="m148.724 392.087c-6.48 4.224-12.63 9.498-18.461 15.525-27.238 28.206-47.254 72.988-58.936 104.388h-37.859c1.999-76.748 25.94-129.638 42.382-157.195 8.818-14.752 15.473-22.252 15.473-22.252z" fill="#665e66"/><path d="m109.608 351.508c-22.087 26.507-57.103 80.571-61.399 160.492h-14.752c3.07-117.832 57.865-179.447 57.865-179.447z" fill="#544f57"/><path d="m489.116 512h-37.89c-14.165-38.106-40.63-95.951-77.377-119.913l57.391-59.534c.001 0 54.796 61.615 57.876 179.447z" fill="#665e66"/><path d="m466.803 512h-15.576c-14.165-38.106-40.63-95.951-77.377-119.913l20.789-21.572c34.892 29.628 59.595 98.763 72.164 141.485z" fill="#544f57"/><path d="m388.203 1.63c-84.613-2.173-169.226-2.173-253.839 0-11.437.294-21.333 8.341-23.671 19.541-2.707 12.967-2.707 25.934 0 38.901 2.338 11.2 12.233 19.247 23.671 19.541 84.613 2.173 169.226 2.173 253.839 0 11.437-.294 21.333-8.341 23.671-19.541 2.707-12.967 2.707-25.934 0-38.901-2.338-11.2-12.234-19.247-23.671-19.541z" fill="#665e66"/><path d="m167.384 65.012c.629 6.01 2.106 11.303 4.168 15.416-12.395-.221-24.789-.496-37.184-.816-11.435-.287-21.338-8.337-23.676-19.54-2.702-12.968-2.702-25.936 0-38.904 2.338-11.193 12.24-19.243 23.676-19.54 12.395-.32 24.789-.595 37.184-.816-2.051 4.113-3.54 9.395-4.168 15.416-1.687 16.265-1.687 32.53 0 48.784z" fill="#544f57"/><path d="m148.722 392.086c-6.473 4.223-12.626 9.494-18.46 15.526-25.153-19.232-44.109-40.272-54.409-52.81 8.811-14.755 15.471-22.253 15.471-22.253z" fill="#544f57"/><path d="m431.241 332.55s-34.107 48.41-86.917 80.312h-166.082c-52.81-31.902-86.917-80.312-86.917-80.312-20.279-93.5-8.039-218.12-2.382-263.839h344.68c3.472 28.06 9.424 85.842 8.815 147.909-.096 9.752 10.058 14.126 9.603 23.99-.123 2.673-10.672 10.83-10.825 13.503-1.541 26.965-4.628 53.783-9.975 78.437z" fill="#f9f6f9"/><path d="m209.593 412.862h-31.35c-52.81-31.902-86.917-80.312-86.917-80.312-20.279-93.5-8.039-218.12-2.382-263.839h65.072c-3.518 45.719-11.138 170.338 1.489 263.839-.001 0 21.226 48.41 54.088 80.312z" fill="#e2dfe2"/><path d="m300.37 81.378c.419 13.32.777 26.641 1.074 39.961-26.773-2-53.547-2-80.321 0 .297-13.32.655-26.641 1.074-39.961-11.027 1.197-22.055 2.9-33.082 5.11-5.032 83.325-5.279 166.649-.744 249.974.42 7.718 6.191 14.085 13.819 15.336.11.018.221.036.331.054 10.2 1.664 19.388-6.391 19.109-16.722-.189-7.012-.362-14.023-.517-21.035 26.78 1.991 53.561 1.991 80.341 0-.155 7.012-.328 14.023-.517 21.035-.279 10.331 8.909 18.387 19.109 16.722.11-.018.221-.036.331-.054 7.627-1.251 13.398-7.618 13.819-15.336 4.536-83.325 4.288-166.649-.744-249.974-11.028-2.21-22.055-3.914-33.082-5.11zm1.703 74.328c.214 14.942.352 29.884.412 44.826-27.467-.361-54.935-.361-82.402 0 .06-14.942.197-29.884.412-44.826 27.192-1.289 54.385-1.289 81.578 0zm-81.586 124.02c-.213-14.942-.348-29.884-.407-44.826 27.469.351 54.937.351 82.406 0-.058 14.942-.194 29.884-.407 44.826-27.197 1.279-54.394 1.279-81.592 0z" fill="#9dc6fb"/><path d="m222.137 83.55c.022-.728.044-1.445.066-2.172-11.027 1.191-22.055 2.9-33.082 5.106-5.028 83.322-5.282 166.644-.75 249.978.43 7.719 6.197 14.082 13.828 15.328.11.022.22.044.331.055 3.904.64 7.653-.143 10.774-1.93-4.808-2.691-8.105-7.697-8.414-13.453-4.543-83.333-4.29-166.655.739-249.978 5.503-1.103 11.006-2.074 16.508-2.934z" fill="#80b4fb"/><path d="m437.121 86.489h-351.675c-9.821 0-17.783-7.962-17.783-17.783 0-9.821 7.962-17.783 17.783-17.783h351.675c9.821 0 17.783 7.962 17.783 17.783-.001 9.821-7.962 17.783-17.783 17.783z" fill="#c3bec6"/><path d="m441.21 254.113h4.477c35.243 0 64.653-27.976 65.193-63.219.54-35.861-28.472-65.215-64.212-65.215h-7.41-31.053c-5.183 0-9.858 2.095-13.255 5.492-3.396 3.385-5.492 8.083-5.492 13.255 0 10.355 8.392 18.746 18.746 18.746h33.28 5.183c14.578 0 26.477 11.744 26.719 26.267.254 14.953-12.384 27.182-27.326 27.182h-3.628" fill="#e27d47"/><g fill="#dd6938"><path d="m445.687 239.445h-3.998l-.479 14.668h4.477c35.243 0 64.653-27.976 65.193-63.219.042-2.8-.116-5.554-.423-8.264-3.753 32.168-31.691 56.815-64.77 56.815z"/><path d="m446.668 163.171c12.159 0 22.448 8.173 25.67 19.311.72-2.448 1.094-5.035 1.049-7.712-.243-14.523-12.141-26.267-26.719-26.267h-5.183-33.281c-7.752 0-14.402-4.704-17.256-11.413-.959 2.254-1.49 4.734-1.49 7.335 0 10.355 8.392 18.746 18.746 18.746h33.281z"/></g><path d="m154.195 86.493h-68.744c-9.825 0-17.787-7.962-17.787-17.787 0-4.907 1.985-9.351 5.205-12.571 3.22-3.209 7.675-5.205 12.582-5.205h68.744c-4.907 0-9.362 1.996-12.582 5.205-3.22 3.22-5.205 7.664-5.205 12.571 0 9.825 7.961 17.787 17.787 17.787z" fill="#b4acb7"/></g></svg>