<svg id="Capa_1" enable-background="new 0 0 511.996 511.996" height="512" viewBox="0 0 511.996 511.996" width="512" xmlns="http://www.w3.org/2000/svg"><g><path d="m252.708 511.996c-18.57 0-36.421-5.525-51.706-16.017-15.242-10.462-26.836-25.072-33.529-42.249-1.868-4.794-6.352-7.891-11.425-7.891-13.975 0-25.304-11.329-25.304-25.304s11.329-25.304 25.304-25.304c12.739 0 25.026 3.815 35.533 11.033 10.462 7.186 18.432 17.247 23.048 29.094 6.157 15.803 21.676 26.247 38.679 26.026 21.152-.294 39.965-19.107 40.259-40.259.221-15.862-8.465-30.112-22.667-37.19-13.066-6.511-24.035-16.507-31.722-28.905-7.697-12.415-11.765-26.697-11.765-41.3v-44.677c0-13.975 11.329-25.304 25.304-25.304s25.304 11.329 25.304 25.304v44.677c0 10.615 5.921 20.16 15.451 24.91 15.181 7.565 27.95 19.185 36.927 33.601 9.253 14.861 14.015 32.008 13.771 49.588-.327 23.537-9.946 45.938-27.084 63.075-17.138 17.138-39.538 26.756-63.075 27.083-.434.006-.87.009-1.303.009z" fill="#f9f6f9"/><g fill="#e2dfe2"><path d="m270.9 383.934c14.202 7.077 22.887 21.328 22.667 37.19-.25 17.959-13.852 34.225-30.898 38.909 3.516.928 7.187 1.398 10.931 1.35 21.152-.294 39.965-19.107 40.259-40.259.221-15.862-8.465-30.112-22.667-37.19-13.066-6.511-24.035-16.507-31.721-28.906-7.697-12.415-11.765-26.697-11.765-41.3v-44.677c0-10.366 6.236-19.271 15.158-23.182-3.107-1.362-6.537-2.122-10.146-2.122-13.975 0-25.304 11.329-25.304 25.304v44.677c0 14.603 4.068 28.885 11.765 41.3 7.686 12.399 18.655 22.395 31.721 28.906z"/><path d="m221.293 495.979c-15.242-10.462-26.836-25.072-33.529-42.249-1.868-4.794-6.352-7.891-11.425-7.891-13.975 0-25.304-11.33-25.304-25.304 0-11.235 7.325-20.755 17.457-24.058-4.067-.82-8.23-1.247-12.445-1.247-13.975 0-25.304 11.329-25.304 25.304s11.329 25.304 25.304 25.304c5.073 0 9.557 3.097 11.425 7.891 6.692 17.177 18.287 31.787 33.529 42.249 15.285 10.492 33.136 16.017 51.706 16.017.434 0 .869-.003 1.303-.009 2.946-.041 5.875-.228 8.777-.556-14.868-1.649-29.033-6.898-41.494-15.451z"/></g><path d="m381.187 120.482c-3.812-160.642-244.579-160.642-248.391 0-.044 1.837-.066 3.68-.066 5.527 0 78.199 39.268 147.225 99.16 188.44 15.104 10.394 35.099 10.394 50.203 0 59.892-41.215 99.16-110.241 99.16-188.44-.001-1.848-.022-3.69-.066-5.527z" fill="#e27d47"/><path d="m207.632 295.214 143.264-55.32c-17.089 29.697-40.669 55.205-68.803 74.555-15.109 10.399-35.105 10.399-50.203 0-8.524-5.867-16.631-12.285-24.258-19.235z" fill="#665e66"/><path d="m381.249 125.296-230.781 89.122c-11.431-27.196-17.735-57.06-17.735-88.403 0-1.855.021-3.699.063-5.533.021-.719.042-1.427.063-2.136l214.306-82.766c19.933 19.934 33.156 48.234 34.021 84.902.032 1.594.052 3.198.063 4.814z" fill="#665e66"/><circle cx="256.991" cy="123.398" fill="#f9f6f9" r="64.329"/><path d="m321.32 123.398c0 35.531-28.804 64.335-64.325 64.335-3.492 0-6.923-.278-10.271-.824 30.638-4.914 54.043-31.482 54.043-63.511 0-32.018-23.406-58.587-54.043-63.5 3.348-.546 6.779-.824 10.271-.824 35.521 0 64.325 28.804 64.325 64.324z" fill="#e2dfe2"/></g></svg>