<svg id="Capa_1" enable-background="new 0 0 512 512" height="512" viewBox="0 0 512 512" width="512" xmlns="http://www.w3.org/2000/svg"><g><path d="m226.869 210.83-115.831 69.961-25.924 129.241 32.631 91.937h246.053c17.641 0 31.938-14.297 31.938-31.952 0-8.814-3.571-16.812-9.349-22.59s-13.776-9.349-22.59-9.349h11.462c17.641 0 31.952-14.297 31.952-31.952 0-8.827-3.571-16.799-9.362-22.59-5.778-5.778-13.763-9.349-22.59-9.349h11.475c17.641 0 31.939-14.297 31.939-31.952 0-17.641-14.298-31.939-31.939-31.939h-11.474c17.641 0 31.952-14.297 31.952-31.952 0-8.827-3.571-16.799-9.362-22.59-5.778-5.778-13.763-9.349-22.59-9.349h-27.379l-62.311-28.421c-15.595-15.593-39.816-18.536-58.701-7.154z" fill="#ffddce"/><path d="m244.067 229.747h58.098l-25.383 16.663h-32.715c-4.601 0-8.331-3.73-8.331-8.331 0-4.602 3.73-8.332 8.331-8.332z" fill="#ffcbbe"/><g><path d="m147.063 123.581c4.466 1.386 9.503 1.332 14.577-.761 24.189-9.975 50.326-16.298 77.713-18.237 3.733-.263 7.483-.453 11.261-.553 11.397-.299 22.64.154 33.665 1.332 3.18.335 6.333.734 9.476 1.187l-.906-78.619c-13.97-4.521-28.927-6.767-44.437-6.351-3.053.082-6.07.263-9.06.553-45.95 4.321-84.861 31.89-105.254 70.574-6.875 13.027.97 27.151 12.965 30.875z" fill="#c3bec6"/><g fill="#b4acb7"><path d="m147.063 123.581c4.466 1.386 9.503 1.332 14.577-.761 24.189-9.975 50.326-16.298 77.713-18.237 3.733-.263 7.483-.453 11.261-.553 11.397-.299 22.64.154 33.665 1.332l-20.828-37.298s-89.925 0-116.388 55.517z"/><path d="m239.353 22.132v82.451c3.733-.263 7.483-.453 11.261-.553 14.676-.39 29.09.48 43.141 2.519l-.906-78.619c-13.97-4.521-28.927-6.767-44.437-6.351-3.053.082-6.07.263-9.059.553z"/><path d="m426.211 124.7c0-16.971-13.758-30.729-30.729-30.729s-30.729 13.758-30.729 30.729v-121.362c0 16.971 13.758 30.729 30.729 30.729s30.729-13.758 30.729-30.729"/></g><path d="m276.782 99.392h71.099v147.018h-71.099z" fill="#c3bec6"/><path d="m276.782 99.392h25.383v147.018h-25.383z" fill="#b4acb7"/><path d="m268.697 111.244c34.947 4.45 49.297 7.554 84.244 3.104 1.227-12.913 13.874-15.473 14.318-28.386.946-27.541.111-55.083-2.506-82.624-34.947-4.45-69.894-4.45-104.841 0-2.617 27.541-3.452 55.083-2.506 82.624.443 12.913 10.064 12.369 11.291 25.282z" fill="#c3bec6"/><path d="m257.406 85.962c.444 12.919 1.277 25.829 2.5 38.739 34.952 4.448 69.894 4.448 104.846 0 1.223-12.91 2.057-25.82 2.5-38.739-36.617 1.15-73.227 1.15-109.846 0z" fill="#b4acb7"/><path d="m430.252 119.608c22.209 4.45 34.116 4.333 56.325-.117.78-12.913 6.52-20.617 6.802-33.53.601-27.541.071-55.083-1.593-82.624-22.209-4.45-44.417-4.45-66.626 0-1.663 27.541-2.194 55.083-1.593 82.624.04 1.812 12.238 7.508 12.287 9.32.303 11.102-6.272 13.226-5.602 24.327z" fill="#c3bec6"/><path d="m423.568 85.962c.281 12.919.815 25.829 1.595 38.739 22.205 4.448 44.41 4.448 66.624 0 .779-12.91 1.314-25.82 1.594-38.739-23.265 1.15-46.54 1.15-69.813 0z" fill="#b4acb7"/></g><g><path d="m393.493 458.253c1.443 3.643 2.244 7.611 2.244 11.764 0 17.655-14.297 31.952-31.938 31.952h-271.032v-23.53h271.031c13.487 0 25.011-8.361 29.695-20.186z" fill="#ffcbbe"/></g><g><path d="m404.955 394.363c1.443 3.643 2.244 7.611 2.244 11.764 0 17.655-14.297 31.952-31.938 31.952h-12.241c-6.498 0-11.765-5.267-11.765-11.765 0-6.498 5.267-11.765 11.765-11.765h12.241c13.486 0 25.01-8.361 29.694-20.186z" fill="#ffcbbe"/></g><g><path d="m416.43 330.472c1.443 3.643 2.244 7.611 2.244 11.764 0 17.655-14.297 31.952-31.938 31.952h-12.241c-6.498 0-11.765-5.267-11.765-11.765 0-6.498 5.267-11.765 11.765-11.765h12.241c13.487 0 25.011-8.361 29.694-20.186z" fill="#ffcbbe"/></g><g><path d="m404.968 266.582c1.443 3.643 2.244 7.611 2.244 11.764 0 17.655-14.297 31.952-31.938 31.952h-12.241c-6.498 0-11.765-5.267-11.765-11.765 0-6.498 5.267-11.765 11.765-11.765h12.241c13.487 0 25.011-8.361 29.694-20.186z" fill="#ffcbbe"/></g><path d="m18.388 287.771v199.212c0 13.816 11.2 25.017 25.017 25.017h49.326c13.816 0 25.017-11.2 25.017-25.017v-199.212c0-13.816-11.2-25.017-25.017-25.017h-49.326c-13.816 0-25.017 11.201-25.017 25.017z" fill="#9dc6fb"/><path d="m18.382 424.235v62.754c0 13.816 11.208 25.01 25.024 25.01h49.326c13.816 0 25.011-11.195 25.011-25.01v-62.754c0 13.816-11.194 25.024-25.011 25.024h-49.326c-13.816.001-25.024-11.207-25.024-25.024z" fill="#80b4fb"/></g></svg>