<svg id="Capa_1" enable-background="new 0 0 512 512" height="512" viewBox="0 0 512 512" width="512" xmlns="http://www.w3.org/2000/svg"><g><path d="m215.578 0h80.846v48.933h-80.846z" fill="#c3bec6"/><path d="m215.578 0h29.049v48.933h-29.049z" fill="#b4acb7"/><path d="m312.502 36.6h-113.003c-11.504 0-20.83 9.326-20.83 20.83v29.402h154.663v-29.401c0-11.505-9.326-20.831-20.83-20.831z" fill="#665e66"/><path d="m244.627 36.601c-11.508 0-20.83 9.322-20.83 20.83v29.396h-45.128v-29.396c0-11.508 9.322-20.83 20.83-20.83z" fill="#544f57"/><path d="m384.657 77.124c-85.771-9.968-171.543-9.968-257.314 0-18.155 2.11-32.234 16.854-33.536 35.085-8.506 119.077-8.506 238.154 0 357.231 1.302 18.231 15.38 32.975 33.536 35.085 85.771 9.968 171.543 9.968 257.314 0 18.155-2.11 32.234-16.854 33.536-35.085 8.506-119.077 8.506-238.154 0-357.231-1.302-18.232-15.38-32.975-33.536-35.085z" fill="#e27d47"/><path d="m132.327 482.685c.626 8.884 4.085 16.994 9.491 23.414-4.82-.487-9.65-1.023-14.47-1.58-18.157-2.107-32.239-16.855-33.541-35.081-8.507-119.076-8.507-238.153 0-357.229 1.302-18.236 15.384-32.974 33.541-35.091 4.83-.567 9.65-1.093 14.48-1.58-5.416 6.42-8.865 14.529-9.501 23.414-9.143 127.91-9.143 255.821 0 383.733z" fill="#dd6938"/><path d="m256 475.23c-41.272 0-83.131-2.433-124.412-7.23-.595-.069-1.059-.565-1.103-1.179-8.342-116.783-8.342-235.21 0-351.992.044-.615.508-1.111 1.103-1.181 41.281-4.797 83.14-7.23 124.412-7.23s83.131 2.433 124.413 7.23c.595.069 1.059.565 1.103 1.18 8.342 116.783 8.342 235.21 0 351.992-.044.615-.508 1.111-1.103 1.18-41.282 4.797-83.14 7.23-124.413 7.23z" fill="#665e66"/><g fill="#544f57"><path d="m381.516 466.819c-.05.616-.517 1.113-1.103 1.183-8.447.984-16.914 1.868-25.391 2.643 8.408-119.335 8.408-240.299 0-359.634 8.477.775 16.944 1.65 25.391 2.633.586.07 1.053.567 1.103 1.183 8.338 116.781 8.338 235.212 0 351.992z"/><path d="m297.293 141.868c-38.491-1.79-76.982-1.79-115.472 0-19.003.884-34.427 15.804-35.828 34.776-1.275 17.26-1.275 34.519 0 51.779 1.401 18.972 16.825 33.892 35.828 34.776 38.491 1.79 76.982 1.79 115.472 0 19.003-.884 34.427-15.804 35.828-34.776 1.275-17.26 1.275-34.519 0-51.779-1.401-18.971-16.825-33.892-35.828-34.776z"/><path d="m297.293 306.415c-38.491-1.79-76.982-1.79-115.472 0-19.003.884-34.427 15.804-35.828 34.776-1.275 17.26-1.275 34.519 0 51.779 1.401 18.972 16.825 33.892 35.828 34.776 38.491 1.79 76.982 1.79 115.472 0 19.003-.884 34.427-15.804 35.828-34.776 1.275-17.26 1.275-34.519 0-51.779-1.401-18.971-16.825-33.892-35.828-34.776z"/></g><path d="m313.737 141.868c-38.491-1.79-76.982-1.79-115.472 0-19.003.884-34.427 15.804-35.828 34.776-1.275 17.26-1.275 34.519 0 51.779 1.401 18.972 16.825 33.892 35.828 34.776 38.491 1.79 76.982 1.79 115.472 0 19.003-.884 34.427-15.804 35.828-34.776 1.275-17.26 1.275-34.519 0-51.779-1.402-18.971-16.826-33.892-35.828-34.776z" fill="#78d0b1"/><path d="m223.237 264.108c-8.328-.219-16.646-.517-24.974-.905-19.001-.884-34.425-15.801-35.826-34.773-1.282-17.262-1.282-34.524 0-51.787 1.401-18.971 16.825-33.888 35.826-34.773 8.328-.388 16.646-.686 24.974-.905-13.844 5.516-23.901 18.524-25.054 34.107-1.352 18.306-1.352 36.621 0 54.927 1.153 15.585 11.21 28.594 25.054 34.109z" fill="#66b49d"/><path d="m313.737 306.415c-38.491-1.79-76.982-1.79-115.472 0-19.003.884-34.427 15.804-35.828 34.776-1.275 17.26-1.275 34.519 0 51.779 1.401 18.972 16.825 33.892 35.828 34.776 38.491 1.79 76.982 1.79 115.472 0 19.003-.884 34.427-15.804 35.828-34.776 1.275-17.26 1.275-34.519 0-51.779-1.402-18.971-16.826-33.892-35.828-34.776z" fill="#da4a54"/><path d="m223.237 428.655c-8.328-.219-16.646-.517-24.974-.905-19.001-.884-34.425-15.801-35.826-34.773-1.282-17.262-1.282-34.524 0-51.787 1.401-18.971 16.825-33.888 35.826-34.773 8.328-.388 16.646-.686 24.974-.905-13.844 5.516-23.901 18.524-25.054 34.107-1.352 18.306-1.352 36.621 0 54.927 1.153 15.585 11.21 28.594 25.054 34.109z" fill="#d82e3d"/><path d="m256 398.95c-1.977 0-3.955-.755-5.463-2.263l-48.285-48.285c-3.018-3.017-3.018-7.909 0-10.927 3.017-3.017 7.909-3.017 10.927 0l42.821 42.822 42.822-42.822c3.017-3.017 7.909-3.017 10.927 0s3.018 7.909 0 10.927l-48.285 48.285c-1.509 1.508-3.486 2.263-5.464 2.263z" fill="#f9f6f9"/><path d="m304.286 234.403c-1.977 0-3.955-.754-5.463-2.263l-42.823-42.823-42.822 42.822c-3.017 3.017-7.909 3.017-10.927 0s-3.018-7.909 0-10.927l48.285-48.286c1.449-1.449 3.414-2.263 5.463-2.263s4.015.814 5.463 2.263l48.285 48.286c3.018 3.017 3.018 7.909 0 10.927-1.507 1.509-3.484 2.264-5.461 2.264z" fill="#f9f6f9"/></g></svg>