<svg id="Capa_1" enable-background="new 0 0 512 512" height="512" viewBox="0 0 512 512" width="512" xmlns="http://www.w3.org/2000/svg"><g><path d="m454.155 370.746c-2.704 0-5.453-.513-8.112-1.595-11.014-4.484-16.31-17.047-11.826-28.062.134-.33 13.584-33.488 26.861-74.532 12.447-38.478 10.022-79.913-6.83-116.67-16.862-36.776-46.657-65.541-83.902-80.997-33.759-14.01-72.23-21.113-114.346-21.113-42.115 0-80.587 7.103-114.346 21.113-37.243 15.455-67.04 44.221-83.9 80.996-16.852 36.758-19.278 78.192-6.831 116.671 13.277 41.043 26.728 74.2 26.862 74.531 4.482 11.015-.813 23.579-11.828 28.062-11.015 4.482-23.578-.811-28.062-11.825-.571-1.404-14.159-34.88-27.95-77.513-15.775-48.77-12.7-101.287 8.659-147.876 21.4-46.677 59.237-83.195 106.542-102.826 39.019-16.192 83.045-24.402 130.854-24.402 47.81 0 91.835 8.21 130.854 24.402 47.305 19.631 85.143 56.149 106.543 102.827 21.36 46.59 24.435 99.106 8.659 147.876-13.791 42.633-27.377 76.108-27.949 77.512-3.402 8.356-11.454 13.421-19.952 13.421z" fill="#665e66"/><g fill="#544f57"><path d="m54.586 357.325c-.571-1.404-14.159-34.88-27.95-77.513-15.775-48.77-12.7-101.287 8.659-147.876 21.401-46.677 59.239-83.195 106.543-102.826 36.737-15.245 77.915-23.409 122.508-24.312-2.77-.056-5.55-.09-8.346-.09-47.809 0-91.835 8.21-130.854 24.402-47.305 19.631-85.142 56.149-106.543 102.827-21.36 46.589-24.435 99.106-8.659 147.876 13.791 42.633 27.378 76.109 27.95 77.513 4.485 11.014 17.047 16.307 28.062 11.825.074-.03.141-.069.215-.1-5.08-2.14-9.343-6.217-11.585-11.726z"/><path d="m450.909 341.088c.134-.33 13.584-33.488 26.861-74.532 12.447-38.478 10.022-79.913-6.83-116.67-16.862-36.776-46.657-65.541-83.902-80.997-33.759-14.01-72.229-21.113-114.345-21.113-2.799 0-5.579.036-8.346.099 38.86.881 74.484 7.935 105.999 21.014 37.245 15.456 67.04 44.221 83.902 80.997 16.852 36.757 19.278 78.192 6.83 116.67-13.277 41.044-26.728 74.201-26.861 74.532-4.484 11.015.812 23.579 11.826 28.062 2.659 1.082 5.408 1.595 8.112 1.595 2.892 0 5.727-.599 8.35-1.703-10.853-4.565-16.047-17.018-11.596-27.954z"/></g><path d="m111.085 289.79v191.201h-59.679c-19.913 0-36.056-16.143-36.056-36.056v-119.089c0-19.913 16.143-36.056 36.056-36.056z" fill="#e27d47"/><path d="m80.426 436.591v44.404h-29.018c-19.908 0-36.059-16.14-36.059-36.059v-44.393c0 19.908 16.151 36.048 36.059 36.048z" fill="#dd6938"/><path d="m111.085 289.79v191.201h-46.544c-.371-1.957-.567-3.966-.567-6.026v-179.149c0-2.06.196-4.079.567-6.026z" fill="#dd6938"/><path d="m402.112 480.995h58.479c19.913 0 36.055-16.142 36.055-36.055v-119.091c0-19.913-16.142-36.055-36.055-36.055h-58.479z" fill="#e27d47"/><path d="m134.038 263.503h-21.298c-17.848 0-32.317 14.469-32.317 32.317v179.149c0 17.848 14.469 32.317 32.317 32.317h21.299c17.848 0 32.317-14.469 32.317-32.317v-179.149c-.001-17.848-14.47-32.317-32.318-32.317z" fill="#c3bec6"/><path d="m166.361 414.807v60.156c0 17.852-14.471 32.323-32.323 32.323h-21.298c-17.852 0-32.312-14.471-32.312-32.323v-60.156c0 17.852 14.46 32.323 32.312 32.323h21.298c17.852 0 32.323-14.471 32.323-32.323z" fill="#b4acb7"/><path d="m377.962 263.503h21.299c17.848 0 32.317 14.469 32.317 32.317v179.149c0 17.848-14.469 32.317-32.317 32.317h-21.299c-17.848 0-32.317-14.469-32.317-32.317v-179.149c0-17.848 14.469-32.317 32.317-32.317z" fill="#c3bec6"/><path d="m431.58 436.597v44.403h29.017c19.908 0 36.059-16.14 36.059-36.059v-44.393c0 19.909-16.151 36.048-36.059 36.048h-29.017z" fill="#dd6938"/><path d="m345.645 414.813v60.156c0 17.852 14.471 32.323 32.323 32.323h21.297c17.852 0 32.312-14.471 32.312-32.323v-60.156c0 17.852-14.46 32.323-32.312 32.323h-21.297c-17.852 0-32.323-14.471-32.323-32.323z" fill="#b4acb7"/></g></svg>