<svg id="Capa_1" enable-background="new 0 0 512 512" height="512" viewBox="0 0 512 512" width="512" xmlns="http://www.w3.org/2000/svg"><g><path d="m241.181 242.547c-4.255 0-7.703-3.449-7.703-7.703v-208.941c0-4.254 3.448-7.703 7.703-7.703s7.703 3.449 7.703 7.703v208.941c0 4.254-3.449 7.703-7.703 7.703z" fill="#d82e3d"/><path d="m510.257 139.013c-57.306-25.622-119.077-33.157-119.077-33.157-7.536-46.733-36.183-99.484-36.183-99.484-72.083-12.023-140.267-4.839-185.618 3.581-34.302 6.346-55.549 13.417-55.549 13.417-31.662 45.215-52.762 112.629-52.762 112.629-24.115 7.535-60.298 24.114-60.298 24.114 0 7.66.215 15.049.6 22.109l29.554-4.397 4.521 33.917-30.472 7.286c3.535 25.021 8.057 40.569 8.057 40.569h35.979c0-31.673 21.701-58.269 51.051-65.737 5.371-1.36 10.992-2.085 16.783-2.085 37.464 0 67.822 30.358 67.822 67.822l62.061 15.294 61.56-15.294c0-37.464 30.37-67.822 67.833-67.822 37.464 0 67.822 30.358 67.822 67.822h35.628c10.913-14.335 18.165-29.792 22.936-44.693-11.581-1.575-20.5-11.502-20.5-23.514 0-13.111 10.629-23.741 23.74-23.741 1.779 0 3.513.193 5.179.567.965-17.486-.667-29.203-.667-29.203zm-148.336 19.752c-37.974 5.326-69.295 31.662-81.794 66.836h-67.301c-14.029-39.481-51.753-67.822-95.982-67.822-4.17 0-8.272.261-12.318.748-5.439.646-10.754 1.745-15.899 3.23l4.884-15.604c.181-.555 17.077-53.827 41.827-93.659 3.411-.929 7.57-2.006 12.397-3.173 26.494-6.391 73.284-15.321 127.621-15.321 19.559 0 38.71 1.156 57.147 3.445 8.193 17.417 20.839 47.288 25.112 73.828 0-.001 5.009 40.828 4.306 47.492z" fill="#da4a54"/><path d="m169.379 9.953c-5.564 9.508-13.315 23.231-21.644 39.367-4.827 1.167-8.986 2.244-12.397 3.173-24.749 39.832-41.645 93.104-41.827 93.659l-4.884 15.604c5.145-1.484 10.46-2.584 15.899-3.23-2.856 12.488-4.499 24.443-4.465 35.333-29.35 7.468-51.051 34.064-51.051 65.737h-35.979s-4.522-15.548-8.057-40.569l30.472-7.286-4.521-33.917-29.554 4.397c-.385-7.06-.6-14.448-.6-22.109 0 0 36.183-16.579 60.298-24.114 0 0 21.1-67.414 52.762-112.629-.001.001 21.246-7.07 55.548-13.416z" fill="#d82e3d"/><path d="m321.896 313.269h-146.23c-11.292 0-19.079-11.318-15.043-21.864l8.213-21.458c2.386-6.233 8.369-10.35 15.043-10.35h129.805c6.674 0 12.657 4.116 15.043 10.35l8.213 21.458c4.035 10.546-3.752 21.864-15.044 21.864z" fill="#665e66"/><path d="m210.508 313.271h-34.839c-11.298 0-19.083-11.318-15.047-21.867l8.217-21.456c2.383-6.234 8.371-10.353 15.036-10.353h34.839c-6.676 0-12.653 4.119-15.036 10.353l-8.217 21.456c-4.037 10.549 3.749 21.867 15.047 21.867z" fill="#544f57"/><circle cx="116.807" cy="259.597" fill="#c3bec6" r="24.831"/><circle cx="376.12" cy="259.597" fill="#c3bec6" r="24.831"/><path d="m368.825 412.65-91.862 38.598-39.779 16.711-89.685 37.673c-1.951.822-3.975 1.212-5.967 1.212-6.009 0-11.729-3.554-14.205-9.449-3.297-7.837.39-16.875 8.237-20.172l61.841-25.975 39.779-16.721 81.807-34.366-65.826-21.784-49.043-16.228-64.696-21.404c-8.083-2.671-12.458-11.38-9.788-19.463 2.671-8.073 11.38-12.459 19.463-9.788l104.064 34.428 49.043 16.228 65.487 21.671c6.091 2.013 10.302 7.601 10.548 14.02.257 6.418-3.502 12.324-9.418 14.809z" fill="#b4acb7"/><path d="m276.963 451.248-39.779 16.711-39.779-16.711 39.779-16.721z" fill="#665e66"/><path d="m377.052 497.395c-2.475 5.895-8.186 9.449-14.204 9.449-1.992 0-4.016-.39-5.967-1.212l-221.317-92.982c-5.926-2.485-9.685-8.391-9.429-14.81.246-6.419 4.457-12.007 10.558-14.02l46.763-15.478 49.064-16.228 122.757-40.621c8.083-2.671 16.793 1.715 19.474 9.788 2.67 8.083-1.715 16.793-9.788 19.463l-83.399 27.598-49.054 16.228-47.122 15.591 183.437 77.062c7.836 3.297 11.524 12.335 8.227 20.172z" fill="#c3bec6"/><path d="m281.564 368.342-49.053 16.228-49.054-16.228 49.064-16.228z" fill="#b4acb7"/><path d="m209.929 331.621-46.583 17.043 124.056 41.045 47.048-16.889z" fill="#b4acb7"/><path d="m393.25 512h-288.939c-4.255 0-7.703-3.449-7.703-7.703s3.448-7.703 7.703-7.703h288.939c4.255 0 7.703 3.449 7.703 7.703s-3.448 7.703-7.703 7.703z" fill="#544f57"/></g></svg>