<svg id="Capa_1" enable-background="new 0 0 512 512" height="512" viewBox="0 0 512 512" width="512" xmlns="http://www.w3.org/2000/svg"><g><path d="m87.207 95.056h42.563v126.946h-42.563z" fill="#f9f6f9"/><path d="m87.207 95.056h17.916v126.946h-17.916z" fill="#e2dfe2"/><path d="m162.401 39.664h42.563v196.726h-42.563z" fill="#f9f6f9"/><path d="m162.401 39.664h19.992v196.726h-19.992z" fill="#e2dfe2"/><path d="m492.831 511.997h-88.884c0-71.494-114.494-236.363-99.515-375.798 1.607-14.999 3.4-29.71 5.408-43.988 1.659-11.754 3.472-23.21 5.429-34.284 1.082-6.099 2.205-12.084 3.379-17.935l73.204-19.996 73.204 19.996c1.174 5.851 2.308 11.837 3.379 17.935 1.968 11.074 3.76 22.53 5.419 34.284 2.019 14.278 3.822 28.989 5.429 43.988 14.97 139.435 13.548 304.304 13.548 375.798z" fill="#f9f6f9"/><path d="m468.437 57.927c-1.03.165-2.081.247-3.152.247h-146.873c-1.071 0-2.112-.082-3.142-.247 1.082-6.099 2.205-12.084 3.379-17.935l73.204-19.996 73.204 19.996c1.175 5.851 2.308 11.836 3.38 17.935z" fill="#e2dfe2"/><path d="m391.859 19.998-33.419 19.996c-1.504 16.483-2.844 33.996-4.018 52.22-.917 14.278-1.731 28.989-2.472 43.988-6.83 139.434-6.181 304.304-6.181 375.798h-54.888c0-71.494-1.422-236.363 13.547-375.798 1.617-14.999 3.41-29.71 5.419-43.988 2.575-18.224 5.501-35.737 8.808-52.22z" fill="#e2dfe2"/><path d="m479.286 136.202h-174.858c1.611-15.007 3.403-29.715 5.418-43.987h164.011c2.016 14.272 3.819 28.98 5.429 43.987z" fill="#da4a54"/><path d="m354.422 92.216h-44.576c-2.009 14.278-3.801 28.988-5.418 43.986h47.522c.742-14.998 1.556-29.708 2.472-43.986z" fill="#d82e3d"/><path d="m403.948 511.997h-362.468c-12.238-76.583-13.207-153.156-2.905-229.739.886-6.593 1.854-13.197 2.905-19.79 120.819-9.148 241.638-9.148 362.467 0 1.051 6.593 2.019 13.196 2.905 19.79 10.303 76.583 9.334 153.156-2.904 229.739z" fill="#da4a54"/><path d="m406.853 282.258c-.948.134-1.916.196-2.905.196h-362.468c-.989 0-1.957-.062-2.905-.196.886-6.593 1.854-13.197 2.905-19.79 120.819-9.148 241.638-9.148 362.467 0 1.051 6.593 2.02 13.197 2.906 19.79z" fill="#d82e3d"/><path d="m82.582 511.997h-41.104c-13.289-83.176-13.289-166.353 0-249.529 13.454-1.02 26.898-1.927 40.352-2.709-12.537 84.083-12.28 168.155.752 252.238z" fill="#d82e3d"/><path d="m403.943 262.469h-362.465c-12.341 0-22.345-10.004-22.345-22.345v-12.059c0-12.341 10.004-22.345 22.345-22.345h362.465c12.341 0 22.345 10.004 22.345 22.345v12.059c.001 12.341-10.004 22.345-22.345 22.345z" fill="#665e66"/><path d="m89.875 262.473h-48.398c-12.341 0-22.344-10.003-22.344-22.345v-12.063c0-12.341 10.003-22.344 22.344-22.344h48.398c-12.342 0-22.345 10.003-22.345 22.344v12.063c0 12.342 10.003 22.345 22.345 22.345z" fill="#544f57"/><path d="m356.517 306.451c-89.204-5.358-178.409-3.431-267.613 1.928-9.812 48.71-9.812 95.493 0 144.204 89.205 5.359 178.409 5.359 267.613 0 9.813-48.712 9.813-97.422 0-146.132z" fill="#f9f6f9"/><path d="m364.092 304.925c-.692-3.437-3.612-5.976-7.112-6.187-89.096-5.352-179.444-5.352-268.539 0-3.499.21-6.419 2.75-7.111 6.187-9.971 49.495-9.971 99.688 0 149.183.692 3.437 3.612 5.976 7.111 6.187 44.548 2.676 89.409 4.014 134.271 4.014 44.86 0 89.721-1.338 134.269-4.014 3.5-.21 6.419-2.75 7.112-6.187 9.969-49.496 9.969-99.688-.001-149.183zm-8.065 66.864h-49.761c-.171-20.087-1.003-40.161-2.505-60.139 15.463.561 30.904 1.279 46.309 2.162 3.557 19.254 5.539 38.61 5.957 57.977zm-141.039 0h-60.383c.175-20.259 1.041-40.504 2.594-60.647 19.243-.564 38.514-.87 57.789-.937zm0 15.452v61.587c-19.275-.066-38.546-.373-57.789-.937-1.553-20.144-2.419-40.391-2.594-60.65zm15.453 0h60.373c-.175 20.26-1.041 40.506-2.594 60.65-19.24.564-38.507.87-57.779.937zm0-15.452v-61.584c19.272.067 38.539.373 57.779.937 1.552 20.144 2.419 40.389 2.594 60.648h-60.373zm-88.783-60.139c-1.502 19.978-2.334 40.052-2.505 60.139h-49.758c.418-19.367 2.4-38.722 5.957-57.977 15.404-.883 30.844-1.601 46.306-2.162zm-52.263 75.591h49.758c.171 20.088 1.003 40.163 2.505 60.142-15.462-.561-30.902-1.279-46.306-2.162-3.558-19.255-5.54-38.612-5.957-57.98zm214.366 60.142c1.502-19.979 2.334-40.054 2.505-60.142h49.761c-.418 19.368-2.4 38.724-5.957 57.979-15.405.884-30.846 1.602-46.309 2.163z" fill="#c3bec6"/><path d="m318.416 0h146.868c11.044 0 19.996 8.953 19.996 19.996 0 11.044-8.953 19.996-19.996 19.996h-146.868c-11.044 0-19.996-8.953-19.996-19.996-.001-11.043 8.952-19.996 19.996-19.996z" fill="#da4a54"/><path d="m386.396 39.992h-67.981c-11.043 0-19.996-8.952-19.996-19.996 0-5.522 2.235-10.518 5.851-14.144 3.626-3.616 8.622-5.851 14.144-5.851h67.981c-5.522 0-10.518 2.235-14.134 5.851-3.626 3.626-5.862 8.623-5.862 14.144.001 11.044 8.954 19.996 19.997 19.996z" fill="#d82e3d"/><path d="m162.401 69.894h42.563v30.23h-42.563z" fill="#da4a54"/><path d="m162.401 69.894h19.992v30.23h-19.992z" fill="#d82e3d"/><path d="m87.207 127.033h42.563v30.23h-42.563z" fill="#da4a54"/><path d="m87.207 127.033h17.916v30.23h-17.916z" fill="#d82e3d"/></g></svg>