<svg id="Capa_1" enable-background="new 0 0 512 512" height="512" viewBox="0 0 512 512" width="512" xmlns="http://www.w3.org/2000/svg"><g><path d="m411.649 503.875c-103.766 10.833-207.532 10.833-311.298 0-19.898-2.077-35.517-18.005-37.119-37.947-9.943-123.754-9.943-247.507 0-371.261 1.602-19.942 17.221-35.87 37.119-37.947 103.766-10.833 207.532-10.833 311.298 0 19.898 2.077 35.517 18.005 37.119 37.947 9.943 123.754 9.943 247.507 0 371.261-1.603 19.942-17.222 35.87-37.119 37.947z" fill="#e27d47"/><path d="m107.168 504.569c-2.277-.216-4.543-.453-6.82-.69-19.893-2.081-35.51-18.007-37.117-37.952-9.941-123.755-9.941-247.51 0-371.264 1.607-19.934 17.225-35.86 37.117-37.941 2.266-.237 4.522-.464 6.789-.69-13.434 6.315-22.963 19.429-24.209 34.913-10.147 126.238-10.147 252.475 0 378.713 1.246 15.493 10.786 28.617 24.24 34.911z" fill="#dd6938"/><path d="m386.122 449.712c-97.342 12.391-191.126 11.944-288.468-.447-10.708-112.645-10.708-225.289 0-337.934 97.342-12.391 194.683-12.391 292.025 0 10.708 112.645 7.151 225.736-3.557 338.381z" fill="#dd6938"/><path d="m256 458.558c-48.443 0-97.569-3.126-146.013-9.293-10.658-112.118-10.658-225.815 0-337.934 48.443-6.167 97.569-9.293 146.013-9.293s97.569 3.126 146.012 9.293c10.657 112.118 10.657 225.815 0 337.934-48.443 6.167-97.568 9.293-146.012 9.293z" fill="#f9f6f9"/><path d="m358.837 66.982c-1.483-13.99-12.918-24.858-26.98-25.342-1.648-.062-3.307-.113-4.955-.175-9.684-.309-18.584-5.522-23.406-13.918-9.426-16.462-27.165-27.547-47.501-27.547-20.325 0-38.065 11.085-47.491 27.547-4.821 8.396-13.722 13.609-23.406 13.918-1.648.062-3.307.113-4.955.175-14.062.484-25.497 11.353-26.98 25.342-1.143 10.786-1.143 21.582 0 32.368 1.483 14 12.929 24.858 26.991 25.353 50.561 1.772 101.132 1.772 151.693 0 14.062-.494 25.507-11.353 26.991-25.353 1.143-10.786 1.143-21.582-.001-32.368zm-102.842 13.784c-14.381 0-26.043-11.662-26.043-26.053 0-14.381 11.662-26.043 26.043-26.043 14.392 0 26.053 11.662 26.053 26.043 0 14.391-11.661 26.053-26.053 26.053z" fill="#ffef4a"/><path d="m208.504 27.547c-4.821 8.396-13.722 13.609-23.406 13.918-1.648.062-3.307.113-4.955.175-14.062.484-25.497 11.353-26.98 25.343-1.143 10.786-1.143 21.582 0 32.368 1.484 14 12.929 24.858 26.991 25.353 4.708.165 9.416.319 14.114.443-5.501-5.882-9.406-16.298-10.116-25.796-.793-10.786-.793-21.582 0-32.368 1.04-13.99 9.024-24.858 18.852-25.343 1.154-.062 2.308-.113 3.461-.175 6.768-.309 12.98-5.522 16.349-13.918 6.582-16.462 18.965-27.537 33.171-27.547-20.315 0-38.054 11.085-47.481 27.547z" fill="#ffd321"/><path d="m358.997 268.311c-1.151-3.592-4.318-6.161-8.059-6.645-4.734-.611-9.468-1.083-14.198-1.405-3.728-.259-6.951-2.637-8.377-6.093-.013-.038-.03-.076-.047-.115-1.431-3.452-.841-7.409 1.618-10.228 3.112-3.575 6.131-7.252 9.044-11.035 2.306-2.985 2.726-7.044.998-10.398-5.057-9.804-12.487-17.234-22.291-22.291-3.354-1.728-7.413-1.308-10.398.998-3.783 2.913-7.46 5.931-11.035 9.044-2.819 2.458-6.776 3.049-10.228 1.618-.038-.017-.076-.034-.115-.047-3.456-1.427-5.834-4.649-6.093-8.377-.323-4.73-.794-9.464-1.405-14.198-.484-3.741-3.053-6.908-6.645-8.059-10.509-3.354-21.021-3.354-31.53 0-3.592 1.151-6.161 4.318-6.645 8.059-.611 4.734-1.083 9.468-1.405 14.198-.259 3.728-2.637 6.951-6.093 8.377-.038.013-.076.03-.115.047-3.452 1.431-7.409.841-10.228-1.618-3.575-3.112-7.252-6.131-11.035-9.044-2.985-2.306-7.044-2.726-10.398-.998-9.804 5.057-17.234 12.487-22.291 22.291-1.728 3.354-1.308 7.413.998 10.398 2.913 3.783 5.931 7.46 9.044 11.035 2.458 2.819 3.049 6.776 1.618 10.228-.017.038-.034.076-.047.115-1.427 3.456-4.649 5.834-8.377 6.093-4.73.323-9.464.794-14.198 1.405-3.741.484-6.908 3.053-8.059 6.645-3.354 10.509-3.354 21.021 0 31.53 1.151 3.592 4.318 6.161 8.059 6.645 4.734.611 9.468 1.083 14.198 1.405 3.728.259 6.951 2.637 8.377 6.093.013.038.03.076.047.115 1.431 3.452.841 7.409-1.618 10.228-3.112 3.575-6.131 7.252-9.044 11.035-2.306 2.985-2.726 7.044-.998 10.398 5.057 9.804 12.487 17.234 22.291 22.291 3.354 1.728 7.413 1.308 10.398-.998 3.783-2.913 7.46-5.932 11.035-9.044 2.819-2.458 6.776-3.049 10.228-1.618.038.017.076.034.115.047 3.456 1.427 5.834 4.649 6.093 8.377.323 4.73.794 9.464 1.405 14.198.484 3.741 3.053 6.908 6.645 8.059 10.509 3.354 21.021 3.354 31.53 0 3.592-1.151 6.161-4.318 6.645-8.059.611-4.734 1.083-9.468 1.405-14.198.259-3.728 2.637-6.951 6.093-8.377.038-.013.076-.03.115-.047 3.452-1.431 7.409-.841 10.228 1.618 3.575 3.112 7.252 6.131 11.035 9.044 2.985 2.305 7.044 2.726 10.398.998 9.804-5.057 17.234-12.487 22.291-22.291 1.728-3.354 1.308-7.413-.998-10.398-2.913-3.783-5.931-7.46-9.044-11.035-2.458-2.819-3.049-6.776-1.618-10.228.017-.038.034-.076.047-.115 1.427-3.456 4.649-5.834 8.377-6.093 4.73-.323 9.464-.794 14.198-1.405 3.741-.484 6.908-3.053 8.059-6.645 3.354-10.508 3.354-21.021 0-31.53zm-102.997 58.674c-23.698 0-42.909-19.211-42.909-42.909s19.211-42.909 42.909-42.909 42.909 19.211 42.909 42.909-19.211 42.909-42.909 42.909z" fill="#c3bec6"/><path d="m183.704 348.354c-1.728-3.495-1.308-7.723.998-10.836 2.913-3.94 5.932-7.774 9.044-11.498 2.458-2.938 3.049-7.061 1.618-10.657-.017-.042-.034-.081-.047-.123-1.427-3.601-4.649-6.076-8.377-6.348-4.73-.335-9.464-.828-14.199-1.465-3.741-.505-6.908-3.18-8.059-6.925-3.354-10.95-3.354-21.905 0-32.856 1.151-3.745 4.318-6.42 8.059-6.925 4.734-.637 9.469-1.129 14.199-1.465 3.728-.272 6.951-2.747 8.377-6.348.013-.042.03-.081.047-.123 1.431-3.596.841-7.719-1.618-10.657-3.112-3.724-6.131-7.558-9.044-11.498-2.306-3.112-2.726-7.341-.998-10.836 4.216-8.517 10.084-15.32 17.6-20.398-2.297-.637-4.794-.425-6.989.705-9.804 5.057-17.23 12.483-22.287 22.287-1.728 3.354-1.308 7.414.998 10.398 2.913 3.783 5.932 7.46 9.04 11.035 2.458 2.819 3.049 6.777 1.618 10.229-.017.038-.034.076-.047.115-1.427 3.456-4.645 5.834-8.373 6.093-4.73.323-9.464.794-14.199 1.405-3.741.484-6.908 3.053-8.059 6.645-3.354 10.509-3.354 21.022 0 31.531 1.151 3.592 4.318 6.161 8.059 6.645 4.734.611 9.469 1.083 14.199 1.405 3.728.259 6.946 2.637 8.373 6.093.013.038.03.076.047.115 1.431 3.452.841 7.409-1.618 10.229-3.108 3.575-6.127 7.252-9.04 11.035-2.306 2.985-2.726 7.044-.998 10.398 5.057 9.804 12.483 17.23 22.287 22.287 2.195 1.129 4.692 1.342 6.989.705-7.516-5.077-13.384-11.88-17.6-20.397zm61.562 34.656c-.611-4.934-1.083-9.868-1.405-14.797-.259-3.885-2.637-7.244-6.093-8.73-.038-.013-.076-.03-.115-.047-2.471-1.07-5.201-1.057-7.588-.025 1.219 1.516 1.979 3.384 2.119 5.401.323 4.73.794 9.464 1.405 14.199.484 3.741 3.053 6.908 6.645 8.059 2.607.832 5.218 1.461 7.825 1.881-1.506-1.572-2.508-3.653-2.793-5.941zm-5.031-201.931c-3.592 1.151-6.161 4.318-6.645 8.059-.611 4.734-1.083 9.469-1.405 14.199-.14 2.017-.9 3.885-2.119 5.401 2.386 1.032 5.116 1.044 7.588-.025.038-.017.076-.034.115-.047 3.456-1.486 5.834-4.845 6.093-8.73.323-4.93.794-9.863 1.405-14.797.285-2.289 1.287-4.369 2.794-5.94-2.608.419-5.219 1.047-7.826 1.88z" fill="#b4acb7"/></g></svg>