<svg id="Capa_1" enable-background="new 0 0 512 512" height="512" viewBox="0 0 512 512" width="512" xmlns="http://www.w3.org/2000/svg"><g><path d="m258.303 3.916c-1.535-.002-3.07-.002-4.605 0-132.72.146-240.474 107.9-240.62 240.62-.086 77.522 4.135 155.043 12.662 232.564 153.507 16.886 307.013 16.886 460.52 0 8.527-77.521 12.748-155.042 12.663-232.563-.146-132.72-107.9-240.475-240.62-240.621z" fill="#f9f6f9"/><path d="m56.156 477.097c64.53 8.18 129.061 12.393 193.602 12.651-74.678-.216-149.356-4.43-224.023-12.651-8.53-77.521-12.743-155.042-12.661-232.563.144-131.925 106.613-239.177 238.229-240.598-113.938 1.813-206.005 108.921-206.139 240.598-.072 77.521 3.595 155.042 10.992 232.563z" fill="#e2dfe2"/><path d="m398.532 182.253c-115.663-11.154-176.983-.792-292.646 10.362-3.181 25.351-28.947 27.321-30.537 52.672-4.771 76.052-2.386 152.105 7.157 228.157 115.663 11.155 231.325 11.155 346.988 0 9.463-75.421 11.888-150.842 7.274-226.263-1.589-25.982-34.976-38.946-38.236-64.928z" fill="#544f57"/><path d="m436.765 247.179h-.01c-120.5-9.427-241.011-9.427-361.511 0h-.01c1.587-25.981 4.007-51.963 7.273-77.944 115.669-11.157 231.327-11.157 346.985 0 3.265 25.981 5.686 51.963 7.273 77.944z" fill="#e2dfe2"/><path d="m436.153 254.884c-119.541-9.351-240.766-9.351-360.305 0l-1.205-15.405c120.341-9.413 242.376-9.413 362.716 0z" fill="#c3bec6"/><path d="m433.288 217.356c-117.641-9.066-236.936-9.066-354.575 0l-1.187-15.407c118.427-9.126 238.523-9.126 356.949 0z" fill="#c3bec6"/><path d="m251.773 372.417c-42.249 2.756-84.502 2.756-126.755 0-4.648-25.073-4.648-50.142 0-75.215 13.373-.873 26.75-1.467 40.123-1.787 15.503-.375 31.005-.375 46.508 0 13.373.32 26.75.914 40.123 1.787 4.649 25.073 4.649 50.142.001 75.215z" fill="#da4a54"/><path d="m141.856 373.368c-5.612-.265-11.225-.585-16.837-.951-4.648-25.073-4.648-50.142 0-75.215 5.612-.366 11.225-.686 16.837-.951-4.602 25.709-4.602 51.413 0 77.117z" fill="#d82e3d"/><path d="m211.65 295.415v40.663c0 4.09-4.666 6.435-7.948 3.99l-10.42-7.765c-2.898-2.157-6.869-2.157-9.771 0l-10.416 7.765c-3.282 2.445-7.952.1-7.952-3.99v-40.663c15.502-.374 31.004-.374 46.507 0z" fill="#e2dfe2"/><path d="m264.184 461.956c-50.522 3.296-101.05 3.296-151.577 0-5.558-29.983-5.558-59.961 0-89.944 15.992-1.044 31.989-1.754 47.981-2.137 18.539-.448 37.077-.448 55.616 0 15.992.383 31.989 1.093 47.981 2.137 5.558 29.983 5.558 59.961-.001 89.944z" fill="#e27d47"/><path d="m132.742 463.092c-6.712-.317-13.423-.7-20.134-1.137-5.558-29.983-5.558-59.961 0-89.944 6.711-.437 13.423-.82 20.134-1.137-5.504 30.744-5.504 61.481 0 92.218z" fill="#dd6938"/><path d="m216.204 369.875v48.625c0 4.891-5.58 7.695-9.504 4.771l-12.461-9.286c-3.465-2.58-8.214-2.58-11.685 0l-12.456 9.286c-3.924 2.924-9.51.12-9.51-4.771v-48.626c18.539-.447 37.077-.447 55.616.001z" fill="#f9f6f9"/><g><path d="m399.185 461.397c-50.52 4.038-101.05 4.038-151.581 0-5.553-36.767-5.553-73.535 0-110.302 15.999-1.277 31.987-2.153 47.986-2.627 18.533-.546 37.076-.546 55.609 0 15.999.474 31.997 1.35 47.986 2.627 5.553 36.768 5.553 73.535 0 110.302z" fill="#ffef4a"/><path d="m268.641 462.839c-7.016-.401-14.021-.886-21.036-1.442-5.553-36.767-5.553-73.534 0-110.301 7.016-.556 14.021-1.041 21.036-1.442-5.584 37.724-5.584 75.46 0 113.185z" fill="#ffd321"/><path d="m351.199 348.469v36.911c0 4.893-5.573 7.695-9.498 4.77l-12.465-9.282c-3.461-2.586-8.211-2.586-11.682 0l-12.455 9.282c-3.925 2.926-9.509.124-9.509-4.77v-36.911c18.533-.546 37.076-.546 55.609 0z" fill="#c3bec6"/></g><path d="m438.797 465.799-15.352-1.757c8.007-69.988 9.897-140.997 5.621-211.058-.009-.091-.016-.182-.022-.273-1.453-23.755-3.623-47.681-6.46-71.216-110.565-10.278-222.591-10.278-333.166 0-2.762 22.945-4.889 46.152-6.33 69.075-.008.192-.021.366-.037.522l-.023.438c-.002.046-.004.092-.007.138-.013.233-.029.462-.045.69l-.006.083c-.002.121-.006.241-.014.362-4.294 70.158-2.41 141.229 5.599 211.238l-15.352 1.757c-8.096-70.769-10.012-142.608-5.695-213.534.001-.124.005-.249.012-.374l.069-1.048c.007-.153.016-.306.024-.46l.014-.251c.007-.164.018-.328.035-.491 1.59-25.303 4.006-50.944 7.179-76.215.45-3.586 3.326-6.381 6.924-6.728 115.62-11.152 232.861-11.152 348.47 0 3.597.347 6.473 3.141 6.924 6.726 3.243 25.776 5.699 52.077 7.298 78.174.008.088.015.176.02.263h.001c4.346 71.017 2.435 142.996-5.681 213.939zm-371.155-215.604v.015c0-.005 0-.01 0-.015zm0-.015v.013c0-.004 0-.008 0-.013zm0-.015v.013c0-.004 0-.008 0-.013zm0-.015v.014c0-.005 0-.01 0-.014zm0-.015c0 .005 0 .009-.001.013.001-.004.001-.008.001-.013zm0-.013v.01c0-.004 0-.007 0-.01zm0-.013v.005c0-.002 0-.004 0-.005z" fill="#b4acb7"/><path d="m487.842 508.085h-463.683c-13.342 0-24.158-10.816-24.158-24.158 0-13.342 10.816-24.158 24.158-24.158h463.683c13.342 0 24.158 10.816 24.158 24.158 0 13.342-10.816 24.158-24.158 24.158z" fill="#78d0b1"/><path d="m511.999 483.927c0 6.665-2.699 12.713-7.077 17.08-4.368 4.378-10.415 7.077-17.08 7.077h-463.684c-13.341.001-24.158-10.816-24.158-24.157 0-3.399.701-6.644 1.978-9.591 3.709 8.571 12.249 14.566 22.18 14.566h463.684c6.665 0 12.712-2.699 17.08-7.077 2.143-2.132 3.884-4.677 5.099-7.489 1.278 2.947 1.978 6.192 1.978 9.591z" fill="#66b49d"/></g></svg>