<svg id="Capa_1" enable-background="new 0 0 512 512" height="512" viewBox="0 0 512 512" width="512" xmlns="http://www.w3.org/2000/svg"><g><g><path d="m317.427 132.888c-1.704-5.319-6.394-9.122-11.932-9.839-7.01-.905-14.02-1.603-21.023-2.081-5.52-.383-10.292-3.904-12.404-9.022-.019-.057-.044-.113-.069-.17-2.119-5.111-1.245-10.971 2.395-15.145 4.608-5.294 9.078-10.738 13.391-16.339 3.414-4.42 4.036-10.43 1.477-15.396-7.488-14.516-18.49-25.518-33.006-33.006-4.967-2.559-10.977-1.936-15.396 1.477-5.602 4.313-11.046 8.783-16.339 13.391-4.174 3.64-10.034 4.514-15.145 2.395-.057-.025-.113-.05-.17-.069-5.117-2.112-8.638-6.884-9.022-12.404-.478-7.003-1.176-14.013-2.081-21.023-.717-5.539-4.52-10.229-9.839-11.932-15.56-4.967-31.126-4.967-46.686 0-5.319 1.704-9.122 6.394-9.839 11.932-.905 7.01-1.603 14.02-2.081 21.023-.383 5.52-3.904 10.292-9.022 12.404-.057.019-.113.044-.17.069-5.111 2.119-10.97 1.245-15.145-2.395-5.294-4.608-10.738-9.078-16.339-13.391-4.42-3.414-10.43-4.036-15.396-1.477-14.516 7.488-25.518 18.49-33.006 33.006-2.559 4.967-1.936 10.977 1.477 15.396 4.313 5.602 8.783 11.046 13.391 16.339 3.64 4.174 4.514 10.034 2.395 15.145-.025.057-.05.113-.069.17-2.112 5.117-6.884 8.638-12.404 9.022-7.004.478-14.013 1.176-21.023 2.081-5.539.717-10.229 4.52-11.932 9.839-4.967 15.56-4.967 31.126 0 46.686 1.704 5.319 6.394 9.122 11.932 9.839 7.01.905 14.02 1.603 21.023 2.081 5.52.384 10.292 3.904 12.404 9.022.019.057.044.113.069.17 2.119 5.111 1.245 10.971-2.395 15.145-4.608 5.294-9.078 10.738-13.391 16.339-3.414 4.42-4.036 10.43-1.477 15.396 7.488 14.516 18.49 25.518 33.006 33.006 4.967 2.559 10.977 1.936 15.396-1.477 5.602-4.313 11.046-8.783 16.339-13.391 4.174-3.64 10.034-4.514 15.145-2.395.057.025.113.05.17.069 5.117 2.112 8.638 6.884 9.022 12.404.478 7.004 1.176 14.013 2.081 21.023.717 5.539 4.52 10.229 9.839 11.932 15.56 4.967 31.126 4.967 46.686 0 5.319-1.704 9.122-6.394 9.839-11.932.905-7.01 1.603-14.02 2.081-21.023.383-5.52 3.904-10.292 9.022-12.404.057-.019.113-.044.17-.069 5.111-2.119 10.97-1.245 15.145 2.395 5.294 4.608 10.738 9.078 16.339 13.391 4.42 3.414 10.43 4.036 15.396 1.477 14.516-7.488 25.518-18.49 33.006-33.006 2.559-4.967 1.936-10.977-1.477-15.396-4.313-5.602-8.783-11.046-13.391-16.339-3.64-4.174-4.514-10.034-2.395-15.145.025-.057.05-.113.069-.17 2.112-5.117 6.884-8.638 12.404-9.022 7.004-.478 14.013-1.176 21.023-2.081 5.539-.717 10.229-4.52 11.932-9.839 4.967-15.56 4.967-31.126 0-46.686zm-152.506 86.878c-35.09 0-63.535-28.445-63.535-63.535s28.445-63.535 63.535-63.535 63.535 28.445 63.535 63.535c0 35.089-28.445 63.535-63.535 63.535z" fill="#f9f6f9"/><path d="m57.872 251.406c-2.559-5.174-1.936-11.436 1.477-16.044 4.313-5.834 8.783-11.512 13.391-17.025 3.64-4.351 4.514-10.455 2.395-15.78-.025-.063-.05-.119-.069-.182-2.112-5.331-6.884-8.997-12.404-9.399-7.004-.497-14.014-1.226-21.024-2.169-5.539-.748-10.229-4.709-11.933-10.254-4.967-16.214-4.967-32.435 0-48.649 1.704-5.545 6.394-9.506 11.933-10.254 7.01-.943 14.02-1.672 21.024-2.169 5.52-.402 10.292-4.068 12.404-9.399.019-.063.044-.119.069-.182 2.119-5.325 1.245-11.43-2.395-15.78-4.608-5.514-9.078-11.191-13.391-17.025-3.414-4.608-4.036-10.87-1.477-16.044 6.243-12.612 14.932-22.684 26.06-30.203-3.401-.943-7.098-.629-10.348 1.044-14.517 7.488-25.513 18.484-33 33-2.559 4.967-1.936 10.977 1.477 15.397 4.313 5.602 8.783 11.046 13.385 16.34 3.64 4.175 4.514 10.034 2.395 15.145-.025.057-.05.113-.069.17-2.112 5.118-6.878 8.638-12.398 9.022-7.004.478-14.014 1.176-21.024 2.081-5.539.717-10.229 4.52-11.933 9.839-4.967 15.56-4.967 31.127 0 46.687 1.704 5.319 6.394 9.122 11.933 9.839 7.01.905 14.02 1.603 21.024 2.081 5.52.384 10.286 3.904 12.398 9.022.019.057.044.113.069.17 2.119 5.111 1.245 10.971-2.395 15.145-4.602 5.294-9.072 10.738-13.385 16.34-3.414 4.42-4.036 10.43-1.477 15.397 7.488 14.517 18.484 25.513 33 33 3.25 1.672 6.947 1.987 10.348 1.044-11.128-7.521-19.817-17.593-26.06-30.205zm91.156 51.315c-.905-7.306-1.603-14.611-2.081-21.91-.383-5.753-3.904-10.726-9.022-12.926-.057-.019-.113-.044-.17-.069-3.659-1.584-7.702-1.565-11.235-.038 1.804 2.244 2.93 5.011 3.137 7.997.478 7.004 1.176 14.014 2.081 21.024.717 5.539 4.52 10.229 9.839 11.933 3.86 1.232 7.727 2.163 11.587 2.785-2.231-2.327-3.715-5.407-4.136-8.796zm-7.45-298.998c-5.319 1.704-9.122 6.394-9.839 11.933-.905 7.01-1.603 14.02-2.081 21.024-.207 2.986-1.333 5.753-3.137 7.997 3.533 1.528 7.576 1.547 11.235-.038.057-.025.113-.05.17-.069 5.118-2.2 8.638-7.173 9.022-12.926.478-7.299 1.176-14.605 2.081-21.91.421-3.389 1.905-6.469 4.137-8.796-3.862.623-7.728 1.553-11.588 2.785z" fill="#e2dfe2"/></g><g><path d="m419.592 379.205c-1.26-3.933-4.728-6.746-8.824-7.276-5.184-.669-10.368-1.186-15.547-1.539-4.082-.284-7.611-2.887-9.173-6.671-.014-.042-.033-.084-.051-.126-1.567-3.78-.921-8.113 1.771-11.2 3.408-3.915 6.713-7.941 9.903-12.083 2.524-3.268 2.985-7.713 1.093-11.386-5.537-10.735-13.673-18.871-24.408-24.408-3.673-1.892-8.117-1.432-11.386 1.093-4.142 3.189-8.169 6.495-12.083 9.903-3.087 2.692-7.42 3.338-11.2 1.771-.042-.019-.084-.037-.126-.051-3.784-1.562-6.388-5.091-6.671-9.173-.353-5.179-.869-10.363-1.539-15.547-.53-4.096-3.343-7.564-7.276-8.824-11.507-3.673-23.018-3.673-34.524 0-3.933 1.26-6.746 4.728-7.276 8.824-.669 5.184-1.186 10.368-1.539 15.547-.284 4.082-2.887 7.611-6.671 9.173-.042.014-.084.033-.126.051-3.78 1.567-8.113.921-11.2-1.771-3.915-3.408-7.941-6.713-12.083-9.903-3.268-2.524-7.713-2.985-11.386-1.093-10.735 5.537-18.871 13.673-24.408 24.408-1.892 3.673-1.432 8.117 1.093 11.386 3.189 4.142 6.495 8.169 9.903 12.083 2.692 3.087 3.338 7.42 1.771 11.2-.019.042-.037.084-.051.126-1.562 3.784-5.091 6.388-9.173 6.671-5.179.353-10.363.869-15.547 1.539-4.096.53-7.564 3.343-8.824 7.276-3.673 11.507-3.673 23.018 0 34.524 1.26 3.933 4.728 6.746 8.824 7.276 5.184.669 10.368 1.186 15.547 1.539 4.082.284 7.611 2.887 9.173 6.672.014.042.033.084.051.126 1.567 3.78.921 8.113-1.771 11.2-3.408 3.915-6.713 7.941-9.903 12.083-2.524 3.268-2.985 7.713-1.093 11.386 5.537 10.735 13.673 18.871 24.408 24.408 3.673 1.892 8.117 1.432 11.386-1.093 4.142-3.189 8.169-6.495 12.083-9.903 3.087-2.692 7.42-3.338 11.2-1.771.042.019.084.037.126.051 3.784 1.562 6.388 5.091 6.671 9.173.353 5.179.869 10.363 1.539 15.547.53 4.096 3.343 7.564 7.276 8.824 11.507 3.673 23.018 3.673 34.524 0 3.933-1.26 6.746-4.728 7.276-8.824.669-5.184 1.186-10.368 1.539-15.547.284-4.082 2.887-7.611 6.671-9.173.042-.014.084-.033.126-.051 3.78-1.567 8.113-.921 11.2 1.771 3.915 3.408 7.941 6.713 12.083 9.903 3.268 2.524 7.713 2.985 11.386 1.093 10.735-5.537 18.871-13.673 24.408-24.408 1.892-3.673 1.432-8.117-1.093-11.386-3.189-4.142-6.495-8.169-9.903-12.083-2.692-3.087-3.338-7.42-1.771-11.2.019-.042.037-.084.051-.126 1.562-3.784 5.091-6.388 9.173-6.672 5.179-.353 10.363-.869 15.547-1.539 4.096-.53 7.564-3.343 8.824-7.276 3.672-11.506 3.672-23.017 0-34.524zm-112.779 49.116c-17.592 0-31.853-14.261-31.853-31.853s14.261-31.853 31.853-31.853 31.853 14.261 31.853 31.853-14.261 31.853-31.853 31.853z" fill="#c3bec6"/><path d="m227.65 466.85c-1.892-3.826-1.432-8.457 1.093-11.865 3.189-4.315 6.495-8.513 9.903-12.59 2.692-3.217 3.338-7.732 1.771-11.67-.019-.047-.037-.088-.051-.135-1.562-3.943-5.091-6.653-9.173-6.951-5.179-.367-10.363-.907-15.547-1.604-4.096-.553-7.564-3.482-8.824-7.583-3.673-11.99-3.673-23.986 0-35.976 1.26-4.101 4.728-7.03 8.824-7.583 5.184-.697 10.368-1.237 15.547-1.604 4.082-.298 7.611-3.008 9.173-6.951.014-.046.033-.088.051-.135 1.567-3.938.921-8.452-1.771-11.67-3.408-4.077-6.714-8.276-9.903-12.59-2.525-3.408-2.985-8.039-1.093-11.865 4.617-9.326 11.042-16.775 19.271-22.335-2.515-.697-5.249-.465-7.653.772-10.735 5.537-18.867 13.669-24.404 24.404-1.892 3.673-1.432 8.118 1.093 11.386 3.189 4.142 6.495 8.169 9.898 12.083 2.692 3.087 3.338 7.42 1.771 11.2-.019.042-.037.084-.051.126-1.562 3.784-5.086 6.388-9.168 6.672-5.179.353-10.363.869-15.547 1.539-4.096.53-7.564 3.343-8.824 7.276-3.673 11.507-3.673 23.018 0 34.525 1.26 3.933 4.728 6.746 8.824 7.276 5.184.669 10.368 1.186 15.547 1.539 4.082.284 7.606 2.887 9.168 6.672.014.042.033.084.051.126 1.567 3.78.921 8.113-1.771 11.2-3.403 3.915-6.709 7.941-9.898 12.083-2.525 3.268-2.985 7.713-1.093 11.386 5.537 10.735 13.669 18.867 24.404 24.404 2.404 1.237 5.137 1.469 7.653.772-8.229-5.56-14.654-13.008-19.271-22.334zm67.41 37.947c-.669-5.402-1.186-10.805-1.539-16.203-.284-4.254-2.887-7.932-6.672-9.559-.042-.014-.084-.033-.126-.051-2.706-1.172-5.695-1.158-8.308-.028 1.334 1.66 2.167 3.705 2.32 5.914.353 5.179.869 10.363 1.539 15.547.53 4.096 3.343 7.564 7.276 8.824 2.855.911 5.714 1.599 8.569 2.06-1.65-1.72-2.748-3.998-3.059-6.504zm-5.509-221.109c-3.933 1.26-6.746 4.728-7.276 8.824-.669 5.184-1.186 10.368-1.539 15.547-.153 2.208-.986 4.254-2.32 5.914 2.613 1.13 5.602 1.144 8.308-.028.042-.019.084-.037.126-.051 3.784-1.627 6.388-5.305 6.672-9.559.353-5.398.869-10.8 1.539-16.203.312-2.506 1.409-4.784 3.059-6.504-2.856.46-5.715 1.148-8.569 2.06z" fill="#b4acb7"/></g><g><path d="m501.373 190.917c-.886-2.766-3.326-4.745-6.206-5.117-3.646-.471-7.292-.834-10.935-1.082-2.871-.199-5.353-2.031-6.451-4.692-.01-.029-.023-.059-.036-.088-1.102-2.658-.647-5.706 1.246-7.877 2.397-2.753 4.722-5.585 6.965-8.498 1.776-2.299 2.099-5.425.768-8.008-3.894-7.55-9.617-13.272-17.167-17.167-2.583-1.331-5.709-1.007-8.008.768-2.913 2.243-5.745 4.568-8.498 6.965-2.171 1.893-5.219 2.348-7.877 1.246-.029-.013-.059-.026-.088-.036-2.662-1.099-4.493-3.581-4.692-6.452-.249-3.643-.611-7.289-1.082-10.935-.373-2.881-2.351-5.32-5.117-6.206-8.093-2.583-16.189-2.583-24.282 0-2.766.886-4.745 3.325-5.117 6.206-.471 3.646-.834 7.292-1.082 10.935-.199 2.871-2.031 5.353-4.692 6.452-.029.01-.059.023-.088.036-2.658 1.102-5.706.647-7.877-1.246-2.753-2.397-5.585-4.722-8.498-6.965-2.299-1.776-5.425-2.099-8.008-.768-7.55 3.894-13.272 9.617-17.167 17.167-1.331 2.583-1.007 5.709.768 8.008 2.243 2.913 4.568 5.745 6.965 8.498 1.893 2.171 2.348 5.219 1.246 7.877-.013.029-.026.059-.036.088-1.099 2.662-3.581 4.493-6.451 4.692-3.643.249-7.289.611-10.935 1.082-2.881.373-5.32 2.351-6.206 5.117-2.583 8.093-2.583 16.189 0 24.282.886 2.766 3.326 4.745 6.206 5.117 3.646.471 7.292.834 10.935 1.082 2.871.199 5.353 2.031 6.451 4.692.01.029.023.059.036.088 1.102 2.658.647 5.706-1.246 7.877-2.397 2.753-4.722 5.585-6.965 8.498-1.776 2.299-2.099 5.425-.768 8.008 3.894 7.55 9.617 13.272 17.167 17.167 2.583 1.331 5.709 1.007 8.008-.768 2.913-2.243 5.745-4.568 8.498-6.965 2.171-1.893 5.219-2.348 7.877-1.246.029.013.059.026.088.036 2.662 1.099 4.493 3.581 4.692 6.451.249 3.643.612 7.289 1.082 10.935.373 2.881 2.351 5.32 5.117 6.206 8.093 2.583 16.189 2.583 24.282 0 2.766-.886 4.745-3.326 5.117-6.206.471-3.646.834-7.292 1.082-10.935.199-2.871 2.031-5.353 4.692-6.451.029-.01.059-.023.088-.036 2.658-1.102 5.706-.647 7.877 1.246 2.753 2.397 5.585 4.722 8.498 6.965 2.299 1.776 5.425 2.099 8.008.768 7.55-3.894 13.272-9.617 17.167-17.167 1.331-2.583 1.007-5.709-.768-8.008-2.243-2.913-4.568-5.745-6.965-8.498-1.893-2.171-2.348-5.219-1.246-7.877.013-.029.026-.059.036-.088 1.099-2.662 3.581-4.493 6.451-4.692 3.643-.249 7.289-.611 10.935-1.082 2.881-.373 5.32-2.351 6.206-5.117 2.583-8.093 2.583-16.189 0-24.282zm-79.321 33.912c-12.024 0-21.771-9.747-21.771-21.771s9.747-21.771 21.771-21.771 21.771 9.747 21.771 21.771-9.747 21.771-21.771 21.771z" fill="#665e66"/><path d="m366.374 252.56c-1.331-2.691-1.007-5.948.768-8.345 2.243-3.035 4.568-5.987 6.965-8.855 1.893-2.263 2.348-5.438 1.246-8.208-.013-.033-.026-.062-.036-.095-1.099-2.773-3.581-4.679-6.452-4.889-3.643-.258-7.289-.638-10.935-1.128-2.881-.389-5.32-2.449-6.206-5.333-2.583-8.433-2.583-16.87 0-25.303.886-2.884 3.326-4.944 6.206-5.333 3.646-.49 7.292-.87 10.935-1.128 2.871-.209 5.353-2.116 6.452-4.889.01-.033.023-.062.036-.095 1.102-2.77.647-5.945-1.246-8.208-2.397-2.868-4.722-5.821-6.965-8.855-1.776-2.397-2.099-5.654-.768-8.345 3.247-6.56 7.766-11.798 13.554-15.709-1.769-.49-3.692-.327-5.382.543-7.55 3.895-13.27 9.614-17.164 17.164-1.331 2.583-1.007 5.709.768 8.008 2.243 2.914 4.568 5.745 6.962 8.499 1.893 2.171 2.348 5.219 1.246 7.877-.013.029-.026.059-.036.088-1.099 2.662-3.577 4.493-6.448 4.692-3.643.249-7.289.611-10.935 1.082-2.881.373-5.32 2.351-6.206 5.118-2.583 8.093-2.583 16.19 0 24.283.886 2.766 3.326 4.745 6.206 5.118 3.646.471 7.292.834 10.935 1.082 2.871.199 5.35 2.031 6.448 4.692.01.029.023.059.036.088 1.102 2.659.647 5.706-1.246 7.877-2.394 2.753-4.719 5.585-6.962 8.499-1.776 2.299-2.099 5.425-.768 8.008 3.895 7.55 9.614 13.27 17.164 17.164 1.691.87 3.613 1.033 5.382.543-5.788-3.909-10.307-9.147-13.554-15.707zm47.411 26.69c-.471-3.8-.834-7.599-1.082-11.396-.199-2.992-2.031-5.579-4.692-6.723-.029-.01-.059-.023-.088-.036-1.903-.824-4.006-.814-5.843-.02.938 1.167 1.524 2.606 1.632 4.159.249 3.643.612 7.289 1.082 10.935.373 2.881 2.351 5.32 5.118 6.206 2.008.641 4.019 1.125 6.027 1.449-1.163-1.209-1.935-2.812-2.154-4.574zm-3.875-155.514c-2.766.886-4.745 3.326-5.118 6.206-.471 3.646-.834 7.292-1.082 10.935-.108 1.553-.693 2.992-1.632 4.159 1.838.795 3.94.804 5.843-.02.029-.013.059-.026.088-.036 2.662-1.145 4.493-3.731 4.692-6.723.249-3.796.612-7.596 1.082-11.396.219-1.763.991-3.365 2.152-4.575-2.006.325-4.017.809-6.025 1.45z" fill="#544f57"/></g><g fill="#f9f6f9"><path d="m70.091 342.095.338 2.45c1.191 8.641-4.513 16.729-13.052 18.509l-26.267 5.474c-9.409 1.961-18.51-4.457-19.822-13.978l-.839-6.088c-1.312-9.521 5.714-18.161 15.302-18.819l26.769-1.836c8.701-.597 16.38 5.646 17.571 14.288z"/><path d="m103.333 402.826 1.518 1.953c5.352 6.888 4.457 16.744-2.049 22.555l-20.012 17.874c-7.168 6.402-18.259 5.395-24.155-2.195l-3.771-4.853c-5.897-7.589-4.132-18.585 3.842-23.949l22.265-14.974c7.238-4.867 17.01-3.3 22.362 3.589z"/><path d="m153.193 451.064 2.291.933c8.079 3.289 12.232 12.273 9.503 20.558l-8.393 25.485c-3.006 9.128-13.115 13.801-22.016 10.177l-5.692-2.317c-8.901-3.624-12.871-14.029-8.647-22.661l11.795-24.1c3.833-7.836 13.08-11.364 21.159-8.075z"/></g></g></svg>