<svg id="Capa_1" enable-background="new 0 0 512 512" height="512" viewBox="0 0 512 512" width="512" xmlns="http://www.w3.org/2000/svg"><g><path d="m256 0c-141.382 0-256 114.618-256 256s114.618 256 256 256 256-114.618 256-256-114.618-256-256-256zm0 341.804c-47.388 0-85.804-38.415-85.804-85.804s38.415-85.804 85.804-85.804 85.804 38.415 85.804 85.804-38.416 85.804-85.804 85.804z" fill="#f9f6f9"/><path d="m256 31.781c-123.828 0-224.219 100.391-224.219 224.219s100.391 224.219 224.219 224.219 224.219-100.391 224.219-224.219-100.391-224.219-224.219-224.219zm0 343.617c-65.942 0-119.398-53.456-119.398-119.398s53.456-119.398 119.398-119.398 119.398 53.456 119.398 119.398-53.456 119.398-119.398 119.398z" fill="#544f57"/><g><circle cx="134.516" cy="134.517" fill="#c3bec6" r="52.412"/><path d="m152.558 183.729c-5.625 2.07-11.703 3.194-18.038 3.194-28.948 0-52.416-23.457-52.416-52.405s23.467-52.415 52.416-52.415c6.336 0 12.414 1.123 18.038 3.194-20.068 7.345-34.377 26.609-34.377 49.222s14.309 41.865 34.377 49.21z" fill="#b4acb7"/></g><g><circle cx="377.484" cy="134.517" fill="#c3bec6" r="52.412"/><path d="m395.527 183.729c-5.625 2.07-11.703 3.194-18.038 3.194-28.948 0-52.416-23.457-52.416-52.405s23.467-52.415 52.416-52.415c6.336 0 12.414 1.123 18.038 3.194-20.068 7.345-34.377 26.609-34.377 49.222s14.309 41.865 34.377 49.21z" fill="#b4acb7"/></g><g><circle cx="427.805" cy="256.002" fill="#c3bec6" r="52.412"/><path d="m445.847 305.214c-5.625 2.07-11.703 3.194-18.038 3.194-28.948 0-52.416-23.457-52.416-52.405s23.467-52.415 52.416-52.415c6.336 0 12.414 1.123 18.038 3.194-20.068 7.345-34.377 26.609-34.377 49.222 0 22.611 14.309 41.865 34.377 49.21z" fill="#b4acb7"/></g><g><circle cx="377.484" cy="377.486" fill="#c3bec6" r="52.412"/><path d="m395.527 426.698c-5.625 2.07-11.703 3.194-18.038 3.194-28.948 0-52.416-23.457-52.416-52.405s23.467-52.415 52.416-52.415c6.336 0 12.414 1.123 18.038 3.194-20.068 7.345-34.377 26.609-34.377 49.222s14.309 41.865 34.377 49.21z" fill="#b4acb7"/></g><g><circle cx="256" cy="84.195" fill="#c3bec6" r="52.412"/><path d="m274.042 133.407c-5.625 2.07-11.703 3.194-18.038 3.194-28.948 0-52.416-23.457-52.416-52.405s23.467-52.415 52.416-52.415c6.336 0 12.414 1.123 18.038 3.194-20.068 7.345-34.377 26.609-34.377 49.222s14.31 41.865 34.377 49.21z" fill="#b4acb7"/></g><g><circle cx="256" cy="427.809" fill="#c3bec6" r="52.412"/><path d="m274.042 477.021c-5.625 2.07-11.703 3.194-18.038 3.194-28.948 0-52.416-23.457-52.416-52.405s23.467-52.415 52.416-52.415c6.336 0 12.414 1.123 18.038 3.194-20.068 7.345-34.377 26.609-34.377 49.222s14.31 41.864 34.377 49.21z" fill="#b4acb7"/></g><g><circle cx="134.516" cy="377.486" fill="#c3bec6" r="52.412"/><path d="m152.558 426.698c-5.625 2.07-11.703 3.194-18.038 3.194-28.948 0-52.416-23.457-52.416-52.405s23.467-52.415 52.416-52.415c6.336 0 12.414 1.123 18.038 3.194-20.068 7.345-34.377 26.609-34.377 49.222s14.309 41.865 34.377 49.21z" fill="#b4acb7"/></g><g><circle cx="84.195" cy="256.002" fill="#c3bec6" r="52.412"/><path d="m102.237 305.214c-5.625 2.07-11.703 3.194-18.038 3.194-28.948 0-52.416-23.457-52.416-52.405s23.467-52.415 52.416-52.415c6.336 0 12.414 1.123 18.038 3.194-20.068 7.345-34.377 26.609-34.377 49.222 0 22.611 14.31 41.865 34.377 49.21z" fill="#b4acb7"/></g></g></svg>