<svg id="Capa_1" enable-background="new 0 0 512 512" height="512" viewBox="0 0 512 512" width="512" xmlns="http://www.w3.org/2000/svg"><g><g fill="#544f57"><path d="m257.238 60.632h-9.287c-4.268 0-7.726-3.459-7.726-7.726s3.459-7.726 7.726-7.726h9.287c4.268 0 7.726 3.459 7.726 7.726s-3.458 7.726-7.726 7.726z"/><path d="m257.238 84.865h-9.287c-4.268 0-7.726-3.459-7.726-7.726s3.459-7.726 7.726-7.726h9.287c4.268 0 7.726 3.459 7.726 7.726s-3.458 7.726-7.726 7.726z"/><path d="m257.238 181.796h-9.287c-4.268 0-7.726-3.459-7.726-7.726s3.459-7.726 7.726-7.726h9.287c4.268 0 7.726 3.459 7.726 7.726s-3.458 7.726-7.726 7.726z"/><path d="m257.238 157.563h-9.287c-4.268 0-7.726-3.459-7.726-7.726s3.459-7.726 7.726-7.726h9.287c4.268 0 7.726 3.459 7.726 7.726s-3.458 7.726-7.726 7.726z"/><path d="m257.238 133.33h-9.287c-4.268 0-7.726-3.459-7.726-7.726s3.459-7.726 7.726-7.726h9.287c4.268 0 7.726 3.459 7.726 7.726s-3.458 7.726-7.726 7.726z"/><path d="m257.238 109.098h-9.287c-4.268 0-7.726-3.459-7.726-7.726s3.459-7.726 7.726-7.726h9.287c4.268 0 7.726 3.459 7.726 7.726.001 4.266-3.458 7.726-7.726 7.726z"/></g><g fill="#544f57"><path d="m299.645 60.632h-9.287c-4.268 0-7.726-3.459-7.726-7.726s3.459-7.726 7.726-7.726h9.287c4.268 0 7.726 3.459 7.726 7.726s-3.459 7.726-7.726 7.726z"/><path d="m299.645 84.865h-9.287c-4.268 0-7.726-3.459-7.726-7.726s3.459-7.726 7.726-7.726h9.287c4.268 0 7.726 3.459 7.726 7.726s-3.459 7.726-7.726 7.726z"/><path d="m299.645 181.796h-9.287c-4.268 0-7.726-3.459-7.726-7.726s3.459-7.726 7.726-7.726h9.287c4.268 0 7.726 3.459 7.726 7.726s-3.459 7.726-7.726 7.726z"/><path d="m299.645 157.563h-9.287c-4.268 0-7.726-3.459-7.726-7.726s3.459-7.726 7.726-7.726h9.287c4.268 0 7.726 3.459 7.726 7.726s-3.459 7.726-7.726 7.726z"/><path d="m299.645 133.33h-9.287c-4.268 0-7.726-3.459-7.726-7.726s3.459-7.726 7.726-7.726h9.287c4.268 0 7.726 3.459 7.726 7.726s-3.459 7.726-7.726 7.726z"/><path d="m299.645 109.098h-9.287c-4.268 0-7.726-3.459-7.726-7.726s3.459-7.726 7.726-7.726h9.287c4.268 0 7.726 3.459 7.726 7.726 0 4.266-3.459 7.726-7.726 7.726z"/></g><path d="m483.737 355.384c-8.534 0-15.453-6.918-15.453-15.453v-189.102c0-8.534 6.919-15.453 15.453-15.453s15.453 6.919 15.453 15.453v189.103c0 8.534-6.918 15.452-15.453 15.452z" fill="#c3bec6"/><path d="m475.304 355.384c-3.877 0-7.02-6.918-7.02-15.453v-189.102c0-8.534 3.143-15.453 7.02-15.453s7.02 6.919 7.02 15.453v189.103c0 8.534-3.143 15.452-7.02 15.452z" fill="#b4acb7"/><path d="m499.083 270.046h-86.233v-49.331h86.233c7.134 0 12.917 5.783 12.917 12.917v23.497c0 7.134-5.783 12.917-12.917 12.917z" fill="#665e66"/><path d="m511.991 240.51v16.617c0 7.139-5.779 12.919-12.908 12.919h-86.237v-16.617h86.237c7.129 0 12.908-5.779 12.908-12.919z" fill="#544f57"/><path d="m437.003 104.27v161.605c0 23.684-19.192 42.886-42.876 42.886h-378.427l-7.118-34.944-8.582-42.145h367.558c11.682 0 21.139-9.457 21.139-21.139v-31.369c0-11.672-9.457-21.139-21.139-21.139h-40.177v-87.7h75.677c18.75 0 33.945 15.195 33.945 33.945z" fill="#c3bec6"/><path d="m364.751 126.161c13.225 0 23.947 10.721 23.947 23.947v29.056c0-11.672-9.457-21.139-21.139-21.139h-35.284v-31.864z" fill="#b4acb7"/><path d="m388.698 210.528v34.665c0 15.813-12.816 28.629-28.618 28.629h-187.674l-21.24-14.571-103.613 14.571h-38.972l-8.581-42.155h367.558c11.683 0 21.14-9.457 21.14-21.139z" fill="#e2dfe2"/><path d="m231.523 366.307h-107.912v-46.987c0-25.136-20.377-45.503-45.503-45.503h-30.555l-8.221-60.636h9.344c29.968 0 56.516-19.316 65.746-47.821l25.219-77.902c3.307-10.219 12.826-17.132 23.56-17.132h51.88v87.7h-27.083c-12.3 0-20.449 12.764-15.278 23.921l34.594 74.596c7.974 17.194 14.031 35.16 18.09 53.569 4.059 18.397 6.119 37.239 6.119 56.195z" fill="#9dc6fb"/><path d="m160.131 361.001c-.175 1.803-.391 3.575-.628 5.305h-35.892v-46.986c0-25.136-20.377-45.503-45.503-45.503h-30.555l-8.221-60.636h9.344c29.968 0 56.516-19.316 65.746-47.821l25.219-77.902c3.307-10.219 12.826-17.132 23.56-17.132-18.996 67.147-18.996 116.472-64.221 150.386-45.225 33.913 71.937 30.832 61.151 140.289z" fill="#80b4fb"/><path d="m233.522 193.651h-18.39c-10.814 0-19.581-8.767-19.581-19.581v-121.164c0-10.814 8.767-19.581 19.581-19.581h18.39c10.814 0 19.581 8.767 19.581 19.581v121.164c0 10.814-8.767 19.581-19.581 19.581z" fill="#665e66"/><path d="m253.095 134.724v39.343c0 10.817-8.767 19.584-19.573 19.584h-18.389c-10.817 0-19.584-8.767-19.584-19.584v-39.343c0 10.806 8.767 19.573 19.584 19.573h18.389c10.807.001 19.573-8.766 19.573-19.573z" fill="#544f57"/><path d="m332.465 193.651h-18.39c-10.814 0-19.581-8.767-19.581-19.581v-121.164c0-10.814 8.767-19.581 19.581-19.581h18.39c10.814 0 19.581 8.767 19.581 19.581v121.164c.001 10.814-8.766 19.581-19.581 19.581z" fill="#665e66"/><path d="m352.039 134.724v39.343c0 10.817-8.767 19.584-19.573 19.584h-18.389c-10.817 0-19.584-8.767-19.584-19.584v-39.343c0 10.806 8.767 19.573 19.584 19.573h18.389c10.806.001 19.573-8.766 19.573-19.573z" fill="#544f57"/><path d="m375.879 345.819h-272.297c-17.32 0-31.36 14.04-31.36 31.36v38.526l188.112 31.111 146.905-31.111v-38.526c-.001-17.32-14.041-31.36-31.36-31.36z" fill="#665e66"/><path d="m165.248 345.82c-17.317 0-31.359 14.041-31.359 31.359v38.529h-61.667v-38.529c0-17.317 14.042-31.359 31.359-31.359z" fill="#544f57"/><g fill="#c3bec6"><path d="m350.282 231.667v16.792c0 4.275-3.462 7.726-7.726 7.726-4.275 0-7.726-3.451-7.726-7.726v-16.792z"/><path d="m313.587 231.667v16.792c0 4.275-3.461 7.726-7.726 7.726-4.275 0-7.726-3.451-7.726-7.726v-16.792z"/><path d="m276.882 231.667v16.792c0 4.275-3.451 7.726-7.726 7.726-4.265 0-7.726-3.451-7.726-7.726v-16.792z"/><path d="m240.187 231.667v16.792c0 4.275-3.451 7.726-7.726 7.726-4.265 0-7.726-3.451-7.726-7.726v-16.792z"/></g><g fill="#9dc6fb"><circle cx="483.737" cy="137.929" r="28.263"/><circle cx="483.737" cy="352.831" r="28.263"/></g><g fill="#80b4fb"><path d="m494.014 164.257c-3.183 1.257-6.645 1.937-10.271 1.937-15.607 0-28.268-12.661-28.268-28.268s12.661-28.258 28.268-28.258c3.626 0 7.088.68 10.271 1.937-10.528 4.11-17.977 14.34-17.977 26.321 0 11.98 7.448 22.22 17.977 26.331z"/><path d="m494.014 379.163c-3.183 1.246-6.645 1.927-10.271 1.927-15.607 0-28.268-12.65-28.268-28.258 0-15.607 12.661-28.268 28.268-28.268 3.626 0 7.088.68 10.271 1.937-10.528 4.11-17.977 14.35-17.977 26.331s7.448 22.21 17.977 26.331z"/></g><path d="m0 478.675h481.887v-23.378c0-21.867-17.726-39.593-39.593-39.593h-402.7c-21.868 0-39.594 17.727-39.594 39.594z" fill="#c3bec6"/><path d="m116.668 415.701c-21.86 0-39.59 17.729-39.59 39.6v23.375h-77.078v-23.375c0-21.871 17.729-39.6 39.59-39.6z" fill="#b4acb7"/></g></svg>