<svg id="Capa_1" enable-background="new 0 0 512 512" height="512" viewBox="0 0 512 512" width="512" xmlns="http://www.w3.org/2000/svg"><g><g><path d="m424.93 400.88c-112.62 8.39-225.24 8.39-337.86 0-9.6-59.11-11.76-118.22-6.47-177.34 1.53-17.15 3.69-34.3 6.47-51.45 74.46-5.54 148.92 12.857 223.38 14.637 38.16.92 76.32-17.476 114.48-14.637 12.39 76.269 12.39 152.53 0 228.79z" fill="#e27d47"/><path d="m126.252 169.524c-8.48 77.98-8.48 155.96 0 233.93-13.06-.74-26.12-1.6-39.18-2.57-12.39-76.26-12.39-152.52 0-228.79 13.06-.97 26.12-1.83 39.18-2.57z" fill="#dd6938"/><path d="m406.31 194.929s-11 31.24-50.9 69.81c0 0-54.45 11.98-118.03 11.98s-118.02-11.98-118.02-11.98c-18.59-17.96-30.91-26.51-38.76-41.2 1.53-17.15 3.69-34.3 6.47-51.45 74.46-5.54 148.92-7.42 223.38-5.64 35.2 14.44 68.68 26.46 95.86 28.48z" fill="#dd6938"/><path d="m424.93 172.089s-11 41.24-50.9 79.81c0 0-54.45 11.98-118.03 11.98s-118.02-11.98-118.02-11.98c-39.9-38.57-50.91-79.81-50.91-79.81 112.62-8.38 225.24-8.38 337.86 0z" fill="#eaaa89"/></g><path d="m461.852 400.882h-411.703c-23.554 0-42.649 19.094-42.649 42.649 0 23.554 19.094 42.649 42.649 42.649h411.703c23.554 0 42.648-19.094 42.648-42.649 0-23.554-19.094-42.649-42.648-42.649z" fill="#c3bec6"/><path d="m461.852 493.68h-411.704c-27.651 0-50.148-22.497-50.148-50.149s22.497-50.149 50.148-50.149h411.703c27.652 0 50.148 22.497 50.148 50.148.001 27.653-22.496 50.15-50.147 50.15zm-411.704-85.298c-19.38 0-35.148 15.768-35.148 35.149s15.768 35.149 35.148 35.149h411.703c19.381 0 35.148-15.768 35.148-35.148 0-19.381-15.768-35.149-35.148-35.149h-411.703z" fill="#b4acb7"/><g fill="#665e66"><circle cx="50.149" cy="443.531" r="19.472"/><circle cx="461.851" cy="443.531" r="19.472"/><circle cx="379.511" cy="443.531" r="19.472"/><circle cx="297.17" cy="443.531" r="19.472"/><circle cx="214.83" cy="443.531" r="19.472"/><circle cx="132.489" cy="443.531" r="19.472"/></g><circle cx="401.709" cy="121.112" fill="#78d0b1" r="102.791"/><path d="m416.187 222.882c-4.73.67-9.56 1.02-14.48 1.02-56.77 0-102.79-46.02-102.79-102.79s46.02-102.79 102.79-102.79c4.92 0 9.75.35 14.48 1.02-49.92 7.03-88.31 49.92-88.31 101.77 0 51.849 38.39 94.739 88.31 101.77z" fill="#66b49d"/><path d="m399.661 176.467c-2.135 0-4.184-.912-5.617-2.53l-38.396-43.396c-2.745-3.102-2.455-7.842.647-10.587 3.103-2.743 7.842-2.454 10.587.647l31.293 35.369 43.289-79.864c1.975-3.641 6.525-4.994 10.168-3.02 3.642 1.974 4.993 6.526 3.02 10.168l-48.397 89.287c-1.167 2.152-3.31 3.599-5.742 3.877-.284.033-.569.049-.852.049z" fill="#f9f6f9"/></g></svg>