<svg id="Capa_1" enable-background="new 0 0 512 512" height="512" viewBox="0 0 512 512" width="512" xmlns="http://www.w3.org/2000/svg"><g><path d="m496.906 215.009c-61.306-71.971-127.944-138.609-199.915-199.915-23.627-20.126-58.354-20.126-81.981 0-71.972 61.306-138.61 127.944-199.916 199.915-20.126 23.627-20.126 58.354 0 81.981 61.306 71.972 127.944 138.61 199.915 199.916 23.627 20.126 58.354 20.126 81.981 0 71.972-61.306 138.61-127.944 199.916-199.915 20.125-23.628 20.125-58.354 0-81.982z" fill="#665e66"/><path d="m237.822 496.908c8.726 7.428 18.955 12.115 29.587 14.052-18.172 3.327-37.488-1.36-52.395-14.052-71.979-61.306-138.611-127.949-199.917-199.917-20.13-23.632-20.13-58.35 0-81.982 61.306-71.968 127.938-138.611 199.917-199.917 14.907-12.692 34.223-17.379 52.395-14.052-10.632 1.937-20.861 6.624-29.587 14.052-71.968 61.306-138.61 127.949-199.917 199.917-20.119 23.632-20.119 58.35 0 81.982 61.307 71.968 127.949 138.611 199.917 199.917z" fill="#544f57"/><path d="m256 473.883c-5.956 0-11.735-2.129-16.274-5.994-70.095-59.706-135.909-125.52-195.615-195.615-8.033-9.43-8.033-23.118-.001-32.548 59.706-70.095 125.521-135.909 195.615-195.615 4.539-3.866 10.318-5.995 16.274-5.995s11.735 2.129 16.274 5.994c70.095 59.706 135.909 125.52 195.615 195.615 8.033 9.43 8.033 23.118 0 32.548-59.706 70.095-125.521 135.909-195.615 195.615-4.538 3.867-10.317 5.995-16.273 5.995z" fill="#ffef4a"/><g fill="#665e66"><path d="m248.63 135.341c4.914-.357 9.827-.357 14.741 0 12.14.882 21.7 10.761 22.086 22.927 1.16 36.604 1.16 73.208 0 109.812-.385 12.166-9.946 22.045-22.086 22.927-4.914.357-9.827.357-14.741 0-12.14-.882-21.7-10.761-22.086-22.927-1.16-36.604-1.16-73.208 0-109.812.386-12.166 9.946-22.045 22.086-22.927z"/><path d="m248.981 315.305c4.679-.128 9.358-.128 14.037 0 12.689.347 22.849 10.534 23.202 23.223.14 5.027.14 10.053 0 15.08-.354 12.689-10.513 22.876-23.202 23.223-4.679.128-9.358.128-14.037 0-12.689-.347-22.849-10.534-23.202-23.223-.14-5.027-.14-10.053 0-15.08.354-12.689 10.513-22.876 23.202-23.223z"/></g></g></svg>