<svg id="Capa_1" enable-background="new 0 0 512 512" height="512" viewBox="0 0 512 512" width="512" xmlns="http://www.w3.org/2000/svg"><g><path d="m404.736 350.647c-5.39 0-10.624-2.826-13.462-7.853-4.188-7.42-1.576-16.827 5.833-21.026.299-.17 30.155-17.357 54.097-47.96 30.694-39.235 37.831-81.727 21.212-126.297-12.04-32.291-30.568-47.124-55.04-44.096-44.846 5.55-101.537 70.567-110.282 149.274-.942 8.477-8.584 14.586-17.053 13.643-8.476-.942-14.585-8.577-13.643-17.053 4.729-42.559 21.932-84.596 48.441-118.366 26.061-33.2 58.407-54.395 88.744-58.149 18.737-2.321 36.504 2.008 51.391 12.511 15.486 10.926 27.727 28.235 36.381 51.445 20.465 54.885 11.305 109.162-26.492 156.964-27.751 35.098-61.143 54.171-62.55 54.966-2.398 1.355-5.005 1.997-7.577 1.997z" fill="#c3bec6"/><path d="m107.264 350.647c5.39 0 10.624-2.826 13.462-7.853 4.188-7.42 1.576-16.827-5.833-21.026-.299-.17-30.155-17.357-54.097-47.96-30.694-39.235-37.831-81.727-21.212-126.297 12.04-32.291 30.568-47.124 55.04-44.096 44.846 5.55 101.537 70.567 110.282 149.274.942 8.477 8.584 14.586 17.053 13.643 8.476-.942 14.585-8.577 13.643-17.053-4.729-42.559-21.932-84.596-48.441-118.366-26.061-33.2-58.407-54.395-88.744-58.149-18.737-2.321-36.504 2.008-51.391 12.511-15.486 10.926-27.727 28.235-36.382 51.446-20.465 54.884-11.305 109.162 26.492 156.964 27.751 35.098 61.143 54.171 62.55 54.966 2.399 1.354 5.006 1.996 7.578 1.996z" fill="#c3bec6"/><path d="m429.831 318.533c0-96.097-77.902-173.999-173.999-173.999s-174 77.901-174 173.999 77.902 121.314 173.999 121.314 174-25.217 174-121.314z" fill="#f9f6f9"/><g fill="#e2dfe2"><path d="m148.997 320.262c0 64.22 18.809 98.729 47.378 115.541-66.815-10.264-114.542-42.055-114.542-117.27 0-81.671 56.262-150.194 132.147-168.931-38.206 28.259-64.983 94.034-64.983 170.66z"/><g><path d="m379.963 282.605c-.675 0-1.36-.089-2.042-.276-79.871-21.83-164.306-21.831-244.179 0-4.116 1.125-8.365-1.299-9.49-5.415-1.126-4.116 1.3-8.365 5.416-9.49 82.537-22.56 169.789-22.561 252.328 0 4.116 1.125 6.541 5.374 5.415 9.49-.939 3.434-4.052 5.691-7.448 5.691z"/><path d="m379.958 329.235h-248.253c-4.268 0-7.726-3.459-7.726-7.726s3.459-7.726 7.726-7.726h248.254c4.268 0 7.726 3.459 7.726 7.726s-3.459 7.726-7.727 7.726z"/><path d="m255.832 392.513c-42.448 0-84.896-5.64-126.164-16.92-4.116-1.125-6.541-5.374-5.416-9.49 1.125-4.117 5.377-6.54 9.49-5.416 79.873 21.831 164.309 21.831 244.179 0 4.114-1.128 8.365 1.298 9.49 5.416 1.126 4.116-1.3 8.365-5.415 9.49-41.269 11.28-83.717 16.92-126.164 16.92z"/></g></g></g></svg>